<svg width="342" height="64" viewBox="0 0 342 64" fill="none" xmlns="http://www.w3.org/2000/svg">
<g clip-path="url(#clip0_1171_302120)">
<path fill-rule="evenodd" clip-rule="evenodd" d="M37.926 46.2701L33.2448 41.5292C31.4667 43.1883 29.6693 44.5024 27.8513 45.4708C26.0348 46.438 23.8615 46.9216 21.3335 46.9216C19.3579 46.9216 17.531 46.5372 15.852 45.7664C14.1731 44.9959 12.7211 43.9397 11.4963 42.5959C10.2714 41.2527 9.32397 39.6826 8.65158 37.8853C7.97999 36.0882 7.64499 34.1613 7.64499 32.1084C7.64499 30.0538 7.97999 28.1374 8.65158 26.3593C9.32397 24.5822 10.2714 23.0319 11.4963 21.708C12.7211 20.385 14.1731 19.3385 15.852 18.5678C17.531 17.7979 19.3579 17.4125 21.3335 17.4125C23.7033 17.4125 25.8172 17.8866 27.6738 18.8348C29.5311 19.7822 31.2892 21.0269 32.9474 22.5675L37.6292 17.1759C36.6419 16.2277 35.5953 15.3587 34.4887 14.568C33.383 13.7782 32.1781 13.0962 30.8742 12.5238C29.5701 11.9506 28.1382 11.5069 26.5775 11.1911C25.017 10.8745 23.2883 10.7162 21.3926 10.7162C18.2322 10.7162 15.3484 11.2798 12.7411 12.4055C10.1331 13.5311 7.88164 15.0717 5.98519 17.0272C4.08873 18.9827 2.61762 21.2636 1.57025 23.8714C0.522884 26.4786 0 29.2638 0 32.2266C0 35.2286 0.533278 38.0333 1.59984 40.6411C2.66639 43.2474 4.1383 45.5092 6.01476 47.4253C7.89124 49.3408 10.1131 50.8519 12.6812 51.9584C15.2492 53.0648 18.0547 53.6173 21.0961 53.6173C23.0325 53.6173 24.8002 53.4494 26.4 53.1136C28 52.7779 29.4718 52.2846 30.8149 51.6331C32.1583 50.9807 33.4127 50.21 34.5783 49.3216C35.7431 48.4327 36.8593 47.4151 37.926 46.2701Z" fill="black"/>
<path fill-rule="evenodd" clip-rule="evenodd" d="M131.956 22.4612C131.956 21.0813 132.546 19.9088 133.725 18.9436C134.903 17.9769 136.554 17.4943 138.675 17.4943C140.562 17.4943 142.428 17.8596 144.274 18.5887C146.121 19.3177 147.988 20.3722 149.873 21.7512L153.763 16.2532C151.642 14.5582 149.373 13.2676 146.956 12.3815C144.539 11.4945 141.819 11.051 138.793 11.051C136.75 11.051 134.864 11.3366 133.145 11.9085C131.416 12.4796 129.944 13.2972 128.715 14.3612C127.487 15.4261 126.524 16.6967 125.818 18.1747C125.12 19.6527 124.766 21.2983 124.766 23.1112C124.766 25.0423 125.071 26.6784 125.68 28.0183C126.289 29.3585 127.183 30.5013 128.342 31.4474C129.501 32.3934 130.945 33.1814 132.654 33.8125C134.373 34.4433 136.328 35.0137 138.538 35.5266C140.464 35.9995 142.025 36.4527 143.233 36.8857C144.432 37.3197 145.375 37.783 146.072 38.2752C146.759 38.7682 147.231 39.3096 147.487 39.9008C147.742 40.4926 147.869 41.1618 147.869 41.9108C147.869 43.5277 147.212 44.8087 145.896 45.7538C144.579 46.7006 142.801 47.1729 140.562 47.1729C137.968 47.1729 135.65 46.7093 133.607 45.7834C131.563 44.8574 129.541 43.5277 127.536 41.7928L123.175 46.9958C125.651 49.242 128.342 50.9073 131.249 51.9914C134.157 53.0754 137.202 53.617 140.384 53.617C142.546 53.617 144.53 53.341 146.338 52.7897C148.135 52.237 149.687 51.4291 150.964 50.365C152.25 49.3009 153.253 48.0008 153.979 46.4638C154.696 44.9267 155.06 43.1727 155.06 41.2017C155.06 39.4677 154.775 37.9601 154.205 36.679C153.635 35.3982 152.79 34.2758 151.691 33.3092C150.59 32.3439 149.196 31.5255 147.526 30.8557C145.856 30.1864 143.931 29.5754 141.769 29.0233C139.795 28.5504 138.175 28.0966 136.888 27.6633C135.611 27.2303 134.609 26.7573 133.872 26.2445C133.145 25.7322 132.645 25.1803 132.369 24.5894C132.095 23.9974 131.956 23.2883 131.956 22.4612Z" fill="black"/>
<path fill-rule="evenodd" clip-rule="evenodd" d="M212.635 23.0473V52.6116H219.836V11.3865H212.103L199.53 30.8802L186.957 11.3865H179.225V52.6116H186.426V23.1648L199.353 42.4822H199.589L212.635 23.0473Z" fill="black"/>
<path fill-rule="evenodd" clip-rule="evenodd" d="M280.339 32.2268C280.339 34.2413 279.993 36.1472 279.304 37.9452C278.613 39.7426 277.657 41.3022 276.435 42.6253C275.213 43.9486 273.743 44.9959 272.028 45.7664C270.312 46.5372 268.431 46.9219 266.381 46.9219C264.328 46.9219 262.436 46.5268 260.702 45.737C258.967 44.9462 257.478 43.8797 256.237 42.5374C254.995 41.1936 254.029 39.6235 253.337 37.8262C252.648 36.0291 252.303 34.1223 252.303 32.1084C252.303 30.0928 252.648 28.1869 253.337 26.3898C254.029 24.5918 254.984 23.0319 256.207 21.7082C257.429 20.385 258.897 19.3385 260.612 18.5678C262.327 17.7979 264.211 17.4126 266.261 17.4126C268.311 17.4126 270.206 17.8075 271.94 18.5982C273.675 19.3881 275.164 20.4545 276.405 21.7976C277.647 23.1399 278.613 24.7109 279.304 26.5082C279.993 28.3053 280.339 30.2121 280.339 32.2268ZM287.968 32.1084C287.968 29.1847 287.437 26.4195 286.372 23.8115C285.308 21.2052 283.829 18.9331 281.937 16.9976C280.043 15.0613 277.777 13.5311 275.134 12.4055C272.491 11.2798 269.574 10.7162 266.381 10.7162C263.185 10.7162 260.269 11.2894 257.625 12.4351C254.984 13.5807 252.697 15.1309 250.765 17.0864C248.832 19.0419 247.334 21.3235 246.27 23.9307C245.205 26.5376 244.672 29.3031 244.672 32.2266C244.672 35.1495 245.205 37.9141 246.27 40.5221C247.334 43.1299 248.813 45.4012 250.705 47.3366C252.597 49.2722 254.865 50.8032 257.508 51.9288C260.149 53.0546 263.068 53.6173 266.261 53.6173C269.455 53.6173 272.373 53.0441 275.014 51.8991C277.657 50.7535 279.944 49.2035 281.877 47.2472C283.81 45.2924 285.308 43.0108 286.372 40.4037C287.437 37.7965 287.968 35.0313 287.968 32.1084Z" fill="black"/>
<path fill-rule="evenodd" clip-rule="evenodd" d="M318.23 22.4612C318.23 21.0813 318.818 19.9088 319.998 18.9436C321.178 17.9769 322.827 17.4943 324.95 17.4943C326.835 17.4943 328.702 17.8596 330.547 18.5887C332.395 19.3177 334.262 20.3722 336.147 21.7512L340.036 16.2532C337.916 14.5582 335.646 13.2676 333.229 12.3815C330.814 11.4945 328.092 11.051 325.067 11.051C323.023 11.051 321.137 11.3366 319.418 11.9085C317.69 12.4796 316.218 13.2972 314.989 14.3612C313.76 15.4261 312.798 16.6967 312.09 18.1747C311.394 19.6527 311.04 21.2983 311.04 23.1112C311.04 25.0423 311.345 26.6784 311.953 28.0183C312.563 29.3585 313.457 30.5013 314.616 31.4474C315.774 32.3934 317.218 33.1814 318.927 33.8125C320.647 34.4433 322.601 35.0137 324.811 35.5266C326.737 35.9995 328.299 36.4527 329.506 36.8857C330.705 37.3197 331.648 37.783 332.346 38.2752C333.033 38.7682 333.504 39.3096 333.76 39.9008C334.016 40.4926 334.144 41.1618 334.144 41.9108C334.144 43.5277 333.485 44.8087 332.169 45.7538C330.852 46.7006 329.075 47.1729 326.835 47.1729C324.241 47.1729 321.922 46.7093 319.881 45.7834C317.837 44.8574 315.815 43.5277 313.809 41.7928L309.449 46.9958C311.923 49.242 314.616 50.9073 317.523 51.9914C320.431 53.0754 323.475 53.617 326.658 53.617C328.819 53.617 330.803 53.341 332.61 52.7897C334.409 52.237 335.96 51.4291 337.238 50.365C338.524 49.3009 339.527 48.0008 340.252 46.4638C340.969 44.9267 341.334 43.1727 341.334 41.2017C341.334 39.4677 341.048 37.9601 340.478 36.679C339.908 35.3982 339.064 34.2758 337.963 33.3092C336.864 32.3439 335.469 31.5255 333.799 30.8557C332.13 30.1864 330.204 29.5754 328.043 29.0233C326.07 28.5504 324.448 28.0966 323.162 27.6633C321.884 27.2303 320.883 26.7573 320.145 26.2445C319.418 25.7322 318.919 25.1803 318.643 24.5894C318.368 23.9974 318.23 23.2883 318.23 22.4612Z" fill="black"/>
<path fill-rule="evenodd" clip-rule="evenodd" d="M87.3248 19.6393L67.5934 39.3442C67.3389 38.8512 67.1094 38.3375 66.9035 37.8048C66.2144 36.0143 65.8699 34.1147 65.8699 32.1085C65.8699 30.1007 66.2144 28.2018 66.9035 26.4115C67.5934 24.6203 68.5489 23.0664 69.7707 21.7474C70.9924 20.4293 72.4608 19.3868 74.1747 18.619C75.8895 17.852 77.7709 17.4681 79.8198 17.4681C81.8695 17.4681 83.7613 17.8616 85.4944 18.6493C86.1387 18.9416 86.7488 19.2713 87.3248 19.6393ZM85.5836 45.7149C83.869 46.4827 81.9874 46.8659 79.9386 46.8659C77.8889 46.8659 75.9972 46.4725 74.2633 45.6855C73.6196 45.3924 73.0095 45.0628 72.4346 44.6939L92.1651 24.9907C92.4194 25.4828 92.6492 25.9957 92.8548 26.5292C93.5439 28.3197 93.8887 30.2193 93.8887 32.2263C93.8887 34.2333 93.5439 36.1322 92.8548 37.9234C92.1651 39.7137 91.2096 41.2676 89.9876 42.5858C88.7659 43.904 87.2984 44.9472 85.5836 45.7149ZM88.569 51.8246C91.2096 50.6833 93.4953 49.139 95.4262 47.1899C97.357 45.2426 98.854 42.9696 99.9181 40.3724C100.983 37.7753 101.515 35.0203 101.515 32.1085C101.515 29.1959 100.983 26.4409 99.9181 23.8429C99.2871 22.3027 98.5103 20.8802 97.5883 19.5748L110.422 6.75913L105.322 1.66663L92.4497 14.5213C91.2941 13.7344 90.0395 13.0543 88.6869 12.48C86.0463 11.3586 83.1305 10.7971 79.9386 10.7971C76.746 10.7971 73.8302 11.3682 71.1896 12.5095C68.5489 13.6508 66.2631 15.1951 64.3322 17.1432C62.4013 19.0913 60.9035 21.3644 59.8396 23.9616C58.7757 26.5589 58.2436 29.3137 58.2436 32.2263C58.2436 35.1381 58.7757 37.8922 59.8396 40.4904C60.4713 42.0315 61.248 43.4538 62.17 44.7601L49.3374 57.5742L54.4369 62.6666L67.3086 49.8127C68.4642 50.5996 69.7188 51.2798 71.0714 51.854C73.7122 52.9755 76.6281 53.5362 79.8198 53.5362C83.0123 53.5362 85.9281 52.9651 88.569 51.8246Z" fill="black"/>
</g>
<defs>
<clipPath id="clip0_1171_302120">
<rect width="341.333" height="64" fill="white"/>
</clipPath>
</defs>
</svg>
