<svg width="440" height="90" viewBox="0 0 440 90" fill="none" xmlns="http://www.w3.org/2000/svg">
<g clip-path="url(#clip0_1171_302197)">
<path d="M119.028 29.4534H123.811L137.195 60.5211H130.876L127.98 53.4125H114.508L111.7 60.5211H105.513L119.028 29.4534ZM126.049 48.6733L121.266 36.0356L116.395 48.6733H126.049Z" fill="#E84143"/>
<path d="M143.125 29.4534H149.488L157.957 52.9298L166.689 29.4534H172.657L160.107 60.5211H155.324L143.125 29.4534Z" fill="#E84143"/>
<path d="M192.416 29.4534H197.2L210.583 60.5211H204.264L201.369 53.4125H187.897L185.088 60.5211H178.901L192.416 29.4534ZM199.437 48.6733L194.655 36.0356L189.784 48.6733H199.437Z" fill="#E84143"/>
<path d="M222.813 29.4534H228.342V55.5187H241.55V60.5211H222.813V29.4534Z" fill="#E84143"/>
<path d="M264.392 29.4534H269.176L282.558 60.5211H276.24L273.344 53.4125H259.872L257.065 60.5211H250.877L264.392 29.4534ZM271.413 48.6733L266.63 36.0356L261.759 48.6733H271.413Z" fill="#E84143"/>
<path d="M294.788 29.4534H302.116L317.167 52.5349H317.255V29.4534H322.783V60.5211H315.763L300.404 36.6938H300.317V60.5211H294.788V29.4534Z" fill="#E84143"/>
<path d="M359.815 36.7385C358.674 35.5098 357.563 34.6907 356.48 34.2812C355.427 33.8717 354.358 33.6668 353.277 33.6668C351.668 33.6668 350.205 33.9594 348.888 34.5444C347.602 35.1003 346.49 35.8901 345.553 36.914C344.618 37.9087 343.887 39.0788 343.359 40.4245C342.862 41.7702 342.614 43.2182 342.614 44.7687C342.614 46.4362 342.862 47.972 343.359 49.3762C343.887 50.7805 344.618 51.9945 345.553 53.0184C346.49 54.0423 347.602 54.8468 348.888 55.4318C350.205 56.017 351.668 56.3094 353.277 56.3094C354.535 56.3094 355.748 56.017 356.919 55.4318C358.118 54.8174 359.229 53.8521 360.254 52.5357L364.818 55.7829C363.413 57.7136 361.702 59.1179 359.683 59.9955C357.664 60.8731 355.514 61.3118 353.233 61.3118C350.833 61.3118 348.625 60.9315 346.607 60.171C344.618 59.3811 342.892 58.2841 341.429 56.8798C339.995 55.4464 338.868 53.7351 338.05 51.7458C337.23 49.7566 336.821 47.5479 336.821 45.1197C336.821 42.6332 337.23 40.3807 338.05 38.3621C338.868 36.3144 339.995 34.5738 341.429 33.1403C342.892 31.7069 344.618 30.6099 346.607 29.8492C348.625 29.0593 350.833 28.6644 353.233 28.6644C355.339 28.6644 357.284 29.0447 359.069 29.8054C360.882 30.5367 362.564 31.7947 364.115 33.5791L359.815 36.7385Z" fill="#E84143"/>
<path d="M377.306 29.4534H382.834V41.8279H397.358V29.4534H402.887V60.5211H397.358V46.8303H382.834V60.5211H377.306V29.4534Z" fill="#E84143"/>
<path d="M418.605 29.4534H439.185V34.4559H424.135V42.0911H438.396V47.0936H424.135V55.5187H439.976V60.5211H418.605V29.4534Z" fill="#E84143"/>
<path fill-rule="evenodd" clip-rule="evenodd" d="M44.5835 89.5232C69.1946 89.5232 89.146 69.5719 89.146 44.9607C89.146 20.3495 69.1946 0.398178 44.5835 0.398178C19.9723 0.398178 0.0209961 20.3495 0.0209961 44.9607C0.0209961 69.5719 19.9723 89.5232 44.5835 89.5232ZM31.1187 65.1495H20.6648C18.1862 65.1495 16.9468 65.1495 16.2046 64.6694C15.4025 64.1508 14.8964 63.2803 14.8428 62.3272C14.7931 61.4452 15.4069 60.3698 16.6346 58.2192L16.6351 58.2184L39.5234 18.1206C40.7691 15.938 41.392 14.8468 42.1847 14.4405C43.0408 14.0017 44.0561 14.0009 44.913 14.4386C45.7061 14.8436 46.3305 15.934 47.5794 18.1146L52.8583 27.3313L52.8584 27.3316C53.7666 28.9171 54.2207 29.71 54.4204 30.5464C54.6378 31.4571 54.6382 32.4058 54.4216 33.3164C54.2227 34.1531 53.7692 34.9466 52.8623 36.5331L39.1753 60.4768C38.2553 62.0866 37.7952 62.8915 37.1649 63.493C36.4787 64.1479 35.6467 64.6306 34.7373 64.9011C33.9017 65.1495 32.9741 65.1495 31.1187 65.1495ZM68.4152 65.1495H56.2951C53.794 65.1495 52.5434 65.1495 51.7989 64.6653C50.9944 64.1421 50.4898 63.2652 50.4423 62.3075C50.3982 61.4213 51.0276 60.3413 52.2864 58.1819L58.3364 47.8021C59.5793 45.67 60.2009 44.6039 60.9875 44.2046C61.8379 43.773 62.8433 43.7723 63.6944 44.2025C64.4819 44.6006 65.1047 45.6658 66.3503 47.7959L66.3506 47.7966L72.4208 58.1761C73.6843 60.3369 74.3161 61.4174 74.273 62.3044C74.2263 63.2629 73.722 64.1407 72.9171 64.6647C72.1725 65.1495 70.9201 65.1495 68.4152 65.1495Z" fill="#E84143"/>
</g>
<defs>
<clipPath id="clip0_1171_302197">
<rect width="439.977" height="89.125" fill="white" transform="translate(0 0.398438)"/>
</clipPath>
</defs>
</svg>
