<svg width="278" height="64" viewBox="0 0 278 64" fill="none" xmlns="http://www.w3.org/2000/svg">
<g clip-path="url(#clip0_1171_302048)">
<path d="M6.82258 63.9947C3.06751 63.9947 0 60.9272 0 57.1722V24.2228C0 20.4678 3.06751 17.4531 6.82258 17.4531C10.5776 17.4531 13.6452 20.5206 13.6452 24.2757V57.225C13.5923 60.9272 10.5776 63.9947 6.82258 63.9947Z" fill="black"/>
<path d="M35.6467 63.9947C33.637 63.9947 31.6801 63.0956 30.4108 61.5618L16.6599 45.1136C14.5444 42.575 14.5444 38.9257 16.6599 36.387L30.4108 19.8859C32.8437 16.9771 37.1276 16.6069 39.9836 18.9868C42.8395 21.3668 43.2626 25.7036 40.8827 28.5596L30.781 40.7239L40.8827 52.8353C43.2626 55.7441 42.8924 60.0281 39.9836 62.408C38.7672 63.4129 37.2334 63.9947 35.6467 63.9947Z" fill="black"/>
<path d="M80.9191 63.9946H52.095C48.34 63.9946 45.2725 60.9271 45.2725 57.1721V24.2227C45.2725 20.4677 48.34 17.4001 52.095 17.4001C55.8501 17.4001 58.9176 20.4677 58.9176 24.2227V50.3495H74.1494V24.2227C74.1494 20.4677 77.2169 17.4001 80.972 17.4001C84.7271 17.4001 87.7946 20.4677 87.7946 24.2227V57.1721C87.7417 60.9271 84.6742 63.9946 80.9191 63.9946Z" fill="black"/>
<path d="M126.244 63.9947H97.4202C93.6652 63.889 90.7034 60.7686 90.8092 57.0135C90.915 53.4171 93.8238 50.5082 97.4202 50.4025H119.422V50.0322L95.5163 43.2097C92.6074 42.3635 90.5977 39.7191 90.5977 36.6515V24.2228C90.5977 20.4678 93.6652 17.4531 97.4202 17.4531H126.244C129.999 17.4531 133.067 20.5206 133.067 24.2757C133.067 28.0308 129.999 31.0983 126.244 31.0983H104.243V31.5214L128.148 38.344C131.057 39.1902 133.067 41.8346 133.067 44.9021V57.225C133.067 60.9801 129.999 63.9947 126.244 63.9947Z" fill="black"/>
<path d="M220.967 63.9946C217.212 63.9946 214.197 60.9271 214.197 57.1721V39.0314L211.024 41.7816C208.485 43.95 204.73 43.95 202.139 41.7816L198.965 39.0314V57.1721C198.965 60.9271 195.898 63.9946 192.143 63.9946C188.388 63.9946 185.32 60.9271 185.32 57.1721V24.2227C185.32 20.4677 188.388 17.4001 192.143 17.4001C193.782 17.4001 195.316 17.9819 196.586 19.0397L206.581 27.6076L216.524 19.0397C219.38 16.6068 223.664 16.9242 226.15 19.7801C227.208 20.9965 227.79 22.5832 227.79 24.2227V57.1721C227.842 60.9271 224.775 63.9946 220.967 63.9946Z" fill="black"/>
<path d="M175.642 63.9947C171.887 63.9947 168.819 60.9272 168.819 57.1722V51.4073L151.842 31.0454H149.515V50.3496H159.775C163.53 50.4554 166.492 53.5758 166.386 57.3308C166.281 60.9272 163.372 63.8361 159.775 63.9418H142.693C138.937 63.9418 135.923 60.8743 135.923 57.1193V24.2228C135.923 20.4678 138.99 17.4531 142.693 17.4531H155.068C157.078 17.4531 159.035 18.3522 160.304 19.886L180.878 44.5848C181.883 45.8012 182.464 47.335 182.464 48.9216V57.1722C182.464 60.9272 179.45 63.9947 175.642 63.9947Z" fill="black"/>
<path d="M270.417 63.9947C266.662 63.9947 263.595 60.9272 263.595 57.1722V51.4073L246.618 31.0454H244.238V50.3496H254.498C258.253 50.4554 261.215 53.5758 261.109 57.3308C261.003 60.9272 258.094 63.8361 254.498 63.9418H237.468C233.713 63.9418 230.646 60.8743 230.646 57.1193V24.2228C230.646 20.4678 233.713 17.4531 237.468 17.4531H249.844C251.854 17.4531 253.758 18.3522 255.08 19.886L275.653 44.5848C276.658 45.8012 277.24 47.335 277.24 48.9216V57.1722C277.24 60.9801 274.172 63.9947 270.417 63.9947Z" fill="black"/>
<path d="M149.198 0.84626C148.722 0.423155 148.193 0.105826 147.558 4.94001e-05C146.765 -0.105727 145.971 0.423155 145.443 0.793372C144.914 1.16359 143.856 2.11558 143.433 2.48579C143.01 2.85601 141.952 3.06756 140.207 4.12533C138.461 5.18309 131.692 9.51992 131.692 9.51992H133.437L125.557 13.5923H126.35L125.239 14.4385C125.874 14.5972 126.509 14.4914 127.09 14.1741V14.4385C127.09 14.4385 136.452 10.7364 138.25 11.6883L137.139 12.0057C137.245 12.0057 138.99 12.1114 138.99 12.1114C139.096 12.8519 139.519 13.5394 140.154 13.9096C141.211 14.5972 141.264 15.0203 141.264 15.0203C141.264 15.0203 140.735 15.2318 140.735 15.5492C141.74 15.2318 142.798 15.2318 143.75 15.5492C143.75 15.5492 143.697 15.2318 142.957 15.0203C142.216 14.703 141.582 14.227 141.106 13.5394C140.683 12.9577 140.524 12.2172 140.788 11.5297C141.053 10.8421 141.952 10.4719 143.803 9.51992C145.971 8.40927 146.5 7.56306 146.765 6.87551C147.029 6.18797 147.558 4.91865 147.77 4.28399C147.981 3.70222 148.351 3.22623 148.827 2.80312C149.409 2.48579 150.044 2.22135 150.626 2.0098C150.731 2.06269 149.568 1.1107 149.198 0.84626Z" fill="black"/>
</g>
<defs>
<clipPath id="clip0_1171_302048">
<rect width="277.224" height="64" fill="white"/>
</clipPath>
</defs>
</svg>
