<svg width="255" height="83" viewBox="0 0 255 83" fill="none" xmlns="http://www.w3.org/2000/svg">
<g clip-path="url(#clip0_1171_302208)">
<path d="M97.5682 60.5543V48.9657H106.046L113.727 60.5543H123.628L114.695 47.1826C117.312 45.9941 119.332 44.2806 120.754 42.0421C122.177 39.8036 122.888 37.1393 122.888 34.0488C122.888 30.9585 122.186 28.2842 120.783 26.0259C119.379 23.7676 117.378 22.0244 114.78 20.7962C112.182 19.568 109.119 18.9539 105.591 18.9539H88.3506V60.5543H97.5682ZM105.502 41.5971H97.9257V26.8527H105.502C108.294 26.8527 110.418 27.4872 111.872 28.7563C113.326 30.0251 114.053 31.8481 114.053 34.2249C114.053 36.5614 113.326 38.3744 111.872 39.6635C110.418 40.9526 108.294 41.5971 105.502 41.5971ZM144.571 61.0809C147.808 61.0809 150.703 60.3724 153.255 58.955C155.807 57.5377 157.806 55.5717 159.254 53.0565C160.701 50.5415 161.425 47.6871 161.425 44.4934C161.425 41.2996 160.701 38.4452 159.254 35.9303C157.806 33.415 155.807 31.449 153.255 30.0317C150.703 28.6144 147.808 27.9058 144.571 27.9058C141.333 27.9058 138.429 28.6144 135.858 30.0317C133.287 31.449 131.278 33.415 129.831 35.9303C128.383 38.4452 127.66 41.2996 127.66 44.4934C127.66 47.6871 128.383 50.5415 129.831 53.0565C131.278 55.5717 133.287 57.5377 135.858 58.955C138.429 60.3724 141.333 61.0809 144.571 61.0809ZM144.571 53.7086C142.298 53.7086 140.423 52.8974 138.946 51.2753C137.469 49.6531 136.731 47.4804 136.731 44.7567C136.731 42.0329 137.469 39.8602 138.946 38.238C140.423 36.6159 142.298 35.8047 144.571 35.8047C146.843 35.8047 148.708 36.6159 150.166 38.238C151.624 39.8602 152.354 42.0329 152.354 44.7567C152.354 47.4804 151.624 49.6531 150.166 51.2753C148.708 52.8974 146.843 53.7086 144.571 53.7086ZM175.831 60.5543V44.6487C175.831 41.7785 176.494 39.6158 177.819 38.1609C179.145 36.7057 180.925 35.9782 183.159 35.9782C185.167 35.9782 186.7 36.6061 187.761 37.8618C188.821 39.1174 189.352 41.021 189.352 43.5724V60.5543H198.214V42.1371C198.214 37.4334 197.049 33.8855 194.72 31.4935C192.391 29.1017 189.333 27.9058 185.545 27.9058C183.462 27.9058 181.55 28.2745 179.808 29.0119C178.065 29.7494 176.607 30.796 175.433 32.1515V28.3843H166.968V60.5543H175.831ZM210.813 24.2197C212.451 24.2197 213.785 23.7053 214.814 22.6763C215.842 21.6473 216.357 20.346 216.357 18.7723C216.357 17.3196 215.842 16.1091 214.814 15.1406C213.785 14.1722 212.451 13.688 210.813 13.688C209.175 13.688 207.841 14.1924 206.813 15.2012C205.784 16.2099 205.269 17.4609 205.269 18.9539C205.269 20.4469 205.784 21.6978 206.813 22.7066C207.841 23.7153 209.175 24.2197 210.813 24.2197ZM215.349 60.5543V28.4324H206.277V60.5543H215.349ZM232.275 60.5543V44.6487C232.275 41.7785 232.937 39.6158 234.263 38.1609C235.589 36.7057 237.369 35.9782 239.603 35.9782C241.61 35.9782 243.144 36.6061 244.205 37.8618C245.265 39.1174 245.795 41.021 245.795 43.5724V60.5543H254.658V42.1371C254.658 37.4334 253.493 33.8855 251.164 31.4935C248.835 29.1017 245.776 27.9058 241.989 27.9058C239.906 27.9058 237.993 28.2745 236.251 29.0119C234.509 29.7494 233.051 30.796 231.877 32.1515V28.3843H223.412V60.5543H232.275Z" fill="black"/>
<path fill-rule="evenodd" clip-rule="evenodd" d="M0 6.76171V56.7925C0.000578544 57.7272 0.209145 58.6495 0.610293 59.4918C1.01144 60.3338 1.59492 61.0745 2.31763 61.6584L25.687 80.5916C26.5091 81.2559 27.5308 81.618 28.584 81.618C29.6372 81.618 30.659 81.2559 31.4812 80.5916L54.8504 61.6584C55.5731 61.0745 56.1567 60.3338 56.5577 59.4918C56.9589 58.6495 57.1676 57.7272 57.1681 56.7925V6.76171C57.1681 5.1072 56.5169 3.52049 55.3579 2.35058C54.199 1.18068 52.6269 0.523438 50.9877 0.523438H6.18034C4.5412 0.523438 2.96921 1.18068 1.81018 2.35058C0.651139 3.52049 0 5.1072 0 6.76171Z" fill="#004DE5"/>
<path d="M45.2492 29.4307V18.5265C45.2492 17.0805 44.6872 15.6937 43.687 14.6713C42.6865 13.6488 41.3298 13.0744 39.9152 13.0744H17.2452C15.8305 13.0744 14.4738 13.6488 13.4734 14.6713C12.4731 15.6937 11.9111 17.0805 11.9111 18.5265V50.1656C11.9116 50.9824 12.0916 51.7886 12.4379 52.5247C12.7841 53.2609 13.2877 53.9078 13.9114 54.4183L22.1659 61.1926C22.2639 61.274 22.3824 61.3251 22.5077 61.3401C22.633 61.3553 22.76 61.3338 22.8738 61.2782C22.9876 61.2224 23.0836 61.135 23.1507 61.0257C23.2178 60.9164 23.2531 60.7901 23.2527 60.661V38.2903C23.2527 38.1097 23.323 37.9361 23.448 37.8084C23.5731 37.6808 23.7426 37.6089 23.9195 37.6089H29.9204C30.9814 37.6089 31.999 38.0396 32.7492 38.8066C33.4994 39.5733 33.9208 40.6133 33.9208 41.6978V60.661C33.9211 60.7895 33.9564 60.9151 34.0235 61.0239C34.0903 61.1323 34.1859 61.2195 34.2992 61.275C34.4122 61.3306 34.5385 61.3524 34.6633 61.3377C34.7882 61.3232 34.9065 61.2729 35.0044 61.1926L43.259 54.4183C43.8826 53.9078 44.3862 53.2609 44.7324 52.5247C45.0788 51.7886 45.2586 50.9824 45.2591 50.1656V40.335C45.2591 38.889 44.6973 37.5022 43.6968 36.4796C42.6964 35.4572 41.3397 34.8827 39.9251 34.8827C41.3381 34.8801 42.6923 34.3045 43.6904 33.2824C44.6885 32.2601 45.2492 30.8749 45.2492 29.4307ZM29.9136 32.1568H23.9128C23.736 32.1568 23.5664 32.085 23.4413 31.9573C23.3163 31.8293 23.2461 31.6561 23.2461 31.4752V19.208C23.2461 19.0273 23.3163 18.8539 23.4413 18.7261C23.5664 18.5983 23.736 18.5265 23.9128 18.5265H33.2476C33.4243 18.5265 33.5939 18.5983 33.7189 18.7261C33.8439 18.8539 33.9143 19.0273 33.9143 19.208V28.0676C33.9143 29.1521 33.4929 30.1921 32.7424 30.9591C31.9922 31.7258 30.9746 32.1568 29.9136 32.1568Z" fill="url(#paint0_linear_1171_302208)"/>
</g>
<defs>
<linearGradient id="paint0_linear_1171_302208" x1="28.5852" y1="13.0744" x2="28.5852" y2="61.3448" gradientUnits="userSpaceOnUse">
<stop stop-color="white"/>
<stop offset="0.458333" stop-color="white"/>
<stop offset="1" stop-color="white"/>
</linearGradient>
<clipPath id="clip0_1171_302208">
<rect width="254.658" height="81.6211" fill="white" transform="translate(0 0.523438)"/>
</clipPath>
</defs>
</svg>
