<svg width="304" height="85" viewBox="0 0 304 85" fill="none" xmlns="http://www.w3.org/2000/svg">
<g clip-path="url(#clip0_1171_302140)">
<path d="M118.437 59.3626H137.535V64.9956H108.562L128.101 30.8564H111.76V25.2103H137.975L118.437 59.3626Z" fill="url(#paint0_linear_1171_302140)"/>
<path d="M150.534 25.2103V64.9956H144.533V25.2103H150.534Z" fill="url(#paint1_linear_1171_302140)"/>
<path d="M166.1 25.2103V59.3495H177.806V64.9956H160.08V25.2103H166.1Z" fill="url(#paint2_linear_1171_302140)"/>
<path d="M189.518 25.2103V59.3495H201.217V64.9956H183.491V25.2103H189.518Z" fill="url(#paint3_linear_1171_302140)"/>
<path d="M212.904 25.2103V64.9956H206.903V25.2103H212.904Z" fill="url(#paint4_linear_1171_302140)"/>
<path d="M262.97 65.7311H255.42L252.295 62.5338C248.993 64.6599 245.14 65.7715 241.213 65.7311C236.026 65.7726 231.012 63.8708 227.157 60.4001C224.992 58.5373 223.27 56.2154 222.115 53.6034C220.96 50.9915 220.401 48.155 220.48 45.3001C220.412 42.4951 220.939 39.7076 222.028 37.1216C223.117 34.5356 224.742 32.2101 226.796 30.2986C230.533 26.6849 235.489 24.6028 240.685 24.4631C245.882 24.3233 250.943 26.136 254.869 29.5436C259.683 33.6315 262.09 38.9669 262.09 45.5496C262.09 50.7055 260.193 55.2836 256.398 59.284L262.97 65.7311ZM246.452 49.2392L252.223 54.9904C253.481 53.685 254.467 52.1417 255.122 50.4507C255.777 48.7598 256.088 46.9552 256.037 45.1425C256.082 43.1656 255.729 41.1999 254.998 39.3625C254.267 37.5251 253.174 35.8537 251.783 34.4478C250.418 33.0339 248.774 31.9187 246.956 31.1728C245.138 30.427 243.184 30.0667 241.22 30.1147C239.262 30.0562 237.315 30.412 235.504 31.1587C233.694 31.9055 232.062 33.0263 230.715 34.4478C227.949 37.3146 226.566 40.9474 226.566 45.3461C226.566 49.6485 227.993 53.1631 230.846 55.8898C232.181 57.2294 233.767 58.2924 235.513 59.0179C237.259 59.7434 239.132 60.1172 241.023 60.1178C243.484 60.1525 245.911 59.5389 248.06 58.3386L238.705 49.2852L246.452 49.2392Z" fill="url(#paint5_linear_1171_302140)"/>
<path d="M292.999 55.3449H275.982L271.551 64.9958H265.084L284.78 22.7026L303.773 64.9958H297.208L292.999 55.3449ZM290.551 49.6988L284.642 36.1679L278.457 49.6988H290.551Z" fill="url(#paint6_linear_1171_302140)"/>
<path d="M47.9459 40.6386L15.0541 56.8219L47.9459 72.4209V84.9999L0.0262609 62.2776L0 49.8956L33.3448 33.5022L0.0262609 17.7063V5.12732L47.9459 27.8496V40.6386Z" fill="url(#paint7_linear_1171_302140)"/>
<path d="M0.0258789 5.12744L12.6902 0L60.6098 22.7157L47.9455 27.8497L0.0258789 5.12744Z" fill="url(#paint8_linear_1171_302140)"/>
<path d="M47.9463 40.6386L60.6106 35.5046V22.7156L47.9463 27.8496V40.6386Z" fill="url(#paint9_linear_1171_302140)"/>
<path d="M47.9463 72.4208V47.276L60.6106 41.4526V79.8658L47.9463 84.9998V72.4208Z" fill="url(#paint10_linear_1171_302140)"/>
</g>
<defs>
<linearGradient id="paint0_linear_1171_302140" x1="67.0768" y1="43.9212" x2="421.284" y2="51.4319" gradientUnits="userSpaceOnUse">
<stop stop-color="#05707E"/>
<stop offset="0.52" stop-color="#2B9297"/>
<stop offset="1" stop-color="#4DBBBA"/>
</linearGradient>
<linearGradient id="paint1_linear_1171_302140" x1="67.0832" y1="43.4026" x2="421.297" y2="50.9198" gradientUnits="userSpaceOnUse">
<stop stop-color="#05707E"/>
<stop offset="0.52" stop-color="#2B9297"/>
<stop offset="1" stop-color="#4DBBBA"/>
</linearGradient>
<linearGradient id="paint2_linear_1171_302140" x1="67.0902" y1="43.0677" x2="421.304" y2="50.5784" gradientUnits="userSpaceOnUse">
<stop stop-color="#05707E"/>
<stop offset="0.52" stop-color="#2B9297"/>
<stop offset="1" stop-color="#4DBBBA"/>
</linearGradient>
<linearGradient id="paint3_linear_1171_302140" x1="67.1029" y1="42.5688" x2="421.317" y2="50.086" gradientUnits="userSpaceOnUse">
<stop stop-color="#05707E"/>
<stop offset="0.52" stop-color="#2B9297"/>
<stop offset="1" stop-color="#4DBBBA"/>
</linearGradient>
<linearGradient id="paint4_linear_1171_302140" x1="67.1163" y1="42.083" x2="421.324" y2="49.5936" gradientUnits="userSpaceOnUse">
<stop stop-color="#05707E"/>
<stop offset="0.52" stop-color="#2B9297"/>
<stop offset="1" stop-color="#4DBBBA"/>
</linearGradient>
<linearGradient id="paint5_linear_1171_302140" x1="67.1294" y1="41.4004" x2="421.337" y2="48.911" gradientUnits="userSpaceOnUse">
<stop stop-color="#05707E"/>
<stop offset="0.52" stop-color="#2B9297"/>
<stop offset="1" stop-color="#4DBBBA"/>
</linearGradient>
<linearGradient id="paint6_linear_1171_302140" x1="67.1686" y1="39.4505" x2="421.382" y2="46.9677" gradientUnits="userSpaceOnUse">
<stop stop-color="#05707E"/>
<stop offset="0.52" stop-color="#2B9297"/>
<stop offset="1" stop-color="#4DBBBA"/>
</linearGradient>
<linearGradient id="paint7_linear_1171_302140" x1="47.9787" y1="85.4857" x2="7.97019" y2="18.0805" gradientUnits="userSpaceOnUse">
<stop stop-color="#05707E"/>
<stop offset="0.52" stop-color="#2B9297"/>
<stop offset="1" stop-color="#4DBBBA"/>
</linearGradient>
<linearGradient id="paint8_linear_1171_302140" x1="2.39593" y1="3.91287" x2="59.4215" y2="24.357" gradientUnits="userSpaceOnUse">
<stop stop-color="#05707E"/>
<stop offset="0.52" stop-color="#2B9297"/>
<stop offset="1" stop-color="#4DBBBA"/>
</linearGradient>
<linearGradient id="paint9_linear_1171_302140" x1="47.9463" y1="31.6771" x2="60.6106" y2="31.6771" gradientUnits="userSpaceOnUse">
<stop stop-color="#05707E"/>
<stop offset="0.52" stop-color="#2B9297"/>
<stop offset="1" stop-color="#4DBBBA"/>
</linearGradient>
<linearGradient id="paint10_linear_1171_302140" x1="54.1242" y1="38.7149" x2="54.4196" y2="84.8816" gradientUnits="userSpaceOnUse">
<stop stop-color="#05707E"/>
<stop offset="0.52" stop-color="#2B9297"/>
<stop offset="1" stop-color="#4DBBBA"/>
</linearGradient>
<clipPath id="clip0_1171_302140">
<rect width="303.773" height="85" fill="white"/>
</clipPath>
</defs>
</svg>
