<svg width="251" height="64" viewBox="0 0 251 64" fill="none" xmlns="http://www.w3.org/2000/svg">
<g clip-path="url(#clip0_1171_302156)">
<mask id="mask0_1171_302156" style="mask-type:luminance" maskUnits="userSpaceOnUse" x="0" y="0" width="251" height="64">
<path d="M250.667 0H0V63.6613H250.667V0Z" fill="white"/>
</mask>
<g mask="url(#mask0_1171_302156)">
<path d="M58.9478 26.0391H75.8798C80.6526 26.0391 84.3984 27.4357 86.8403 29.8C88.9267 31.9885 90.0542 34.9061 89.9771 37.9155V38.0203C89.9771 44.2053 86.2312 47.9112 80.9699 49.4176L91.2256 63.6632H83.3008L73.9664 50.5499H65.6136V63.6632H58.9478V26.0391ZM75.3912 44.6941C80.1643 44.6941 83.2054 42.2 83.2054 38.4043V38.2944C83.2054 34.2643 80.275 32.0595 75.3358 32.0595H65.6136V44.6941H75.3912Z" fill="#003057"/>
<path d="M117.002 25.7786H123.19L139.9 63.6871H132.852L129 54.6039H111.036L107.129 63.6871H100.292L117.002 25.7786ZM126.568 48.7231L120.023 33.6695L113.478 48.7333L126.568 48.7231Z" fill="#003057"/>
<path d="M150.771 26.0391H164.934C176.871 26.0391 185.118 34.1544 185.118 44.7488V44.8536C185.118 55.4432 176.871 63.6683 164.934 63.6683H150.771V26.0391ZM157.447 32.0595V57.6477H164.934C172.909 57.6477 178.12 52.3256 178.12 44.9635V44.8536C178.12 37.4915 172.909 32.0595 164.934 32.0595H157.447Z" fill="#003057"/>
<path d="M203.468 26.0391H196.792V63.6683H203.468V26.0391Z" fill="#003057"/>
<path d="M250.174 26.0391L236.938 44.4248L250.718 63.6683H242.848L232.814 49.3179L222.825 63.6683H215.177L228.907 44.5293L215.721 26.0391H223.585L233.031 39.6912L242.526 26.0391H250.174Z" fill="#003057"/>
<path d="M27.8072 55.7504C27.2088 55.7501 26.6192 55.6091 26.0869 55.3384C25.5547 55.0677 25.095 54.6755 24.7459 54.1941L9.76747 33.6389H0V26.1569H11.7008C12.2987 26.1561 12.8882 26.2965 13.4205 26.5662C13.9529 26.836 14.4127 27.2275 14.762 27.7083L27.0016 44.4976L45.6755 2.2396C45.9696 1.57331 46.4533 1.0065 47.0677 0.608677C47.6821 0.210857 48.4005 -0.000682531 49.1344 1.65441e-06H72.5008V7.48195H51.6064L31.2709 53.5059C31.0029 54.1128 30.5768 54.6384 30.0363 55.0283C29.4957 55.4184 28.8603 55.6589 28.1947 55.7256C28.0605 55.7328 27.9261 55.7328 27.792 55.7256" fill="#00C389"/>
</g>
</g>
<defs>
<clipPath id="clip0_1171_302156">
<rect width="250.667" height="64" fill="white"/>
</clipPath>
</defs>
</svg>
