<svg width="244" height="65" viewBox="0 0 244 65" fill="none" xmlns="http://www.w3.org/2000/svg">
<g clip-path="url(#clip0_1122_304216)">
<path d="M95.7075 56.4989H88.1309V12.8594H100.342L116.299 53.3333L115.148 53.6608V12.8594H122.75V56.4989H110.345L94.4672 16.1144L95.7075 15.8217V56.4989Z" fill="black"/>
<path d="M142.93 57.1243C139.878 57.1881 136.861 56.4688 134.167 55.0354C131.693 53.6945 129.641 51.6933 128.237 49.2548C126.779 46.6754 126.039 43.7523 126.094 40.7899C126.034 37.8362 126.775 34.9216 128.237 32.3547C129.649 29.9363 131.701 27.9548 134.167 26.6287C136.886 25.2682 139.884 24.5598 142.925 24.5598C145.965 24.5598 148.963 25.2682 151.682 26.6287C154.158 27.9503 156.219 29.9322 157.637 32.3547C159.098 34.9216 159.84 37.8362 159.78 40.7899C159.835 43.7523 159.095 46.6754 157.637 49.2548C156.227 51.6974 154.165 53.699 151.682 55.0354C148.992 56.4699 145.978 57.1892 142.93 57.1243ZM142.93 50.7633C144.583 50.7993 146.214 50.3677 147.633 49.5178C148.985 48.6789 150.072 47.4748 150.769 46.0445C151.551 44.4054 151.935 42.6052 151.891 40.7899C151.934 38.9906 151.549 37.2068 150.769 35.5848C150.073 34.1645 148.985 32.973 147.633 32.1513C146.195 31.3572 144.578 30.9408 142.934 30.9408C141.291 30.9408 139.675 31.3572 138.236 32.1513C136.877 32.9693 135.783 34.1614 135.085 35.5848C134.305 37.2068 133.92 38.9906 133.964 40.7899C133.916 42.6044 134.297 44.4047 135.075 46.0445C135.776 47.4768 136.868 48.6811 138.226 49.5178C139.646 50.3662 141.276 50.7978 142.93 50.7633Z" fill="black"/>
<path d="M163.224 56.499V10.2593H171.033V56.499H163.224ZM180.918 57.1539C178.518 57.1678 176.164 56.5058 174.124 55.2435C172.032 53.9597 170.303 52.163 169.098 50.0237C167.81 47.7572 167.151 45.1877 167.189 42.5808V42.164L171.033 42.0797V42.3724C171.008 43.8224 171.411 45.2476 172.19 46.4709C172.938 47.6462 173.97 48.6138 175.192 49.2844C176.745 50.1342 178.529 50.4645 180.284 50.227C182.038 49.9895 183.67 49.1965 184.942 47.9645C186.539 46.4065 187.338 43.9901 187.338 40.7153C187.338 37.4404 186.545 35.0305 184.956 33.4858C184.188 32.7364 183.278 32.1476 182.28 31.7539C181.281 31.3604 180.214 31.1698 179.141 31.1933C177.766 31.1977 176.413 31.5404 175.201 32.191C173.99 32.8417 172.958 33.7807 172.195 34.9247C171.402 36.1348 170.993 37.5567 171.024 39.0034L167.178 38.8298C167.128 36.2356 167.788 33.677 169.088 31.4316C170.3 29.3433 172.031 27.6047 174.115 26.3854C176.177 25.1739 178.526 24.5414 180.918 24.5545C183.463 24.5345 185.966 25.2079 188.157 26.5026C190.349 27.7971 192.146 29.6641 193.357 31.903C194.707 34.3013 195.382 37.2353 195.382 40.7053C195.382 44.2778 194.72 47.2864 193.396 49.7309C192.205 52.043 190.379 53.9672 188.132 55.2783C185.935 56.5292 183.446 57.1763 180.918 57.1539Z" fill="black"/>
<path d="M206.953 10.2593V56.4989H199.292V10.2593H206.953Z" fill="black"/>
<path d="M214.852 43.3054V37.773H236.833L235.945 39.2615V38.4924C235.953 37.1608 235.639 35.8469 235.032 34.6618C234.4 33.4498 233.433 32.4444 232.249 31.7642C230.8 30.9706 229.164 30.5862 227.514 30.6527C225.796 30.6081 224.094 31.0208 222.588 31.8484C221.189 32.6587 220.067 33.8683 219.361 35.3218C218.564 37.0017 218.175 38.8465 218.226 40.7054C218.175 42.6125 218.548 44.5072 219.317 46.2528C219.992 47.7423 221.114 48.9842 222.527 49.8054C224.11 50.666 225.892 51.089 227.692 51.031C228.897 51.0523 230.098 50.924 231.27 50.649C232.153 50.449 232.993 50.0927 233.752 49.597C234.326 49.2212 234.818 48.7335 235.2 48.1631C235.508 47.7014 235.708 47.1752 235.781 46.625H243.531C243.397 47.9958 242.946 49.317 242.217 50.4852C241.387 51.8147 240.306 52.9706 239.036 53.8891C237.533 54.9748 235.854 55.7954 234.073 56.3155C231.916 56.9464 229.678 57.2508 227.43 57.2185C224.353 57.29 221.308 56.5762 218.582 55.1444C216.108 53.8134 214.062 51.8093 212.679 49.3638C211.282 46.7445 210.554 43.8211 210.559 40.8531C210.565 37.8849 211.303 34.964 212.708 32.3497C214.116 29.9206 216.18 27.9365 218.662 26.6237C221.364 25.2106 224.377 24.4991 227.425 24.5546C230.488 24.4752 233.521 25.1879 236.228 26.6237C238.65 27.9504 240.639 29.949 241.953 32.3795C243.335 35.0136 244.026 37.955 243.962 40.9286C243.962 41.3454 243.962 41.787 243.933 42.2584C243.925 42.6056 243.895 42.952 243.844 43.2955L214.852 43.3054Z" fill="black"/>
<path d="M55.1076 0.833083C52.7621 0.839185 50.5144 1.77454 48.8571 3.43431C47.1998 5.09408 46.2678 7.34298 46.2651 9.68848V14.3452C43.6566 9.03256 39.1888 4.86202 33.7091 2.62471C28.2296 0.387388 22.1195 0.238885 16.5378 2.20737C11.8364 3.87415 7.76624 6.95557 4.88649 11.0284C2.00675 15.1013 0.458608 19.9659 0.454712 24.954V55.4848C0.454712 57.8343 1.38806 60.0875 3.04943 61.7488C4.71079 63.4101 6.96407 64.3435 9.31361 64.3435C11.6631 64.3435 13.9164 63.4101 15.5778 61.7488C17.2391 60.0875 18.1726 57.8343 18.1726 55.4848V50.8379C20.7805 56.1486 25.2471 60.3172 30.725 62.5527C36.2029 64.7883 42.3109 64.9354 47.8899 62.9659C52.5899 61.2997 56.6587 58.2191 59.5373 54.1473C62.4159 50.0757 63.9632 45.2125 63.9664 40.2259V9.68848C63.963 7.34039 63.0284 5.08951 61.3677 3.42946C59.707 1.76941 57.4558 0.835698 55.1076 0.833083ZM39.8451 61.8915C35.2139 61.9108 30.6997 60.4382 26.9707 57.6918C23.2418 54.9453 20.4965 51.0709 19.1415 46.6426L19.1052 46.514C18.4832 44.4761 18.169 42.3566 18.1726 40.2259V24.954C18.1743 23.2547 18.8502 21.6256 20.0521 20.4245C21.2539 19.2233 22.8834 18.548 24.5827 18.5472C26.2803 18.5516 27.907 19.228 29.107 20.4287C30.3071 21.6294 30.9827 23.2564 30.9863 24.954V40.2194C30.9891 42.5686 31.9243 44.8208 33.5866 46.4811C34.8268 47.7159 36.4046 48.5561 38.1214 48.8956C39.8381 49.2352 41.617 49.0592 43.2339 48.3897C44.8507 47.72 46.2333 46.5869 47.2073 45.133C48.1814 43.6791 48.7032 41.9694 48.7073 40.2194V9.68848C48.7073 8.84757 48.8729 8.0149 49.1948 7.238C49.5166 6.46109 49.9882 5.75518 50.5829 5.16058C51.1775 4.56595 51.8834 4.09427 52.6603 3.77248C53.4372 3.45067 54.27 3.28505 55.1109 3.28505C55.9518 3.28505 56.7845 3.45067 57.5614 3.77248C58.3383 4.09427 59.0442 4.56595 59.6389 5.16058C60.2335 5.75518 60.7052 6.46109 61.027 7.238C61.3488 8.0149 61.5145 8.84757 61.5145 9.68848V40.2194C61.5166 43.0658 60.9577 45.8846 59.8695 48.5147C58.7813 51.1449 57.1852 53.5348 55.1727 55.5475C53.1601 57.5604 50.7704 59.1568 48.1405 60.2453C45.5104 61.3339 42.6916 61.8933 39.8451 61.8915ZM46.2651 40.2194C46.2639 41.4856 45.8877 42.7232 45.1842 43.776C44.4806 44.8288 43.481 45.6498 42.3116 46.1355C41.1422 46.6211 39.8551 46.7497 38.6126 46.5051C37.3702 46.2605 36.2281 45.6536 35.33 44.7607C34.6724 44.1093 34.1651 43.322 33.8437 42.4539C33.7843 42.2989 33.7316 42.1242 33.6788 41.9495L33.659 41.8606L33.6393 41.7781C33.6097 41.6628 33.58 41.5474 33.5602 41.4255C33.5602 41.3828 33.5602 41.3365 33.5371 41.2905V41.2212C33.5371 41.1125 33.5042 41.0037 33.4943 40.8917C33.4843 40.7796 33.4943 40.7565 33.4943 40.6675C33.4943 40.5785 33.4943 40.4468 33.4943 40.338V24.954C33.4921 23.7867 33.2597 22.6312 32.8106 21.5537C32.3614 20.4763 31.704 19.498 30.8763 18.6749C30.0486 17.8518 29.0666 17.2 27.9867 16.7566C26.9067 16.3135 25.75 16.0876 24.5827 16.0919C22.2331 16.0945 19.9805 17.029 18.319 18.6904C16.6576 20.3519 15.7231 22.6044 15.7205 24.954V55.4848C15.7205 57.184 15.0455 58.8135 13.8439 60.015C12.6424 61.2165 11.0128 61.8915 9.31361 61.8915C7.61439 61.8915 5.98478 61.2165 4.78325 60.015C3.58174 58.8135 2.90672 57.184 2.90672 55.4848V24.954C2.91053 19.7584 4.78039 14.7372 8.17575 10.8047C11.5711 6.87214 16.2661 4.28996 21.4055 3.52844C26.545 2.76693 31.7871 3.87672 36.1769 6.65573C40.5668 9.43472 43.8124 13.698 45.3226 18.6692L45.4116 18.9592C45.9756 20.9076 46.2629 22.9256 46.2651 24.954V40.2194Z" fill="black"/>
</g>
<defs>
<clipPath id="clip0_1122_304216">
<rect width="243.512" height="64" fill="white" transform="translate(0.454712 0.831726)"/>
</clipPath>
</defs>
</svg>
