<svg width="287" height="70" viewBox="0 0 287 70" fill="none" xmlns="http://www.w3.org/2000/svg">
<path d="M0 35.644C0 16.3668 15.8724 0.739563 35.4519 0.739563C55.0314 0.739563 70.9038 16.3668 70.9038 35.644V69.9599C70.8849 50.8516 55.0197 35.367 35.4519 35.367C15.8724 35.367 3.4621e-05 50.8703 3.4621e-05 69.9945L0 35.644Z" fill="black"/>
<path d="M120.989 57.2797L108.429 16.0987H96.6337L84.0742 57.2797H90.5689L94.0549 45.4673H111.008L114.494 57.2797H120.989ZM102.555 16.9657L109.241 39.5067H95.8219L102.555 16.9657Z" fill="black"/>
<path d="M128.935 28.0738H123.013V57.2798H128.983V40.9157C128.983 35.8222 131.227 34.0884 135.859 34.0884H137.483V27.4235C132.516 27.4235 129.938 30.783 128.935 35.1722V28.0738Z" fill="black"/>
<path d="M151.275 57.93C157.435 57.93 162.354 54.1369 163.643 47.2011H157.626C156.671 50.9943 154.665 53.1617 151.275 53.1617C146.977 53.1617 144.446 49.152 144.446 42.6497C144.446 36.2559 146.929 32.1919 151.275 32.1919C154.713 32.1919 156.671 34.901 157.339 38.2608H163.404C162.306 31.7584 157.865 27.4235 151.275 27.4235C143.538 27.4235 138.381 33.5465 138.381 42.6497C138.381 51.7529 143.49 57.93 151.275 57.93Z" fill="black"/>
<path d="M181.057 27.4235C176.616 27.4235 174.085 30.4578 172.891 34.0341V16.0987H166.97V57.2797H172.939V40.3196C172.939 34.7384 175.04 32.2461 178.383 32.2461C181.774 32.2461 183.827 34.6844 183.827 40.2113V40.3196V57.2797H189.796V39.0193V38.9107C189.796 32.4087 186.979 27.4235 181.057 27.4235Z" fill="black"/>
<path d="M222.71 56.5752L218.412 28.0737H207.811L203.513 56.5752L198.164 28.0737H192.577L198.117 57.2797H208.909L213.112 28.724L217.314 57.2797H228.107L233.646 28.0737H228.059L222.71 56.5752Z" fill="black"/>
<path d="M247.277 27.4235C240.973 27.4235 236.579 31.0539 235.959 36.7976H241.976C242.31 34.3593 244.077 32.1919 247.277 32.1919C250.858 32.1919 252.577 34.9553 252.577 38.3691V38.4773V38.8568L245.748 39.6694C240.877 40.2114 235.099 41.6742 235.099 48.4474C235.099 53.9743 239.015 57.93 243.886 57.93C248.805 57.93 251.001 55.3292 252.625 51.482V57.2798H258.547V38.7482V38.6399C258.547 32.6796 255.204 27.4235 247.277 27.4235ZM246.178 53.6494C243.456 53.6494 241.164 51.7529 241.164 48.4474C241.164 44.6545 244.698 44.1125 247.945 43.6791L252.577 43.1374V44.8714C252.577 49.748 250.428 53.6494 246.178 53.6494Z" fill="black"/>
<path d="M273.867 53.1617L266.036 28.0737H260.019L268.28 54.1369H273.581L269.808 67.9001H275.969L287 28.0737H280.744L273.867 53.1617Z" fill="black"/>
</svg>
