<svg width="385" height="84" viewBox="0 0 385 84" fill="none" xmlns="http://www.w3.org/2000/svg">
<path d="M119.65 78.5817V25.6336H127.528L128.278 29.9075H128.653C130.904 26.9801 134.729 24.8833 140.055 24.8833C149.802 24.8833 157.606 32.8349 157.606 44.6049C157.606 56.3748 149.808 64.3264 140.055 64.3264C134.803 64.3264 131.132 62.1493 129.182 59.6774H128.807V78.575H119.657L119.65 78.5817ZM148.448 44.6116C148.448 37.7117 144.02 33.3641 138.621 33.3641C133.222 33.3641 128.794 37.7117 128.794 44.6116C128.794 51.5114 133.222 55.859 138.621 55.859C144.02 55.859 148.448 51.5114 148.448 44.6116Z" fill="black"/>
<path d="M162.246 44.6141C162.246 33.1389 170.492 24.8926 181.519 24.8926C192.545 24.8926 200.792 33.1389 200.792 44.6141C200.792 56.0893 192.545 64.3357 181.519 64.3357C170.492 64.3357 162.246 56.009 162.246 44.6141ZM191.567 44.6141C191.567 37.8616 187.066 33.3667 181.519 33.3667C175.972 33.3667 171.397 37.8683 171.397 44.6141C171.397 51.3599 175.972 55.7879 181.519 55.7879C187.066 55.7879 191.567 51.3666 191.567 44.6141Z" fill="black"/>
<path d="M207.426 63.5849V11.0857H216.576V63.5849H207.426Z" fill="black"/>
<path d="M250.549 25.6344H260.296L243.796 71.7563C242.149 76.3317 239.898 78.5825 233.969 78.5825H225.12V70.1084H232.623C233.976 70.1084 234.719 69.4318 235.175 68.3064L236.073 65.8345L220.625 25.6344H230.372L240.199 51.9611H241.7L250.549 25.6344Z" fill="black"/>
<path d="M262.044 65.4585H271.342C271.717 67.9304 274.189 71.3067 280.044 71.3067C285.517 71.3067 289.121 67.8567 289.121 62.6048V57.2792H288.746C286.723 59.4563 282.971 61.4057 278.168 61.4057C268.421 61.4057 260.918 53.9029 260.918 43.1043C260.918 32.3057 268.421 24.8833 278.168 24.8833C283.192 24.8833 286.87 26.9064 289.194 29.7601H289.57L290.32 25.6336H298.272V62.6048C298.272 72.6531 291.519 79.3319 280.044 79.3319C267.222 79.3319 262.272 70.9315 262.044 65.4585ZM289.121 43.111C289.121 37.1892 284.921 33.0627 279.595 33.0627C274.269 33.0627 270.143 37.1892 270.143 43.111C270.143 49.0328 274.343 53.233 279.595 53.233C284.847 53.233 289.121 49.1065 289.121 43.111Z" fill="black"/>
<path d="M304.626 44.6141C304.626 33.1389 312.872 24.8926 323.899 24.8926C334.925 24.8926 343.171 33.1389 343.171 44.6141C343.171 56.0893 334.925 64.3357 323.899 64.3357C312.872 64.3357 304.626 56.009 304.626 44.6141ZM333.947 44.6141C333.947 37.8616 329.445 33.3667 323.899 33.3667C318.352 33.3667 313.777 37.8683 313.777 44.6141C313.777 51.3599 318.352 55.7879 323.899 55.7879C329.445 55.7879 333.947 51.3666 333.947 44.6141Z" fill="black"/>
<path d="M349.544 63.5828V25.6336H357.415L358.165 29.2309H358.54C360.041 27.5093 363.792 24.8833 369.486 24.8833C378.188 24.8833 384.485 31.1803 384.485 40.7798V63.5761H375.335V41.9789C375.335 37.1021 371.885 33.5785 367.162 33.5785C362.439 33.5785 358.688 37.2562 358.688 41.9789V63.5761H349.537L349.544 63.5828Z" fill="black"/>
<path d="M70.4121 59.1571L92.907 46.168C94.0994 45.478 94.8363 44.1985 94.8363 42.8252V16.8469C94.8363 15.4736 94.0994 14.1941 92.907 13.5041L70.4121 0.514981C69.2197 -0.175006 67.7393 -0.168307 66.5536 0.514981L44.0587 13.5041C42.8663 14.1941 42.1294 15.4736 42.1294 16.8469V63.2703L26.3535 72.3741L10.5776 63.2703V45.056L26.3535 35.9522L36.7569 41.9611V29.7423L28.2828 24.8454C27.7 24.5104 27.0301 24.3296 26.3535 24.3296C25.6769 24.3296 25.007 24.5104 24.4242 24.8454L1.92928 37.8345C0.73688 38.5245 0 39.804 0 41.1773V67.1556C0 68.5289 0.73688 69.8084 1.92928 70.4984L24.4242 83.4875C25.6166 84.1708 27.0904 84.1708 28.2828 83.4875L50.7777 70.4984C51.9701 69.8084 52.707 68.5289 52.707 67.1556V20.7256L52.9883 20.5648L68.4762 11.6218L84.2521 20.7256V38.9399L68.4762 48.0437L58.0862 42.0481V54.2669L66.5469 59.1504C67.7393 59.8337 69.2197 59.8337 70.4054 59.1504L70.4121 59.1571Z" fill="url(#paint0_linear_1171_302057)"/>
<defs>
<linearGradient id="paint0_linear_1171_302057" x1="-0.308149" y1="69.6945" x2="90.7634" y2="16.8402" gradientUnits="userSpaceOnUse">
<stop stop-color="#A726C1"/>
<stop offset="0.88" stop-color="#803BDF"/>
<stop offset="1" stop-color="#7B3FE4"/>
</linearGradient>
</defs>
</svg>
