<svg width="383" height="45" viewBox="0 0 383 45" fill="none" xmlns="http://www.w3.org/2000/svg">
<path d="M66.6899 43.7054V1.12231H82.7408L100.185 32.2688L103.456 30.1396C101.518 27.1385 100.145 24.4416 99.3373 22.0489C98.5293 19.6155 98.1254 16.7767 98.1254 13.5322V1.12231H109.21V43.7054H96.1271L75.5941 6.96231L72.3233 8.96976C75.957 15.0125 77.7745 21.0756 77.7745 27.1588V43.7054H66.6899Z" fill="black"/>
<path d="M117.914 43.7054V1.12231H150.742V10.1864H129.119V17.7298H145.836V26.1855H129.119V34.6413H150.742V43.7054H117.914Z" fill="black"/>
<path d="M157.296 26.368V1.12231H168.744V24.8472C168.744 31.7416 171.509 35.1888 177.042 35.1888C182.574 35.1888 185.34 31.7416 185.34 24.8472V1.12231H196.788V26.368C196.788 32.2485 195.031 36.7907 191.518 39.9946C188.045 43.1579 183.22 44.7395 177.042 44.7395C170.783 44.7395 165.917 43.1579 162.445 39.9946C159.012 36.7907 157.296 32.2485 157.296 26.368Z" fill="black"/>
<path d="M215.094 43.7054V9.8823H201.406V1.12231H240.352V9.8823H226.603V43.7054H215.094Z" fill="black"/>
<path d="M245.381 43.7054V1.12231H267.732C272.375 1.12231 276.01 2.11593 278.634 4.10315C281.299 6.09038 282.632 8.76701 282.632 12.1331C282.632 14.8908 281.905 16.9997 280.451 18.4597C279.119 19.7981 277.524 20.7105 275.666 21.1972C273.809 21.6838 271.467 21.988 268.64 22.1097V25.6988C272.88 25.78 275.969 26.4085 277.907 27.5847C279.886 28.7607 281.198 31.0522 281.845 34.4587L283.722 43.7054H271.608L269.973 33.8505C269.69 31.7416 269.024 30.241 267.974 29.3488C266.924 28.4566 265.329 28.0105 263.189 28.0105H256.647V43.7054H245.381ZM256.647 19.7372H265.067C266.843 19.7372 268.257 19.3114 269.307 18.4597C270.357 17.6081 270.881 16.4117 270.881 14.8706C270.881 13.3295 270.357 12.1534 269.307 11.3423C268.297 10.4906 266.883 10.0648 265.067 10.0648H256.647V19.7372Z" fill="black"/>
<path d="M286.913 22.5964C286.913 16.0265 288.972 10.6326 293.091 6.41484C297.209 2.19709 302.903 0.0881886 310.172 0.0881886C317.44 0.00711444 323.153 2.11595 327.312 6.41484C331.512 10.7137 333.571 16.1075 333.491 22.5964C333.491 29.1258 331.451 34.4588 327.373 38.5954C323.295 42.6915 317.561 44.7395 310.172 44.7395C302.822 44.7395 297.108 42.6915 293.03 38.5954C288.952 34.4588 286.913 29.1258 286.913 22.5964ZM321.377 22.5356C321.377 18.5206 320.387 15.3167 318.409 12.9239C316.43 10.4907 313.705 9.27399 310.232 9.27399C306.759 9.27399 304.014 10.4907 301.994 12.9239C300.016 15.3573 299.026 18.5611 299.026 22.5356C299.026 26.4694 300.016 29.6327 301.994 32.0255C303.973 34.3777 306.719 35.5537 310.232 35.5537C313.705 35.5537 316.43 34.3777 318.409 32.0255C320.387 29.6327 321.377 26.4694 321.377 22.5356Z" fill="black"/>
<path d="M340.021 43.7054V1.12231H356.072L373.516 32.2688L376.786 30.1396C374.848 27.1385 373.476 24.4416 372.668 22.0489C371.86 19.6155 371.456 16.7767 371.456 13.5322V1.12231H382.54V43.7054H369.457L348.924 6.96231L345.654 8.96976C349.288 15.0125 351.105 21.0756 351.105 27.1588V43.7054H340.021Z" fill="black"/>
<path fill-rule="evenodd" clip-rule="evenodd" d="M44.4601 0.0859375H3.14926L14.91 14.0119C16.8654 12.2918 19.4265 11.2493 22.2301 11.2493C28.3687 11.2493 33.3451 16.2473 33.3451 22.4127C33.3451 25.1937 32.3326 27.7373 30.6576 29.6917L44.4601 41.6197V0.0859375ZM39.0182 44.7395L28.0877 31.9019C26.3869 32.9632 24.3797 33.5761 22.2301 33.5761C16.0914 33.5761 11.115 28.5781 11.115 22.4127C11.115 20.2731 11.7144 18.2741 12.7536 16.5758L0 5.42141V44.7395H39.0182Z" fill="black"/>
</svg>
