<svg width="262" height="64" viewBox="0 0 262 64" fill="none" xmlns="http://www.w3.org/2000/svg">
<mask id="mask0_1700_307114" style="mask-type:luminance" maskUnits="userSpaceOnUse" x="0" y="0" width="262" height="64">
<path d="M261.053 0H0V64H261.053V0Z" fill="white"/>
</mask>
<g mask="url(#mask0_1700_307114)">
<path d="M71.3164 19.7942H84.0731V50.5263H94.8004V19.7942H107.557V9.93677H71.3164V19.7942ZM110.719 50.5263H142.031V40.6688H121.446V34.5804H137.972V25.8826H121.446V19.7942H142.031V9.93677H110.719V50.5263ZM146.933 50.5263H157.66V30.2316L156.79 25.0129H157.37L171.577 50.5263H184.623V9.93677H173.896V30.2316L174.765 35.4503H174.186L159.979 9.93677H146.933V50.5263ZM191.018 50.5263H222.329V40.6688H201.745V34.5804H218.27V25.8826H201.745V19.7942H222.329V9.93677H191.018V50.5263ZM224.042 19.7942H236.798V50.5263H247.525V19.7942H260.283V9.93677H224.042V19.7942Z" fill="black"/>
<path d="M52.8039 12.8271C51.2157 10.0902 48.3717 8.45111 45.1951 8.45111H27.6783C27.4515 8.43607 27.2244 8.42105 26.9976 8.42105C26.7707 8.42105 26.5438 8.43607 26.3168 8.45111H8.80003C5.62339 8.45111 2.77955 10.0902 1.19124 12.8271C-0.397079 15.5639 -0.397079 18.8271 1.19124 21.564L19.3888 52.8872C20.9772 55.6241 23.821 57.2632 26.9976 57.2632C30.1741 57.2632 33.0181 55.6241 34.6063 52.8872L52.8039 21.564C54.3923 18.8421 54.3923 15.5639 52.8039 12.8271ZM30.4012 50.4812C29.6901 51.6992 28.4195 52.436 26.9976 52.436C25.5757 52.436 24.305 51.6992 23.5941 50.4812L13.3532 32.8571L23.5941 15.218C24.2294 14.1203 25.3034 13.4286 26.5438 13.2932H27.4515C28.6919 13.4286 29.7657 14.1353 30.4012 15.218L40.642 32.8421L30.4012 50.4812Z" fill="black"/>
</g>
</svg>
