<?xml version="1.0" encoding="UTF-8"?>
<svg xmlns:xodm="http://www.corel.com/coreldraw/odm/2003" xmlns="http://www.w3.org/2000/svg" xmlns:xlink="http://www.w3.org/1999/xlink" version="1.1" id="Layer_1" x="0px" y="0px" viewBox="0 0 2500 778" style="enable-background:new 0 0 2500 778;" xml:space="preserve">
<style type="text/css">
	.st0{fill:#222222;}
</style>
<g id="Layer_x0020_1">
	<g id="_2806817016864">
		<path class="st0" d="M2254.8,747.6c-50.5,0-95.7-10.8-134.4-32.3s-68.8-52.7-90.3-91.4c-21.5-39.8-32.3-86-32.3-139.8v-11.8    c0-53.8,10.8-100,32.3-138.7c21.5-39.8,50.5-69.9,89.2-91.4s82.8-33.3,133.3-33.3c49.5,0,93.5,11.8,130.1,34.4    c36.6,21.5,65.6,52.7,86,92.5c20.4,38.7,31.2,84.9,31.2,136.6v30.1c0,7.5-6.5,14-14,14h-341.9c-8.6,0-15.1,6.5-14,15.1    c4.3,28,16.1,51.6,37.6,71c24.7,21.5,54.8,33.3,90.3,33.3c36.6,0,63.4-7.5,79.6-23.7c12.9-11.8,23.7-24.7,32.3-38.7    c4.3-7.5,12.9-9.7,20.4-6.5c0,0,55.9,29,80.6,41.9c3.2,2.2,5.4,4.3,6.5,7.5c1.1,3.2,0,7.5-1.1,9.7c-8.6,14-20.4,30.1-35.5,46.2    c-18.3,20.4-41.9,38.7-72,53.8c-30.1,14-68.8,21.5-115.1,21.5H2254.8z M2134.4,403.5c-2.2,8.6,4.3,16.1,12.9,16.1h205.4    c8.6,0,15.1-7.5,12.9-15.1c-5.4-22.6-16.1-40.9-33.3-55.9c-20.4-18.3-47.3-26.9-80.6-26.9c-34.4,0-62.4,8.6-82.8,26.9    C2152.7,362.7,2140.9,380.9,2134.4,403.5z"></path>
		<path class="st0" d="M237.6,747.6c-66.7,0-120.4-14-163.4-43C35.5,677.7,10.8,641.2,0,593.8c-2.2-7.5,3.2-14,9.7-16.1l91.4-23.7    c7.5-2.2,16.1,3.2,18.3,10.8c4.3,17.2,11.8,31.2,20.4,41.9c11.8,14,25.8,23.7,41.9,30.1c17.2,5.4,35.5,8.6,55.9,8.6    c30.1,0,52.7-5.4,66.7-15.1c14-10.8,21.5-24.7,21.5-39.8c0-16.1-6.5-28-20.4-35.5c-14-8.6-35.5-16.1-65.6-21.5l-29-5.4    c-35.5-6.5-67.7-16.1-97.8-28c-29-11.8-52.7-29-71-50.5S15.1,401.4,15.1,368c0-50.5,18.3-89.2,55.9-116.1    C107.5,225,157,211,217.2,211c57,0,104.3,12.9,141.9,37.6c33.3,22.6,57,51.6,69.9,86c2.2,7.5-2.2,15.1-8.6,17.2l-91.4,28    c-7.5,2.2-16.1-2.2-19.4-10.8c-6.5-18.3-16.1-31.2-30.1-40.9c-16.1-10.8-36.6-16.1-61.3-16.1s-43,4.3-57,12.9    c-12.9,8.6-19.4,19.4-19.4,34.4c0,16.1,6.5,29,20.4,36.6c14,7.5,32.3,12.9,55.9,17.2l29,5.4c38.7,6.5,73.1,16.1,103.2,28    c31.2,10.8,55.9,26.9,74.2,48.4c18.3,20.4,28,48.4,28,83.9c0,53.8-19.4,94.6-58.1,124.7c-38.7,29-90.3,43-154.8,43L237.6,747.6z"></path>
		<path class="st0" d="M1209.7,142.2c16.1,15.1,36.6,22.6,59.1,22.6c23.7,0,44.1-7.5,59.1-22.6c16.1-15.1,23.7-34.4,23.7-59.1    s-7.5-44.1-23.7-59.1s-35.5-22.6-59.1-22.6s-43,7.5-59.1,22.6S1186,58.4,1186,83.1S1193.5,127.2,1209.7,142.2z"></path>
		<path class="st0" d="M1940.9,576.6c1.1,0,3.2,0,4.3-1.1c1.1-1.1,2.2-2.2,2.2-3.2c0-60.2,0-544.1,0-544.1c0-7.5-6.5-14-14-14    h-101.1c-7.5,0-14,6.5-14,14V282H1800c-6.5-11.8-17.2-23.7-30.1-34.4s-30.1-19.4-51.6-26.9c-20.4-7.5-46.2-11.8-77.4-11.8    c-40.9,0-79.6,10.8-114,31.2c-34.4,19.4-63.4,49.5-83.9,88.2c-21.5,38.7-32.3,86-32.3,141.9v16.1c0,9.7,0,19.4,1.1,29    c0,2.2,1.1,3.2,2.2,4.3c1.1,1.1,3.2,1.1,5.4,1.1c34.4-7.5,71-12.9,115.1-14c2.2,0,3.2-1.1,4.3-2.2c1.1-1.1,2.2-3.2,2.2-5.4    c0-5.4-1.1-10.8-1.1-17.2v-10.8c0-49.5,12.9-87.1,39.8-111.8c26.9-25.8,60.2-38.7,100-38.7c40.9,0,73.1,12.9,100,38.7    c26.9,25.8,39.8,62.4,39.8,111.8V482c0,18.3-2.2,35.5-5.4,50.5c0,1.1,0,3.2,1.1,4.3s2.2,2.2,3.2,3.2c35.5,8.6,66.7,18.3,93.5,25.8    c10.8,3.2,20.4,6.5,30.1,8.6L1940.9,576.6z"></path>
		<path class="st0" d="M622.6,330.4h125.8c7.5,0,14-6.5,14-14v-78.5c0-7.5-6.5-14-14-14H622.6V79.9c0-7.5-6.5-14-14-14H507.5    c-7.5,0-14,5.4-14,12.9v321.5c0,148.4,29,377.4,408.6,377.4c207.5,0,312.9-36.6,406.5-68.8c73.1-25.8,139.8-48.4,241.9-48.4    c160.2,0,281.7,36.6,361.3,60.2l0,0c8.6,2.2,18.3,1.1,24.7-4.3c7.5-5.4,11.8-14,11.8-22.6c0-24.7,0-55.9,0-68.8    c0-3.2-2.2-6.5-5.4-7.5c-9.7-3.2-19.4-5.4-30.1-8.6c-79.6-23.7-201.1-60.2-361.3-60.2c-103.2,0-168.8,22.6-241.9,48.4    c-93.5,32.3-198.9,68.8-406.5,68.8c-293.5,0-280.6-201.1-279.6-334.4h1.1L622.6,330.4z"></path>
		<path class="st0" d="M835.5,614.3c0,3.2,2.2,6.5,5.4,6.5c17.2,2.2,36.6,3.2,58.1,3.2c21.5,0,40.9,0,60.2-1.1    c3.2,0,6.5-3.2,6.5-6.5c0-32.3,0-173.1,0-173.1c0-36.6,10.8-63.4,32.3-79.6c21.5-18.3,48.4-26.9,80.6-26.9h49.5    c7.5,0,14-6.5,14-14v-86c0-7.5-6.5-14-14-14h-47.3c-23.7,0-44.1,4.3-61.3,14c-17.2,9.7-29,24.7-36.6,45.2h-18.3v-43    c0-7.5-6.5-14-14-14h-98.9c-7.5,0-14,6.5-14,14v376.3L835.5,614.3z"></path>
		<path class="st0" d="M1307.5,556.2c7.5-2.2,14-5.4,21.5-7.5c2.2-1.1,4.3-3.2,4.3-6.5c0-38.7,0-304.3,0-304.3c0-7.5-6.5-14-14-14    h-101.1c-7.5,0-14,6.5-14,14v341.9c0,2.2,1.1,4.3,2.2,5.4c2.2,1.1,3.2,2.2,5.4,1.1c35.5-9.7,65.6-20.4,95.7-31.2V556.2z"></path>
	</g>
</g>
</svg>
