<?xml version="1.0" encoding="UTF-8"?>
<svg xmlns:xodm="http://www.corel.com/coreldraw/odm/2003" xmlns="http://www.w3.org/2000/svg" xmlns:xlink="http://www.w3.org/1999/xlink" version="1.1" id="Layer_1" x="0px" y="0px" viewBox="0 0 2500 580" style="enable-background:new 0 0 2500 580;" xml:space="preserve">
<g id="Layer_x0020_1">
	<path d="M1036.5,343.9l168.3,224.8h128.3l-204.2-266.8c-11.3-14.4-15.4-25.7-15.4-36.9c0-11.3,7.2-20.5,20.5-35.9l195-217.6h-129.3   l-166.3,185.8c-25.7,28.7-36.9,49.3-36.9,68.8c0,24.6,14.4,45.2,40,79V343.9z M1925.3,290.5c0-162.2,114.9-290.4,285.3-290.4   S2500,121.2,2500,290.5s-122.1,288.4-288.4,288.4C2033,578.9,1925.3,455.7,1925.3,290.5L1925.3,290.5z M2389.2,289.5   c0-113.9-70.8-198.1-177.5-198.1c-107.8,0-175.5,82.1-175.5,198.1c0,114.9,72.9,199.1,175.5,199.1   C2320.4,488.6,2389.2,403.4,2389.2,289.5z M1614.3,567.6h-200.1v-92.4h219.6c63.6,0,95.4-16.4,95.4-59.5c0-39-25.7-51.3-94.4-69.8   l-65.7-17.4C1447,294.6,1406,255.6,1406,164.3c0-92.4,55.4-152.9,188.8-152.9H1795v93.4h-201.1c-56.4,0-84.2,12.3-84.2,52.3   c0,36.9,25.7,55.4,90.3,71.8l67.7,17.4c113.9,28.7,167.3,69.8,167.3,160.1c0,104.7-58.5,163.2-221.7,163.2l0,0L1614.3,567.6z    M629.1,579.9c-144.7,0-231.9-75.9-231.9-225.8V11.4h105.7V348c0,81.1,25.7,140.6,125.2,140.6S753.3,433.2,753.3,348V11.4H859   v342.8c0,147.8-87.2,226.8-231.9,226.8L629.1,579.9z M106.7,11.4H0v450.5c0,74.9,31.8,105.7,95.4,105.7h206.3v-91.3h-155   c-30.8,0-40-9.2-40-39V11.4L106.7,11.4z"></path>
</g>
</svg>
