<svg width="300" height="64" viewBox="0 0 300 64" fill="none" xmlns="http://www.w3.org/2000/svg">
<g clip-path="url(#clip0_1171_302036)">
<path d="M92.9299 9.5481C89.4265 9.5481 86.0502 9.98829 84.6752 10.3604C82.6739 10.9231 82.1748 11.799 81.7981 13.6142L73.8565 50.2589C73.7295 51.0076 73.6069 51.6339 73.6069 52.2601C73.6069 54.0754 74.7959 55.2598 76.7336 55.2598C78.862 55.2598 79.7378 53.8848 80.1735 51.7564L82.4243 41.3144C83.9854 41.5004 86.0502 41.691 88.9909 41.691C101.938 41.691 110.002 34.6888 110.002 24.1197C110.002 14.8621 103.558 9.5481 92.9299 9.5481ZM88.6778 35.6872C86.6765 35.6872 85.1109 35.6237 83.6768 35.4376L87.8655 15.9876C89.177 15.8015 91.1192 15.5474 93.1205 15.5474C100 15.5474 103.504 18.8012 103.504 24.1787C103.499 31.0584 98.4936 35.6872 88.6778 35.6872Z" fill="black"/>
<path d="M296.666 43.1885C295.604 43.1885 294.914 43.8147 293.602 45.2533C291.288 47.6312 289.849 48.9427 288.039 48.9427C286.414 48.9427 285.538 47.6312 285.538 45.5029C285.538 44.3139 285.788 42.8754 286.101 41.3143L288.415 30.4321H295.359C297.546 30.4321 298.862 29.1796 298.862 26.9287C298.862 25.6762 298.05 24.7414 296.175 24.7414H289.663L290.789 19.6769C290.916 18.9281 291.038 18.2383 291.038 17.6121C291.038 15.8604 289.849 14.6079 287.912 14.6079C285.847 14.6079 284.912 15.9829 284.472 18.1113L283.033 24.7414H280.093C277.842 24.7414 276.53 25.9939 276.53 28.2447C276.53 29.4972 277.406 30.4321 279.28 30.4321H281.844L279.53 41.1872C279.28 42.3762 278.967 44.3139 278.967 46.3152C278.967 51.3797 281.595 55.0691 287.222 55.0691C290.476 55.0691 293.348 53.4445 295.54 51.5022C297.668 49.628 299.23 47.3136 299.23 45.8115C299.23 44.3775 298.104 43.1885 296.666 43.1885Z" fill="black"/>
<path d="M152.837 13.2376C152.837 11.4224 151.584 10.2334 149.647 10.2334C147.582 10.2334 146.647 11.6084 146.207 13.7368L138.392 50.0683C138.206 50.8171 138.079 51.4434 138.079 52.0696C138.079 53.8848 139.332 55.0692 141.206 55.0692C143.334 55.0692 144.269 53.6942 144.709 51.5659L152.524 15.2389C152.651 14.4855 152.837 13.8638 152.837 13.2376Z" fill="black"/>
<path d="M264.459 24.1151C254.453 24.1151 247.637 34.0579 247.637 43.5016C247.637 43.6786 247.641 43.8555 247.646 44.028C246.075 46.4105 244.07 48.8792 242.695 48.8792C241.696 48.8792 241.32 47.9398 241.32 46.5012C241.32 44.7495 241.819 41.8089 242.382 39.2449L247.573 15.2296C247.7 14.4808 247.823 13.8546 247.823 13.2283C247.823 11.4131 246.634 10.2241 244.696 10.2241C242.568 10.2241 241.696 11.5991 241.256 13.7275L238.442 26.7335C236.94 25.1724 234.749 24.106 231.436 24.106C224.792 24.106 218.108 29.2204 215.503 37.0666C212.635 44.4818 210.071 48.8701 208.047 48.8701C207.298 48.8701 206.858 48.2438 206.858 47.1819C206.858 44.0552 208.609 36.4268 209.358 32.7373C209.608 31.3623 209.735 30.7996 209.735 29.9873C209.735 27.2372 205.17 23.9835 199.229 23.9835C192.359 23.9835 186.137 28.3354 183.019 34.7976C178.386 42.9842 174.134 48.8701 172.028 48.8701C171.089 48.8701 170.776 47.6811 170.526 46.5557L168.97 37.9379L178.536 30.1234C179.412 29.3747 180.537 28.3082 180.537 26.9332C180.537 25.245 179.412 24.1196 177.724 24.1196C176.471 24.1196 175.409 24.8684 174.347 25.7442L159.966 37.6248L164.781 15.2387C164.908 14.4899 165.094 13.8636 165.094 13.2374C165.094 11.4222 163.842 10.2332 161.904 10.2332C159.839 10.2332 158.904 11.6082 158.464 13.7366L150.65 50.0681C150.463 50.8169 150.336 51.4432 150.336 52.0694C150.336 53.8846 151.589 55.069 153.463 55.069C155.591 55.069 156.526 53.694 156.966 51.5657L157.969 46.8779L163.846 42.1266L165.285 49.3783C165.847 52.2555 167.35 55.069 171.225 55.069C175.082 55.069 178.118 51.5475 181.159 46.7871C182.08 51.7744 185.629 55.069 190.553 55.069C195.494 55.069 198.871 52.1284 201.058 48.1894V48.3164C201.058 52.3825 203.123 55.069 206.749 55.069C210.03 55.069 212.753 53.0905 215.185 48.8882C216.565 52.5504 219.65 55.069 223.943 55.069C229.008 55.069 232.634 52.0059 234.948 47.7537V48.1304C234.948 52.6321 237.199 55.0736 240.889 55.0736C244.147 55.0736 246.915 53.1812 249.279 50.1044C251.076 53.1812 254.298 55.0736 258.65 55.0736C268.657 55.0736 275.473 45.1307 275.473 35.6235C275.468 28.9299 271.402 24.1151 264.459 24.1151ZM202.115 36.8125C200.3 44.627 196.425 49.0698 192.046 49.0698C189.105 49.0698 187.48 46.8189 187.48 43.4426C187.48 36.8125 192.295 29.6832 198.735 29.6832C200.672 29.6832 202.174 30.246 203.486 31.0583L202.115 36.8125ZM236.945 33.4997C234.944 42.6938 230.378 49.0698 225.377 49.0698C222.627 49.0698 220.998 46.9414 220.998 43.4426C220.998 36.7535 225.627 29.8103 231.817 29.8103C234.195 29.8103 236.006 30.6226 237.322 31.6845L236.945 33.4997ZM259.395 49.0698C255.769 49.0698 254.267 46.4422 254.267 43.1295C254.267 37.0621 258.455 30.1234 263.71 30.1234C267.336 30.1234 268.838 32.751 268.838 36.0637C268.838 42.1901 264.65 49.0698 259.395 49.0698Z" fill="black"/>
<path d="M125.572 24.1152C115.566 24.1152 108.75 34.0581 108.75 43.5017C108.75 50.2544 112.816 55.0692 119.754 55.0692C129.761 55.0692 136.577 45.1264 136.577 35.6192C136.577 28.9301 132.511 24.1152 125.572 24.1152ZM120.508 49.0699C116.882 49.0699 115.38 46.4424 115.38 43.1296C115.38 37.0623 119.568 30.1236 124.823 30.1236C128.449 30.1236 129.951 32.7511 129.951 36.0639C129.947 42.1903 125.758 49.0699 120.508 49.0699Z" fill="black"/>
<path d="M30.0871 13.4235C36.4606 13.4235 41.6274 10.4186 41.6274 6.71176C41.6274 3.00496 36.4606 0 30.0871 0C23.7136 0 18.5469 3.00496 18.5469 6.71176C18.5469 10.4186 23.7136 13.4235 30.0871 13.4235Z" fill="#E6007A"/>
<path d="M30.0871 63.9955C36.4606 63.9955 41.6274 60.9906 41.6274 57.2838C41.6274 53.577 36.4606 50.572 30.0871 50.572C23.7136 50.572 18.5469 53.577 18.5469 57.2838C18.5469 60.9906 23.7136 63.9955 30.0871 63.9955Z" fill="#E6007A"/>
<path d="M14.0053 22.7142C17.192 17.1947 17.1714 11.2168 13.9591 9.36216C10.7468 7.5075 5.55941 10.4784 2.37266 15.9979C-0.81409 21.5173 -0.793407 27.4952 2.41886 29.3498C5.63112 31.2045 10.8185 28.2336 14.0053 22.7142Z" fill="#E6007A"/>
<path d="M57.7967 47.9972C60.9835 42.4778 60.9646 36.5009 57.7545 34.6475C54.5444 32.7941 49.3587 35.766 46.172 41.2855C42.9852 46.8049 43.0042 52.7818 46.2142 54.6352C49.4243 56.4886 54.61 53.5167 57.7967 47.9972Z" fill="#E6007A"/>
<path d="M13.9606 54.6334C17.1728 52.7788 17.1935 46.8009 14.0068 41.2815C10.82 35.762 5.63258 32.7911 2.42032 34.6458C-0.791942 36.5004 -0.812626 42.4783 2.37412 47.9978C5.56087 53.5172 10.7483 56.4881 13.9606 54.6334Z" fill="#E6007A"/>
<path d="M57.7574 29.3513C60.9675 27.4979 60.9864 21.521 57.7997 16.0016C54.6129 10.4821 49.4273 7.5102 46.2172 9.3636C43.0071 11.217 42.9882 17.1939 46.1749 22.7133C49.3617 28.2328 54.5473 31.2047 57.7574 29.3513Z" fill="#E6007A"/>
</g>
<defs>
<clipPath id="clip0_1171_302036">
<rect width="299.229" height="64" fill="white"/>
</clipPath>
</defs>
</svg>
