<svg width="155" height="82" viewBox="0 0 155 82" fill="none" xmlns="http://www.w3.org/2000/svg">
<path d="M100.085 31.1789C99.8067 28.8246 98.6758 26.9969 96.6932 25.696C94.7107 24.3948 92.2789 23.7443 89.398 23.7443C87.2916 23.7443 85.4484 24.085 83.8685 24.7665C82.304 25.4482 81.0804 26.3852 80.1976 27.5777C79.3302 28.7704 78.8966 30.1258 78.8966 31.6436C78.8966 32.9136 79.1987 34.0058 79.8028 34.9195C80.4223 35.8178 81.2121 36.5691 82.1725 37.1732C83.1329 37.7618 84.1396 38.2496 85.1927 38.6368C86.2461 39.0085 87.214 39.3106 88.0968 39.5429L92.9296 40.8441C94.1687 41.1692 95.5471 41.6185 97.065 42.1916C98.5985 42.7646 100.062 43.5468 101.456 44.5381C102.866 45.5139 104.027 46.7684 104.941 48.302C105.855 49.8353 106.312 51.7172 106.312 53.9476C106.312 56.5188 105.638 58.8421 104.291 60.9177C102.959 62.9932 101.007 64.6428 98.4358 65.8665C95.8801 67.0901 92.7745 67.7018 89.1193 67.7018C85.7117 67.7018 82.7611 67.1519 80.2672 66.0522C77.789 64.9525 75.8374 63.4192 74.4126 61.4521C73.003 59.485 72.2053 57.2004 72.0195 54.598H77.9672C78.122 56.3949 78.7261 57.8818 79.7795 59.059C80.8483 60.2206 82.1956 61.088 83.8221 61.6611C85.4638 62.2186 87.2295 62.4976 89.1193 62.4976C91.3187 62.4976 93.2934 62.1413 95.0436 61.4288C96.7941 60.7008 98.1801 59.694 99.2026 58.4083C100.225 57.1074 100.736 55.5896 100.736 53.8546C100.736 52.2749 100.294 50.9892 99.4116 49.9979C98.5288 49.0067 97.367 48.2011 95.9267 47.5816C94.4862 46.962 92.9296 46.42 91.2567 45.9553L85.402 44.2826C81.6845 43.2138 78.7416 41.6882 76.5733 39.7056C74.4047 37.723 73.3205 35.1286 73.3205 31.9224C73.3205 29.2584 74.0409 26.9351 75.4811 24.9524C76.9371 22.9543 78.8888 21.4054 81.3361 20.3057C83.7988 19.1905 86.5481 18.6329 89.584 18.6329C92.6506 18.6329 95.3768 19.1828 97.762 20.2825C100.147 21.3667 102.037 22.8537 103.431 24.7433C104.841 26.633 105.584 28.7783 105.661 31.1789H100.085Z" fill="#011829"/>
<path d="M133.607 52.2751V31.1791H139.09V66.8655H133.607V60.8249H133.235C132.398 62.6372 131.097 64.1783 129.332 65.4483C127.566 66.7029 125.335 67.3303 122.64 67.3303C120.41 67.3303 118.427 66.8425 116.693 65.8667C114.958 64.8754 113.595 63.3882 112.604 61.4057C111.612 59.4077 111.117 56.8907 111.117 53.8548V31.1791H116.6V53.4831C116.6 56.0854 117.328 58.1607 118.784 59.7097C120.255 61.2587 122.129 62.0331 124.406 62.0331C125.769 62.0331 127.155 61.6847 128.565 60.9876C129.99 60.2905 131.182 59.2219 132.143 57.7814C133.119 56.3408 133.607 54.5055 133.607 52.2751Z" fill="#011829"/>
<path d="M145.206 66.8657V31.1792H150.689V66.8657H145.206ZM147.994 25.2315C146.925 25.2315 146.004 24.8675 145.229 24.1396C144.47 23.4116 144.091 22.5365 144.091 21.5142C144.091 20.4919 144.47 19.6168 145.229 18.8888C146.004 18.1608 146.925 17.7969 147.994 17.7969C149.063 17.7969 149.977 18.1608 150.736 18.8888C151.51 19.6168 151.897 20.4919 151.897 21.5142C151.897 22.5365 151.51 23.4116 150.736 24.1396C149.977 24.8675 149.063 25.2315 147.994 25.2315Z" fill="#011829"/>
<path fill-rule="evenodd" clip-rule="evenodd" d="M99.7154 31.5814L99.6728 31.2206C99.408 28.9861 98.344 27.2661 96.4623 26.0313C94.5596 24.7825 92.2098 24.1467 89.3914 24.1467C87.3287 24.1467 85.5431 24.4803 84.0245 25.1352C82.5168 25.7921 81.3547 26.6871 80.5208 27.8132C79.7064 28.9334 79.2989 30.2034 79.2989 31.6371C79.2989 32.8385 79.5833 33.848 80.1349 34.6842C80.721 35.5331 81.4685 36.2446 82.3815 36.8193C83.3178 37.3927 84.2987 37.8683 85.3249 38.2456C86.3689 38.6141 87.3252 38.9123 88.1943 39.1411L93.0268 40.4421C93.0265 40.4421 93.027 40.4421 93.0268 40.4421C94.2824 40.7717 95.675 41.2258 97.2022 41.8023C98.7694 42.3881 100.263 43.1868 101.684 44.1968C103.143 45.2071 104.344 46.5053 105.286 48.0862C106.246 49.6968 106.714 51.6552 106.714 53.9411C106.714 56.5875 106.02 58.9884 104.628 61.1327C103.249 63.2812 101.234 64.9777 98.6058 66.2287C95.9814 67.4852 92.8119 68.1043 89.1126 68.1043C85.6619 68.1043 82.6526 67.5476 80.0956 66.42C77.5594 65.2947 75.5469 63.7175 74.0747 61.6853C72.618 59.6521 71.7957 57.2922 71.6049 54.6209L71.5737 54.1828H78.3358L78.368 54.5566C78.5162 56.2771 79.0909 57.6761 80.0758 58.7779C81.0942 59.8842 82.382 60.7156 83.9492 61.2682C85.5443 61.8097 87.2646 62.0821 89.1126 62.0821C91.267 62.0821 93.1877 61.7334 94.8811 61.0445C96.5766 60.339 97.9026 59.3711 98.8754 58.1479C99.8375 56.923 100.32 55.4957 100.32 53.8484C100.32 52.3485 99.9036 51.1662 99.0996 50.2633C98.2632 49.3243 97.1538 48.5512 95.7584 47.9509C94.3366 47.3394 92.7975 46.8033 91.1405 46.3428L91.1377 46.3421L85.2828 44.6692C81.5232 43.5882 78.518 42.0374 76.2907 40.0009C74.0294 37.9332 72.9051 35.2252 72.9051 31.9159C72.9051 29.1734 73.648 26.7641 75.1438 24.7056C76.6452 22.6453 78.6551 21.0528 81.1614 19.9265C83.6832 18.7847 86.4908 18.2175 89.5773 18.2175C92.6931 18.2175 95.4786 18.7762 97.9256 19.9042C100.366 21.0137 102.313 22.5419 103.753 24.4933C105.213 26.4512 105.983 28.677 106.063 31.1592L106.077 31.5814H99.7154ZM103.424 24.7368C102.03 22.8472 100.141 21.3603 97.7554 20.276C95.3702 19.1763 92.6442 18.6265 89.5773 18.6265C86.5414 18.6265 83.7921 19.1841 81.3294 20.2993C78.8821 21.399 76.9307 22.9479 75.4747 24.9459C74.0342 26.9286 73.314 29.2519 73.314 31.9159C73.314 35.1221 74.3981 37.7166 76.5666 39.6991C78.7351 41.6817 81.6781 43.2073 85.3953 44.2762L91.25 45.9488C92.9229 46.4135 94.4795 46.9558 95.92 47.5753C97.3606 48.1949 98.5221 49.0002 99.405 49.9914C100.288 50.9827 100.729 52.2684 100.729 53.8484C100.729 55.5831 100.218 57.1009 99.1959 58.4021C98.1737 59.6876 96.7874 60.6943 95.0372 61.4223C93.2868 62.1348 91.3121 62.4911 89.1126 62.4911C87.2231 62.4911 85.4572 62.2124 83.8154 61.6547C82.1892 61.0815 80.8416 60.2141 79.7728 59.0526C78.7197 57.8753 78.1156 56.3884 77.9605 54.5918H72.0129C72.0227 54.7289 72.0341 54.8652 72.0473 55.0005C72.2845 57.4339 73.0708 59.5821 74.4059 61.4456C75.831 63.4127 77.7824 64.946 80.2608 66.0457C82.7545 67.1454 85.705 67.6953 89.1126 67.6953C92.7681 67.6953 95.8734 67.0836 98.4291 65.86C101 64.6363 102.952 62.9867 104.284 60.9112C105.632 58.8356 106.305 56.5123 106.305 53.9411C106.305 51.7107 105.849 49.8288 104.935 48.2955C104.021 46.7619 102.859 45.5074 101.45 44.5316C100.055 43.5403 98.5918 42.7581 97.0585 42.1852C95.5405 41.612 94.162 41.1627 92.9229 40.8376L88.0904 39.5364C87.2076 39.3041 86.2394 39.002 85.1863 38.6303C84.1329 38.2431 83.1262 37.7553 82.1658 37.1667C81.2055 36.5626 80.4156 35.8113 79.7961 34.913C79.192 33.9993 78.89 32.9071 78.89 31.6371C78.89 30.1193 79.3235 28.7639 80.1911 27.5712C81.074 26.3787 82.2976 25.4417 83.8618 24.7601C85.4417 24.0786 87.2849 23.7378 89.3914 23.7378C92.2724 23.7378 94.704 24.3883 96.6868 25.6895C98.6694 26.9904 99.8 28.8181 100.079 31.1724H105.655C105.65 31.0353 105.644 30.899 105.635 30.7637C105.49 28.5275 104.753 26.5186 103.424 24.7368ZM133.191 30.7637H139.492V67.2678H133.191V61.7907C132.329 63.3283 131.117 64.6558 129.563 65.7736C127.713 67.0882 125.392 67.7325 122.634 67.7325C120.342 67.7325 118.288 67.2306 116.485 66.2162L116.483 66.215C114.67 65.1794 113.254 63.6286 112.231 61.5819C111.203 59.5107 110.701 56.9256 110.701 53.8484V30.7637H117.002V53.4766C117.002 55.9986 117.705 57.9652 119.074 59.422C120.462 60.8836 122.227 61.6174 124.399 61.6174C125.69 61.6174 127.015 61.2877 128.377 60.6142C129.731 59.9521 130.872 58.9337 131.796 57.5479L131.797 57.5454C132.716 56.1895 133.191 54.44 133.191 52.2684V30.7637ZM118.777 59.703C117.321 58.1543 116.593 56.0787 116.593 53.4766V31.1724H111.11V53.8484C111.11 56.884 111.605 59.401 112.597 61.399C113.588 63.3818 114.951 64.8687 116.686 65.86C118.421 66.8358 120.403 67.3236 122.634 67.3236C125.329 67.3236 127.559 66.6962 129.325 65.4416C131.064 64.1904 132.353 62.6756 133.191 60.898C133.203 60.8714 133.216 60.8448 133.228 60.8182H133.6V66.8588H139.083V31.1724H133.6V52.2684C133.6 54.4988 133.112 56.3341 132.136 57.7747C131.176 59.2152 129.983 60.2838 128.558 60.9809C127.149 61.678 125.762 62.0264 124.399 62.0264C122.122 62.0264 120.248 61.252 118.777 59.703ZM144.791 67.2678V30.7637H151.092V67.2678H144.791ZM144.943 24.4307L144.94 24.4279C144.103 23.6253 143.676 22.6446 143.676 21.5074C143.676 20.3702 144.103 19.3895 144.94 18.5869L144.943 18.5841C145.794 17.7844 146.816 17.3812 147.988 17.3812C149.16 17.3812 150.175 17.7842 151.011 18.5857C151.863 19.3872 152.3 20.3681 152.3 21.5074C152.3 22.6467 151.863 23.6277 151.011 24.4292C150.175 25.2306 149.16 25.6337 147.988 25.6337C146.816 25.6337 145.794 25.2304 144.943 24.4307ZM150.729 24.1328C151.504 23.4048 151.891 22.5297 151.891 21.5074C151.891 20.4851 151.504 19.61 150.729 18.882C149.97 18.154 149.057 17.7901 147.988 17.7901C146.919 17.7901 145.997 18.154 145.223 18.882C144.464 19.61 144.085 20.4851 144.085 21.5074C144.085 22.5297 144.464 23.4048 145.223 24.1328C145.997 24.8607 146.919 25.2247 147.988 25.2247C149.057 25.2247 149.97 24.8607 150.729 24.1328ZM145.2 66.8588H150.683V31.1724H145.2V66.8588Z" fill="#011829"/>
<path fill-rule="evenodd" clip-rule="evenodd" d="M49.4041 32.9143L49.4026 32.9176C52.6222 36.9547 54.5465 42.0679 54.5465 47.6294C54.5465 53.2735 52.5647 58.4561 49.2582 62.5206L48.9736 62.8705L48.8981 62.4258C48.8338 62.0475 48.7585 61.6656 48.6708 61.2807C47.0159 54.0101 41.6245 47.7756 32.7509 42.7275C26.7586 39.328 23.3287 35.2344 22.4281 30.5836C21.8465 27.5761 22.2789 24.5552 23.1145 21.9679C23.9499 19.3813 25.1926 17.2141 26.2483 15.9094L29.7008 11.6877C30.3061 10.9475 31.439 10.9475 32.0444 11.6877L49.4041 32.9143ZM54.864 28.6971L31.7277 0.405123C31.286 -0.135041 30.4589 -0.135041 30.0173 0.405123L6.88019 28.6958L6.80554 28.7908C2.5479 34.0741 0 40.7883 0 48.0971C0 65.1194 13.8218 78.9192 30.8725 78.9192C47.9233 78.9192 61.7449 65.1194 61.7449 48.0971C61.7449 40.7883 59.197 34.0741 54.9395 28.7908L54.864 28.6971ZM12.4162 32.8231L14.4866 30.2914L14.5491 30.7584C14.5987 31.1286 14.6587 31.5006 14.73 31.8741C16.069 38.8997 20.8524 44.7577 28.8496 49.2947C35.8012 53.2512 39.8487 57.8006 41.0148 62.7904C41.5013 64.8728 41.5882 66.9215 41.3774 68.7127L41.3645 68.8237L41.2641 68.8726C38.1266 70.4054 34.5996 71.2657 30.8717 71.2657C17.797 71.2657 7.19716 60.6837 7.19716 47.6294C7.19716 42.0246 9.15118 36.8746 12.4162 32.8231Z" fill="#011829"/>
</svg>
