<svg width="248" height="84" viewBox="0 0 248 84" fill="none" xmlns="http://www.w3.org/2000/svg">
<path d="M18.3073 42.5386C10.4457 22.7232 4.30728 6.13856 4.63035 5.70779C5.06112 5.38472 17.8765 7.32318 33.0611 10.0155L60.8457 15.077L68.0611 22.2924L75.1688 29.6155L55.138 54.0616C44.0457 67.5232 34.4611 78.5078 33.815 78.5078C33.1688 78.6155 26.2765 62.354 18.3073 42.5386ZM35.1073 49.7539C36.0765 41.8924 36.7227 35.3232 36.5073 35.1078C36.2919 35.0001 31.9842 31.4463 26.9227 27.3539C12.5996 15.6155 13.5688 16.1539 15.2919 20.4616C16.1534 22.5078 20.4611 33.277 24.8765 44.3693C29.2919 55.354 32.9534 64.2924 33.0611 64.1847C33.1688 64.077 34.138 57.6155 35.1073 49.7539ZM52.015 49.0001C58.9073 40.7078 64.2919 33.8155 64.1842 33.6001C63.8611 33.277 42.8611 36.8309 42.215 37.2616C41.6765 37.5847 38.8765 58.9078 38.7688 62.354C38.7688 63.754 38.9842 64.7232 39.1996 64.5078C39.415 64.2924 45.2304 57.2924 52.015 49.0001ZM58.4765 29.077L65.9073 27.677L62.6765 24.4463C59.015 20.7847 58.6919 20.8924 50.615 28.0001C47.815 30.477 47.3842 31.2309 48.9996 30.8001C50.1842 30.5847 54.4919 29.7232 58.4765 29.077ZM46.415 24.5539C50.0765 21.4309 52.6611 18.8463 52.1227 18.6309C48.5688 17.7693 20.0304 12.9232 19.3842 13.1386C18.5227 13.4616 37.5842 29.9386 38.9842 30.0463C39.3073 30.1539 42.6457 27.677 46.415 24.5539Z" fill="#D61719"/>
<path d="M229.815 48.4617L216.999 33.3847L216.676 46.8463C216.461 59.4463 216.246 60.3078 214.307 60.3078C212.261 60.3078 212.153 59.4463 212.153 40.3847C212.153 29.4001 212.369 20.4617 212.584 20.4617C212.907 20.4617 218.83 27.0309 225.83 35.1078L238.538 49.754L238.861 36.7232C239.076 24.554 239.292 23.6924 241.23 23.6924C243.276 23.6924 243.384 24.554 243.384 43.6155C243.384 54.6001 243.276 63.5386 243.061 63.5386C242.846 63.5386 236.923 56.754 229.815 48.4617Z" fill="#D61719"/>
<path d="M97.9995 47.3849C97.9995 35.2156 98.1072 34.4618 100.153 34.4618C102.2 34.4618 102.307 35.2156 102.307 47.3849C102.307 59.5541 102.2 60.3079 100.153 60.3079C98.1072 60.3079 97.9995 59.5541 97.9995 47.3849Z" fill="#D61719"/>
<path d="M104.461 47.3849C104.461 35.2156 104.569 34.4618 106.615 34.4618C108.661 34.4618 108.769 35.2156 108.769 47.3849C108.769 59.5541 108.661 60.3079 106.615 60.3079C104.569 60.3079 104.461 59.5541 104.461 47.3849Z" fill="#D61719"/>
<path d="M127.076 42.0003V23.6926H139.568C146.353 23.6926 152.922 24.2311 154.107 24.7695C155.184 25.4157 156.907 27.3542 157.768 29.0772C160.353 34.0311 159.815 38.2311 156.153 42.4311L152.815 46.2003L156.153 52.6619C157.876 56.2157 159.384 59.4465 159.384 59.7695C159.384 60.0926 158.307 60.308 157.015 60.308C155.076 60.308 153.676 58.6926 150.768 53.308C147.215 46.6311 146.784 46.308 143.015 46.308H138.922V53.308C138.922 59.5542 138.707 60.308 136.768 60.308C134.83 60.308 134.615 59.5542 134.615 51.2619V42.3234L142.799 41.7849C151.199 41.2465 153.138 40.1695 154.538 35.8619C154.968 34.0311 154.43 32.7388 152.492 30.6926C150.015 28.2157 148.938 28.0003 140.538 28.0003H131.384V44.1542C131.384 59.5542 131.276 60.308 129.23 60.308C127.184 60.308 127.076 59.5542 127.076 42.0003Z" fill="#D61719"/>
<path d="M179.307 58.6926C168.107 54.708 163.692 41.0311 170.476 31.2311C173.707 26.3849 179.2 23.6926 185.876 23.6926C199.23 23.6926 207.63 37.8003 201.707 50.2926C198.261 57.7234 187.707 61.708 179.307 58.6926ZM194.384 51.6926C200.307 46.0926 200.523 37.5849 194.815 32.2003C186.2 24.1234 172.2 29.8311 172.307 41.2465C172.415 46.7388 174.138 50.0772 178.338 52.8772C182.538 55.7849 190.723 55.1388 194.384 51.6926Z" fill="#D61719"/>
<path d="M183.076 41.5694C183.076 39.3079 183.615 38.7694 185.876 38.7694C188.138 38.7694 188.568 39.2002 188.245 41.2463C188.03 42.754 187.061 43.7233 185.553 43.9386C183.507 44.2617 183.076 43.8309 183.076 41.5694Z" fill="#D61719"/>
<path d="M218.615 52.7694C218.615 45.9848 218.83 45.231 220.769 45.231C222.707 45.231 222.922 45.9848 222.922 52.7694C222.922 59.554 222.707 60.3079 220.769 60.3079C218.83 60.3079 218.615 59.554 218.615 52.7694Z" fill="#D61719"/>
<path d="M87.2305 25.8465C87.2305 23.8003 87.9843 23.6926 103.384 23.6926C118.784 23.6926 119.538 23.8003 119.538 25.8465C119.538 27.8926 118.784 28.0003 103.384 28.0003C87.9843 28.0003 87.2305 27.8926 87.2305 25.8465Z" fill="#D61719"/>
</svg>
