<svg width="221" height="53" viewBox="0 0 221 53" fill="none" xmlns="http://www.w3.org/2000/svg">
<path d="M168.758 17.8254H164.195C163.931 17.8251 163.671 17.7687 163.431 17.6598C163.192 17.5509 162.978 17.3922 162.804 17.1941L160.953 15.1041C160.816 14.9511 160.649 14.8286 160.461 14.7447C160.274 14.6608 160.071 14.6175 159.865 14.6175C159.66 14.6175 159.457 14.6608 159.27 14.7447C159.082 14.8286 158.915 14.9511 158.778 15.1041L157.191 16.8955C156.936 17.187 156.621 17.4207 156.268 17.581C155.915 17.7414 155.532 17.8247 155.144 17.8254H130.167C129.447 19.8893 128.991 22.0362 128.81 24.2147H152.389C152.593 24.2144 152.795 24.1727 152.983 24.092C153.17 24.0114 153.34 23.8935 153.48 23.7455L155.681 21.4508C155.817 21.3103 155.981 21.1986 156.161 21.1224C156.341 21.0462 156.535 21.007 156.731 21.0072H156.816C157.022 21.0082 157.225 21.0519 157.413 21.1356C157.601 21.2193 157.769 21.3412 157.908 21.4935L159.759 23.5834C159.932 23.7819 160.146 23.941 160.386 24.0499C160.625 24.1588 160.886 24.215 161.149 24.2147H180.385C180.209 22.0356 179.753 19.8882 179.029 17.8254H168.793H168.758ZM143.073 37.6501C143.277 37.6489 143.479 37.6067 143.667 37.5261C143.854 37.4456 144.024 37.3282 144.165 37.181L146.358 34.8863C146.495 34.7469 146.658 34.6359 146.838 34.5598C147.018 34.4837 147.211 34.4439 147.407 34.4427H147.501C147.706 34.4436 147.91 34.4873 148.098 34.571C148.286 34.6547 148.454 34.7766 148.592 34.9289L150.435 37.0189C150.609 37.2161 150.823 37.3743 151.063 37.4831C151.302 37.5919 151.562 37.6488 151.826 37.6501H177.903C178.897 35.6075 179.614 33.4416 180.036 31.2096H154.999C154.738 31.2087 154.48 31.1528 154.242 31.0455C154.003 30.9382 153.791 30.7819 153.617 30.5869L151.766 28.497C151.629 28.3419 151.461 28.2175 151.273 28.1322C151.085 28.0469 150.881 28.0026 150.674 28.0022C150.468 28.0016 150.265 28.0455 150.078 28.1309C149.891 28.2163 149.725 28.3412 149.591 28.497L148.004 30.2884C147.746 30.5785 147.429 30.8107 147.075 30.9695C146.72 31.1283 146.336 31.2101 145.948 31.2096H129.16C129.578 33.447 130.292 35.6187 131.284 37.6672L143.073 37.6501ZM161.576 10.8389C161.781 10.8388 161.985 10.7972 162.174 10.7166C162.363 10.636 162.534 10.518 162.676 10.3697L164.869 8.08358C165.004 7.9411 165.166 7.82756 165.347 7.74984C165.527 7.67213 165.721 7.63185 165.918 7.63147H166.012C166.217 7.63088 166.421 7.6748 166.608 7.76021C166.795 7.84561 166.961 7.97048 167.095 8.12624L168.946 10.2162C169.122 10.411 169.336 10.567 169.576 10.6743C169.815 10.7815 170.074 10.8376 170.337 10.8389H175.293C172.882 7.62844 169.757 5.02297 166.165 3.22856C162.573 1.43415 158.613 0.5 154.598 0.5C150.583 0.5 146.623 1.43415 143.031 3.22856C139.439 5.02297 136.314 7.62844 133.903 10.8389H161.576ZM151.612 44.048H144.831C144.568 44.0476 144.31 43.9911 144.071 43.8822C143.833 43.7733 143.62 43.6146 143.449 43.4167L141.606 41.3268C141.468 41.1735 141.3 41.0508 141.112 40.9669C140.924 40.883 140.72 40.8396 140.514 40.8396C140.308 40.8396 140.104 40.883 139.916 40.9669C139.728 41.0508 139.56 41.1735 139.422 41.3268L137.827 43.1523C137.572 43.4442 137.257 43.6782 136.904 43.8385C136.551 43.9989 136.168 44.0819 135.78 44.0821H135.677C138.098 46.679 141.028 48.7499 144.284 50.1658C147.539 51.5818 151.052 52.3125 154.602 52.3125C158.153 52.3125 161.665 51.5818 164.921 50.1658C168.177 48.7499 171.106 46.679 173.527 44.0821L151.612 44.048ZM40.1533 50.6079L34.8901 37.8122H11.3545L6.09123 50.6079H0.000488281L23.0839 2.2061L46.2441 50.6079H40.1533ZM13.3421 32.9584H32.8342L23.0327 12.3232L13.3421 32.9584ZM54.6551 50.6079V2.2061H68.1332C78.6684 2.2061 84.2046 7.02581 84.2046 16.1278C84.2046 24.88 78.3271 29.9471 68.065 29.9471H60.3364V50.6079H54.6551ZM60.3364 24.88H66.7684C74.9064 24.88 78.4807 22.2185 78.4807 16.1278C78.4807 9.83233 74.8552 7.23054 66.7854 7.23054H60.3364V24.88ZM104.831 7.36703H88.1372V2.17198H127.198V7.36703H110.504V50.6079H104.831V7.36703ZM188.387 41.7789L193.275 38.4605L193.65 39.2453C196.662 44.7219 199.946 46.9227 204.936 46.9227C210.481 46.9227 214.379 43.0926 214.379 38.4349C214.379 34.0588 212.187 31.1158 203.435 27.4904C193.377 23.319 189.957 19.0111 189.957 12.8521C189.957 6.14717 195.229 0.909471 204.322 0.909471C211.027 0.909471 215.608 3.7757 218.21 8.43333L214.243 11.1716L213.083 10.8901C211.027 7.68265 208.493 5.83154 204.185 5.83154C198.922 5.83154 195.843 8.77455 195.843 12.7412C195.843 16.4349 197.822 18.559 206.378 22.4574C217.527 27.516 220.265 31.6873 220.265 38.3923C220.265 45.7114 213.97 51.9386 205.004 51.9386C197.481 51.9386 192.285 49.0639 188.387 41.813" fill="black"/>
</svg>
