<svg width="419" height="84" viewBox="0 0 419 84" fill="none" xmlns="http://www.w3.org/2000/svg">
<g clip-path="url(#clip0_1171_302080)">
<path d="M24.9122 41.6839C24.819 43.3068 25.374 44.9004 26.4551 46.1144C27.5362 47.3285 29.055 48.0637 30.6779 48.1585H31.0123C32.2075 48.1572 33.3762 47.806 34.3741 47.1481C35.372 46.4903 36.1554 45.5547 36.6277 44.4567C37.1 43.3588 37.2404 42.1466 37.0317 40.9697C36.823 39.7929 36.2743 38.7029 35.4533 37.8343C34.6323 36.9657 33.5749 36.3565 32.4117 36.0819C31.2484 35.8073 30.0302 35.8793 28.9075 36.2891C27.7847 36.6988 26.8065 37.4284 26.0935 38.3876C25.3806 39.3469 24.9641 40.494 24.8955 41.6872L24.9122 41.6839Z" fill="#0033AD"/>
<path d="M2.09038 40.1321C1.7002 40.1103 1.31231 40.2046 0.975714 40.4031C0.639123 40.6017 0.368943 40.8956 0.199319 41.2476C0.0296949 41.5997 -0.0317597 41.9941 0.0227215 42.3811C0.0772026 42.7681 0.245174 43.1302 0.505408 43.4217C0.765643 43.7133 1.10646 43.9211 1.48479 44.019C1.86311 44.1169 2.26197 44.1005 2.63095 43.9718C2.99994 43.843 3.32248 43.6078 3.55782 43.2958C3.79317 42.9839 3.93075 42.6091 3.95318 42.219C3.96854 41.9595 3.93248 41.6995 3.84707 41.454C3.76166 41.2085 3.62859 40.9823 3.45549 40.7884C3.28239 40.5945 3.07269 40.4367 2.83842 40.3241C2.60415 40.2114 2.34993 40.1462 2.09038 40.1321Z" fill="#0033AD"/>
<path d="M24.5244 6.16354C24.8719 5.98509 25.1589 5.70782 25.3491 5.36663C25.5394 5.02545 25.6245 4.63561 25.5937 4.24617C25.5629 3.85674 25.4175 3.48513 25.176 3.17811C24.9344 2.8711 24.6074 2.6424 24.2362 2.52082C23.8649 2.39923 23.466 2.3902 23.0896 2.49484C22.7133 2.59948 22.3763 2.81313 22.1211 3.10889C21.8658 3.40465 21.7038 3.7693 21.6554 4.15694C21.607 4.54457 21.6743 4.93787 21.8489 5.28732C21.9663 5.52123 22.1288 5.72959 22.3271 5.9004C22.5254 6.0712 22.7555 6.20107 23.0042 6.28252C23.2529 6.36398 23.5153 6.3954 23.7762 6.37498C24.0371 6.35456 24.2914 6.2827 24.5244 6.16354Z" fill="#0033AD"/>
<path d="M30.7347 16.9924C31.2744 16.7202 31.7213 16.2941 32.0188 15.7679C32.3163 15.2417 32.4512 14.6391 32.4063 14.0363C32.3614 13.4335 32.1388 12.8576 31.7667 12.3813C31.3945 11.9049 30.8895 11.5497 30.3154 11.3603C29.7413 11.171 29.1241 11.1561 28.5415 11.3176C27.959 11.4791 27.4375 11.8096 27.0428 12.2674C26.6481 12.7253 26.398 13.2898 26.3242 13.8898C26.2503 14.4897 26.356 15.0981 26.6278 15.638C26.8085 15.9967 27.058 16.3163 27.3622 16.5785C27.6663 16.8407 28.0192 17.0404 28.4006 17.1662C28.782 17.292 29.1844 17.3414 29.5849 17.3116C29.9854 17.2818 30.3761 17.1733 30.7347 16.9924Z" fill="#0033AD"/>
<path d="M9.8358 24.4403C10.2521 24.714 10.7402 24.8581 11.2384 24.8544C11.7366 24.8506 12.2225 24.6992 12.6346 24.4192C13.0468 24.1392 13.3666 23.7433 13.5536 23.2815C13.7406 22.8197 13.7865 22.3129 13.6853 21.825C13.5842 21.3372 13.3407 20.8903 12.9855 20.5409C12.6303 20.1915 12.1795 19.9553 11.69 19.8622C11.2006 19.7691 10.6945 19.8233 10.2358 20.0179C9.7772 20.2125 9.38658 20.5388 9.11342 20.9555C8.74757 21.5135 8.61816 22.1939 8.7536 22.8473C8.88905 23.5007 9.27827 24.0736 9.8358 24.4403Z" fill="#0033AD"/>
<path d="M13.5581 39.0184C12.9546 38.9844 12.3546 39.13 11.8338 39.4369C11.3131 39.7437 10.8951 40.1981 10.6325 40.7426C10.37 41.287 10.2747 41.897 10.3588 42.4956C10.4429 43.0941 10.7026 43.6543 11.105 44.1053C11.5074 44.5563 12.0345 44.8779 12.6196 45.0294C13.2047 45.1809 13.8216 45.1556 14.3924 44.9566C14.9631 44.7575 15.462 44.3938 15.826 43.9113C16.19 43.4287 16.4028 42.8491 16.4375 42.2457C16.4832 41.436 16.2056 40.6413 15.6656 40.0362C15.1257 39.431 14.3677 39.065 13.5581 39.0184Z" fill="#0033AD"/>
<path d="M10.1705 59.5694C9.72604 59.7941 9.35817 60.1454 9.11337 60.579C8.86858 61.0127 8.75784 61.5092 8.79517 62.0058C8.8325 62.5023 9.01621 62.9767 9.32309 63.3689C9.62997 63.7611 10.0462 64.0535 10.5193 64.2091C10.9923 64.3648 11.5008 64.3767 11.9806 64.2434C12.4604 64.11 12.8899 63.8374 13.2148 63.4601C13.5397 63.0827 13.7455 62.6174 13.806 62.1232C13.8665 61.6289 13.7792 61.1277 13.555 60.6831C13.406 60.3876 13.2002 60.1245 12.9494 59.9086C12.6987 59.6927 12.4078 59.5283 12.0935 59.4249C11.7792 59.3215 11.4476 59.281 11.1176 59.3058C10.7876 59.3306 10.4658 59.4202 10.1705 59.5694Z" fill="#0033AD"/>
<path d="M22.0526 32.7009C22.6479 33.091 23.3454 33.2959 24.0571 33.2895C24.7687 33.2832 25.4625 33.066 26.0507 32.6654C26.6389 32.2648 27.0952 31.6988 27.3617 31.0389C27.6282 30.379 27.6931 29.6549 27.5482 28.9582C27.4032 28.2614 27.0549 27.6233 26.5473 27.1245C26.0397 26.6257 25.3956 26.2886 24.6964 26.1558C23.9972 26.0231 23.2743 26.1006 22.6192 26.3786C21.9641 26.6567 21.4061 27.1227 21.0159 27.7179C20.7563 28.113 20.5771 28.5554 20.4887 29.0198C20.4003 29.4843 20.4044 29.9616 20.5007 30.4244C20.597 30.8873 20.7836 31.3266 21.0499 31.7173C21.3162 32.1079 21.657 32.4422 22.0526 32.7009Z" fill="#0033AD"/>
<path d="M59.7504 16.7518C60.2572 17.0824 60.8506 17.2553 61.4557 17.2486C62.0608 17.242 62.6503 17.0562 63.1497 16.7145C63.6492 16.3729 64.0362 15.8909 64.2617 15.3294C64.4873 14.768 64.5413 14.1522 64.417 13.56C64.2927 12.9678 63.9956 12.4258 63.5632 12.0024C63.1309 11.579 62.5828 11.2933 61.9881 11.1814C61.3934 11.0695 60.7789 11.1365 60.2223 11.3737C59.6657 11.611 59.1919 12.008 58.8608 12.5145C58.6403 12.8509 58.4885 13.2275 58.4139 13.6228C58.3393 14.018 58.3434 14.4241 58.4261 14.8178C58.5087 15.2114 58.6682 15.5849 58.8955 15.9167C59.1227 16.2486 59.4133 16.5324 59.7504 16.7518Z" fill="#0033AD"/>
<path d="M66.0244 5.95624C66.352 6.17097 66.7359 6.28371 67.1275 6.28019C67.5192 6.27667 67.901 6.15705 68.2247 5.93646C68.5484 5.71588 68.7994 5.40425 68.9459 5.04099C69.0924 4.67773 69.1279 4.27918 69.0478 3.89576C68.9678 3.51234 68.7758 3.16128 68.4961 2.887C68.2165 2.61272 67.8618 2.42754 67.4769 2.3549C67.092 2.28226 66.6942 2.32542 66.3339 2.47892C65.9735 2.63241 65.6668 2.88935 65.4525 3.21722C65.1655 3.65638 65.0645 4.1915 65.1717 4.70506C65.2789 5.21862 65.5856 5.66863 66.0244 5.95624Z" fill="#0033AD"/>
<path d="M60.2318 35.8581C59.4292 35.812 58.6254 35.9244 57.8662 36.189C57.1071 36.4535 56.4074 36.865 55.8073 37.3999C54.5953 38.4802 53.862 39.9978 53.7689 41.6187C53.6757 43.2397 54.2303 44.8312 55.3107 46.0433C56.391 47.2553 57.9086 47.9886 59.5295 48.0817C59.6466 48.0817 59.767 48.0817 59.884 48.0817C61.0648 48.0811 62.2203 47.739 63.211 47.0965C64.2017 46.454 64.9854 45.5386 65.4676 44.4608C65.9498 43.3829 66.1099 42.1885 65.9286 41.0217C65.7473 39.8549 65.2323 38.7655 64.4457 37.8848C63.913 37.2841 63.2661 36.7956 62.5426 36.4476C61.8191 36.0997 61.0336 35.8993 60.2318 35.8581Z" fill="#0033AD"/>
<path d="M32.7446 32.2762C33.2527 33.2912 34.034 34.1443 35.0007 34.7393C35.9673 35.3343 37.0809 35.6476 38.216 35.644C39.2624 35.6442 40.2915 35.3762 41.205 34.8657C42.1185 34.3551 42.8859 33.6189 43.4339 32.7274C43.982 31.8359 44.2924 30.8188 44.3356 29.7732C44.3788 28.7276 44.1533 27.6884 43.6806 26.7547C43.169 25.7443 42.3862 24.8963 41.4198 24.3056C40.4535 23.7149 39.3418 23.4049 38.2093 23.4103C37.166 23.4121 36.1405 23.6804 35.23 24.1898C34.3195 24.6991 33.5543 25.4327 33.0069 26.3208C32.4594 27.2089 32.148 28.2222 32.1021 29.2644C32.0562 30.3067 32.2774 31.3434 32.7446 32.2762Z" fill="#0033AD"/>
<path d="M80.7364 24.4339C81.1809 24.2096 81.5489 23.8585 81.794 23.4251C82.039 22.9916 82.1501 22.4953 82.1131 21.9987C82.0762 21.5022 81.8929 21.0278 81.5864 20.6354C81.2798 20.243 80.8639 19.9503 80.3911 19.7942C79.9182 19.6382 79.4098 19.6258 78.9299 19.7586C78.45 19.8915 78.0203 20.1636 77.6951 20.5406C77.3698 20.9176 77.1636 21.3826 77.1025 21.8767C77.0414 22.3709 77.1282 22.872 77.3519 23.3169C77.6529 23.9135 78.1784 24.3663 78.813 24.5758C79.4476 24.7852 80.1394 24.7342 80.7364 24.4339Z" fill="#0033AD"/>
<path d="M65.2152 26.3836C64.5796 26.7037 64.0531 27.2051 63.7024 27.8245C63.3518 28.4438 63.1926 29.1532 63.2452 29.863C63.2977 30.5728 63.5595 31.2511 63.9975 31.812C64.4355 32.373 65.03 32.7915 65.7059 33.0146C66.3817 33.2377 67.1085 33.2554 67.7944 33.0654C68.4803 32.8754 69.0945 32.4863 69.5592 31.9473C70.024 31.4083 70.3185 30.7435 70.4054 30.0372C70.4924 29.3308 70.3679 28.6145 70.0478 27.9788C69.8356 27.5564 69.5421 27.1801 69.1843 26.8712C68.8264 26.5624 68.4112 26.3272 67.9623 26.179C67.5135 26.0308 67.0398 25.9726 66.5684 26.0077C66.097 26.0428 65.6372 26.1705 65.2152 26.3836Z" fill="#0033AD"/>
<path d="M45.2228 5.03312C45.7201 5.06145 46.2147 4.94163 46.6439 4.68883C47.0732 4.43602 47.4178 4.06159 47.6342 3.6129C47.8506 3.1642 47.9291 2.6614 47.8597 2.1681C47.7903 1.6748 47.5762 1.21316 47.2444 0.841587C46.9126 0.47001 46.478 0.205187 45.9957 0.0806168C45.5133 -0.0439529 45.0049 -0.0226723 44.5347 0.141767C44.0644 0.306206 43.6535 0.606415 43.354 1.00442C43.0544 1.40242 42.8796 1.88034 42.8516 2.37771C42.8142 3.04421 43.0429 3.6983 43.4875 4.19622C43.9322 4.69415 44.5563 4.99517 45.2228 5.03312Z" fill="#0033AD"/>
<path d="M45.1957 20.8819C45.9061 20.9218 46.6124 20.7501 47.2253 20.3887C47.8381 20.0272 48.3301 19.4922 48.6389 18.8512C48.9478 18.2102 49.0597 17.4921 48.9606 16.7875C48.8614 16.0829 48.5556 15.4236 48.0818 14.8928C47.608 14.362 46.9874 13.9835 46.2986 13.8053C45.6098 13.6271 44.8836 13.657 44.2118 13.8914C43.54 14.1258 42.9527 14.554 42.5243 15.1221C42.0958 15.6901 41.8454 16.3724 41.8046 17.0828C41.7507 18.0362 42.0777 18.972 42.7136 19.6844C43.3495 20.3969 44.2423 20.8276 45.1957 20.8819Z" fill="#0033AD"/>
<path d="M25.698 57.6163C26.3336 57.2959 26.8599 56.7942 27.2103 56.1746C27.5607 55.555 27.7195 54.8455 27.6666 54.1357C27.6137 53.4259 27.3515 52.7477 26.9131 52.1869C26.4748 51.6261 25.8799 51.2079 25.2039 50.9852C24.5278 50.7625 23.8009 50.7453 23.1151 50.9358C22.4293 51.1262 21.8153 51.5158 21.3509 52.0552C20.8865 52.5946 20.5925 53.2597 20.5061 53.9662C20.4197 54.6727 20.5447 55.389 20.8654 56.0244C21.2953 56.8762 22.0459 57.5224 22.9521 57.8209C23.8584 58.1195 24.846 58.0459 25.698 57.6163Z" fill="#0033AD"/>
<path d="M47.5202 26.1325C46.7738 27.2714 46.4287 28.6268 46.5393 29.984C46.6499 31.3412 47.21 32.6228 48.1309 33.6259C49.0518 34.629 50.281 35.2963 51.6238 35.5222C52.9667 35.7481 54.3465 35.5197 55.545 34.8732C56.7434 34.2267 57.692 33.199 58.2407 31.9526C58.7893 30.7063 58.9066 29.3127 58.574 27.9922C58.2415 26.6717 57.478 25.4998 56.4045 24.6621C55.331 23.8243 54.0088 23.3684 52.6471 23.3667C51.6301 23.366 50.6289 23.6184 49.7339 24.1013C48.8388 24.5841 48.0781 25.2822 47.5202 26.1325Z" fill="#0033AD"/>
<path d="M58.1619 51.727C57.6716 50.7546 56.9307 49.9307 56.0157 49.3403C55.1007 48.7498 54.0447 48.4142 52.9567 48.368C51.8687 48.3219 50.7881 48.5669 49.8264 49.0777C48.8646 49.5885 48.0566 50.3467 47.4857 51.274C46.9148 52.2014 46.6016 53.2642 46.5785 54.353C46.5554 55.4417 46.8233 56.5169 47.3544 57.4676C47.8855 58.4182 48.6606 59.21 49.5998 59.7612C50.539 60.3123 51.6083 60.6029 52.6973 60.6029C53.6553 60.5963 54.5986 60.3673 55.453 59.934C56.8982 59.2024 57.9947 57.9281 58.5024 56.3899C59.0101 54.8518 58.8877 53.1751 58.1619 51.727Z" fill="#0033AD"/>
<path d="M68.857 51.299C68.262 50.9084 67.5646 50.7031 66.8529 50.7089C66.1412 50.7147 65.4472 50.9314 64.8587 51.3316C64.2702 51.7318 63.8135 52.2975 63.5465 52.9573C63.2795 53.617 63.2141 54.3411 63.3587 55.038C63.5032 55.7349 63.8511 56.3733 64.3585 56.8724C64.8658 57.3716 65.5098 57.7091 66.2089 57.8422C66.908 57.9754 67.631 57.8982 68.2863 57.6206C68.9416 57.3429 69.4998 56.8771 69.8904 56.2821C70.4124 55.4838 70.5967 54.5111 70.4031 53.5771C70.2094 52.6431 69.6534 51.824 68.857 51.299Z" fill="#0033AD"/>
<path d="M80.5754 42.1054C80.6095 41.5019 80.4638 40.9019 80.157 40.3812C79.8501 39.8605 79.3957 39.4424 78.8513 39.1799C78.3068 38.9173 77.6968 38.8221 77.0982 38.9062C76.4997 38.9903 75.9395 39.25 75.4885 39.6524C75.0375 40.0548 74.7159 40.5818 74.5644 41.167C74.4129 41.7521 74.4382 42.369 74.6373 42.9397C74.8363 43.5104 75.2001 44.0094 75.6826 44.3734C76.1651 44.7374 76.7447 44.9502 77.3481 44.9849C78.1578 45.0306 78.9525 44.7529 79.5576 44.213C80.1628 43.6731 80.5288 42.9151 80.5754 42.1054Z" fill="#0033AD"/>
<path d="M89.0434 39.9281C88.6524 39.9056 88.2636 39.9995 87.926 40.198C87.5885 40.3965 87.3174 40.6906 87.147 41.0432C86.9766 41.3957 86.9146 41.7909 86.9688 42.1787C87.023 42.5665 87.191 42.9296 87.4515 43.2219C87.712 43.5142 88.0534 43.7228 88.4324 43.8211C88.8115 43.9194 89.2112 43.9031 89.5809 43.7743C89.9507 43.6455 90.274 43.4099 90.5099 43.0973C90.7458 42.7847 90.8837 42.4092 90.9062 42.0183C90.9354 41.4943 90.7558 40.9801 90.4066 40.5883C90.0574 40.1965 89.5672 39.9591 89.0434 39.9281Z" fill="#0033AD"/>
<path d="M81.0705 59.5594C80.6539 59.2865 80.1657 59.1433 79.6678 59.1478C79.1698 59.1523 78.6844 59.3044 78.2728 59.5848C77.8613 59.8651 77.5421 60.2612 77.3556 60.723C77.1691 61.1847 77.1237 61.6914 77.2252 62.179C77.3266 62.6665 77.5703 63.113 77.9255 63.4621C78.2806 63.8111 78.7313 64.0471 79.2206 64.14C79.7098 64.233 80.2156 64.1788 80.674 63.9843C81.1325 63.7899 81.523 63.4639 81.7962 63.0475C81.9777 62.7709 82.1029 62.4612 82.1647 62.1361C82.2265 61.811 82.2236 61.477 82.1562 61.153C82.0888 60.8291 81.9582 60.5216 81.7719 60.2482C81.5856 59.9747 81.3473 59.7406 81.0705 59.5594Z" fill="#0033AD"/>
<path d="M24.8854 78.0437C24.558 77.8289 24.1743 77.7159 23.7828 77.7192C23.3913 77.7224 23.0095 77.8417 22.6858 78.0619C22.362 78.282 22.1108 78.5933 21.9639 78.9562C21.8171 79.3192 21.7811 79.7175 21.8606 80.1009C21.94 80.4843 22.1314 80.8355 22.4105 81.1101C22.6895 81.3847 23.0438 81.5705 23.4284 81.6438C23.813 81.7171 24.2107 81.6748 24.5712 81.5221C24.9318 81.3694 25.2389 81.1133 25.4539 80.786C25.5967 80.5687 25.6953 80.3253 25.744 80.0698C25.7927 79.8143 25.7906 79.5517 25.7378 79.2971C25.685 79.0424 25.5826 78.8006 25.4363 78.5856C25.29 78.3705 25.1028 78.1864 24.8854 78.0437Z" fill="#0033AD"/>
<path d="M66.3822 77.8363C66.0325 78.0126 65.7429 78.2886 65.5501 78.6294C65.3573 78.9703 65.2699 79.3606 65.2989 79.7512C65.328 80.1417 65.4722 80.5148 65.7133 80.8234C65.9545 81.132 66.2817 81.3621 66.6536 81.4847C67.0256 81.6072 67.4255 81.6168 67.8028 81.512C68.1802 81.4073 68.518 81.193 68.7735 80.8963C69.0291 80.5995 69.1909 80.2337 69.2385 79.845C69.2861 79.4563 69.2174 79.0622 69.041 78.7125C68.9242 78.4802 68.7628 78.2731 68.5659 78.1032C68.3689 77.9333 68.1404 77.804 67.8934 77.7226C67.6464 77.6412 67.3858 77.6093 67.1265 77.6289C66.8672 77.6484 66.6142 77.7189 66.3822 77.8363Z" fill="#0033AD"/>
<path d="M43.3862 57.857C44.1326 56.7179 44.4778 55.3624 44.367 54.005C44.2563 52.6477 43.696 51.366 42.7749 50.363C41.8537 49.3599 40.6243 48.6927 39.2813 48.4671C37.9382 48.2414 36.5583 48.4701 35.3599 49.117C34.1615 49.764 33.2131 50.7921 32.6648 52.0387C32.1166 53.2854 31.9998 54.6792 32.3329 55.9997C32.666 57.3202 33.4301 58.4919 34.5041 59.3292C35.5781 60.1666 36.9008 60.6218 38.2626 60.6228C39.2797 60.6262 40.2814 60.3749 41.1763 59.8918C42.0713 59.4087 42.831 58.7092 43.3862 57.857Z" fill="#0033AD"/>
<path d="M31.1559 67.2513C30.6501 66.9204 30.0576 66.7469 29.4531 66.7527C28.8487 66.7585 28.2596 66.9434 27.7603 67.2839C27.2609 67.6245 26.8737 68.1055 26.6476 68.666C26.4216 69.2266 26.3668 69.8416 26.4902 70.4333C26.6135 71.025 26.9096 71.5668 27.3409 71.9903C27.7721 72.4138 28.3193 72.7 28.9131 72.8125C29.507 72.9251 30.1209 72.8591 30.6773 72.6229C31.2336 72.3866 31.7074 71.9907 32.0388 71.4853C32.4827 70.8066 32.6391 69.9795 32.4735 69.1856C32.308 68.3917 31.8341 67.696 31.1559 67.2513Z" fill="#0033AD"/>
<path d="M45.4264 78.9668C44.9292 78.9386 44.4348 79.0583 44.0057 79.311C43.5765 79.5637 43.2319 79.938 43.0155 80.3865C42.799 80.835 42.7204 81.3376 42.7895 81.8307C42.8587 82.3239 43.0725 82.7855 43.404 83.1572C43.7354 83.5289 44.1697 83.7939 44.6518 83.9188C45.1338 84.0438 45.6421 84.0229 46.1124 83.859C46.5826 83.6951 46.9937 83.3954 47.2937 82.9979C47.5936 82.6003 47.769 82.1228 47.7976 81.6256C47.8166 81.2953 47.7703 80.9645 47.6614 80.6521C47.5525 80.3397 47.3831 80.0518 47.1629 79.8049C46.9427 79.558 46.676 79.3569 46.378 79.2131C46.0801 79.0693 45.7567 78.9856 45.4264 78.9668Z" fill="#0033AD"/>
<path d="M45.4535 63.121C44.7425 63.0778 44.0347 63.2466 43.4196 63.606C42.8046 63.9654 42.3101 64.4992 41.9987 65.1399C41.6873 65.7806 41.5731 66.4992 41.6705 67.2049C41.7679 67.9105 42.0725 68.5714 42.5458 69.1038C43.0191 69.6361 43.6397 70.0161 44.3291 70.1955C45.0185 70.3748 45.7456 70.3456 46.4183 70.1114C47.091 69.8772 47.6791 69.4486 48.1081 68.8799C48.5371 68.3112 48.7876 67.628 48.828 66.9168C48.8828 65.9663 48.5583 65.0327 47.9257 64.3211C47.2931 63.6095 46.404 63.1779 45.4535 63.121Z" fill="#0033AD"/>
<path d="M60.1715 67.0073C59.6315 67.2813 59.185 67.7094 58.8884 68.2373C58.5917 68.7652 58.4584 69.3692 58.5053 69.973C58.5521 70.5767 58.777 71.1529 59.1515 71.6288C59.526 72.1046 60.0333 72.4586 60.6091 72.6461C61.1849 72.8335 61.8034 72.8458 62.3862 72.6816C62.9691 72.5173 63.4901 72.1838 63.8833 71.7233C64.2765 71.2628 64.5243 70.696 64.5952 70.0947C64.6661 69.4933 64.557 68.8844 64.2818 68.3451C64.1 67.9871 63.8495 67.6684 63.5444 67.4074C63.2394 67.1463 62.8859 66.948 62.5041 66.8237C62.1223 66.6995 61.7198 66.6517 61.3195 66.6832C60.9193 66.7147 60.5292 66.8249 60.1715 67.0073Z" fill="#0033AD"/>
<path d="M127.707 27.5407C133.633 27.5407 137.784 30.7981 137.784 36.8447H145.546C145.546 26.2364 137.724 21.1262 127.59 21.1262C115.143 21.1262 107.912 27.8851 107.912 42.1689C107.912 56.8071 115.143 63.2082 127.59 63.2082C137.844 63.2082 145.546 58.2318 145.546 47.6201H138.078C138.078 53.5463 133.988 56.8071 127.711 56.8071C119.47 56.8071 115.671 52.242 115.671 42.7608V41.5769C115.678 32.2796 119.527 27.5407 127.707 27.5407Z" fill="#0033AD"/>
<path d="M166.071 21.8485L150.245 62.5091H158.071L161.328 53.6767H179.926L183.271 62.5091H191.451L175.615 21.8485H166.071ZM163.699 47.2656L167.85 36.1188C168.679 33.9283 170.161 29.186 170.458 28.3566H170.753C171.05 29.186 172.532 33.9852 173.361 36.1188L177.508 47.2622L163.699 47.2656Z" fill="#0033AD"/>
<path d="M233.77 34.1758C233.77 26.651 229.442 21.8485 220.493 21.8485H199.036V62.5091H206.624V46.7907H219.246L226.938 62.5091H235.235L226.54 45.6168C231.339 43.7205 233.77 39.6906 233.77 34.1758ZM219.898 40.3996H206.624V28.3098H219.898C223.988 28.3098 226.122 30.5037 226.122 34.1758C226.122 38.0318 223.811 40.3996 219.898 40.3996Z" fill="#0033AD"/>
<path d="M260.385 21.8485H244.138V62.5091H260.378C272.645 62.5091 280.11 56.108 280.11 42.1788C280.11 28.2496 272.652 21.8485 260.385 21.8485ZM272.357 42.7708C272.297 51.6634 268.09 56.0478 260.385 56.0478H251.733V28.3098H260.385C268.077 28.3098 272.357 32.6976 272.357 41.5869V42.7708Z" fill="#0033AD"/>
<path d="M299.988 21.8485L284.156 62.5091H291.979L295.239 53.6767H313.851L317.168 62.5091H325.349L309.523 21.8485H299.988ZM297.617 47.2656L301.761 36.1188C302.59 33.9283 304.072 29.186 304.369 28.3566H304.67C304.965 29.186 306.45 33.9852 307.279 36.1188L311.426 47.2622L297.617 47.2656Z" fill="#0033AD"/>
<path d="M360.033 46.0315C360.033 46.8007 360.15 48.8742 360.15 49.232L359.855 49.3491C359.678 49.115 358.491 47.0381 357.849 46.0917L340.187 21.8485H332.947V62.5091H340.237V38.1489C340.237 37.1456 340.117 35.1858 340.117 34.8881L340.415 34.7109C340.592 34.9483 341.482 36.6673 342.421 38.0318L360.203 62.5091H367.313V21.8485H360.026V46.0315H360.033Z" fill="#0033AD"/>
<path d="M397.536 21.1394C384.794 21.1394 377.089 27.895 377.089 42.1787C377.089 56.4624 384.781 63.218 397.536 63.218C410.292 63.218 418.044 56.4624 418.044 42.1787C418.044 27.895 410.278 21.1394 397.536 21.1394ZM410.278 42.8309C410.278 52.1348 405.834 56.8169 397.536 56.8169C389.299 56.8169 384.854 52.1348 384.854 42.8309V41.5868C384.854 32.2794 389.359 27.5405 397.536 27.5405C405.777 27.5405 410.278 32.2794 410.278 41.5868V42.8309Z" fill="#0033AD"/>
</g>
<defs>
<clipPath id="clip0_1171_302080">
<rect width="418.044" height="84" fill="white"/>
</clipPath>
</defs>
</svg>
