<svg width="239" height="64" viewBox="0 0 239 64" fill="none" xmlns="http://www.w3.org/2000/svg">
<path d="M118.91 13.0222V49.4848C118.908 49.6224 118.852 49.7538 118.755 49.851C118.658 49.9484 118.526 50.0039 118.389 50.0057H114.597C113.726 50.0064 112.87 49.7886 112.105 49.3724C111.341 48.9562 110.693 48.3548 110.221 47.6235L93.0109 21.0231L93.6013 34.3093V49.4848C93.5995 49.6224 93.544 49.7538 93.4466 49.851C93.3494 49.9484 93.218 50.0039 93.0804 50.0057H88.0658C87.9282 50.0039 87.7968 49.9484 87.6996 49.851C87.6022 49.7538 87.5469 49.6224 87.5449 49.4848V13.0222C87.5469 12.8846 87.6022 12.7531 87.6996 12.6558C87.7968 12.5585 87.9282 12.5031 88.0658 12.5013H91.8372C92.7065 12.5017 93.5622 12.7192 94.3261 13.134C95.0902 13.5488 95.7387 14.1478 96.2127 14.8766L113.423 41.4352L112.888 28.1975V13.0222C112.888 12.884 112.943 12.7515 113.041 12.6539C113.139 12.5562 113.271 12.5013 113.409 12.5013H118.423C118.555 12.5117 118.678 12.5709 118.768 12.6673C118.858 12.7637 118.908 12.8903 118.91 13.0222Z" fill="black"/>
<path d="M170.159 50.0057H164.853C164.77 50.005 164.689 49.9843 164.615 49.9458C164.542 49.907 164.479 49.8515 164.431 49.7835C164.384 49.7155 164.353 49.6373 164.342 49.5552C164.33 49.4731 164.339 49.3893 164.367 49.3111L178.423 13.0014C178.484 12.8494 178.59 12.7197 178.727 12.6302C178.864 12.5406 179.024 12.4956 179.188 12.5013H185.835C185.991 12.5027 186.146 12.551 186.276 12.6401C186.405 12.7292 186.505 12.855 186.564 13.0014L200.58 49.3111C200.606 49.3893 200.615 49.4731 200.605 49.5552C200.594 49.6373 200.562 49.7155 200.516 49.7835C200.468 49.8515 200.404 49.907 200.331 49.9458C200.258 49.9843 200.176 50.005 200.093 50.0057H194.788C194.681 50.0062 194.576 49.9746 194.489 49.9152C194.4 49.8556 194.333 49.771 194.293 49.6723L182.965 19.8078C182.93 19.7072 182.862 19.6203 182.775 19.5589C182.688 19.4976 182.583 19.4645 182.477 19.4645C182.37 19.4645 182.265 19.4976 182.178 19.5589C182.089 19.6203 182.023 19.7072 181.988 19.8078L170.659 49.6723C170.62 49.7721 170.551 49.8576 170.461 49.9171C170.372 49.9767 170.266 50.0076 170.159 50.0057Z" fill="black"/>
<path d="M237.417 49.1653L226.873 35.6985C232.827 34.5733 236.306 30.5589 236.306 24.3986C236.306 17.3213 231.701 12.5013 223.554 12.5013H208.851C208.645 12.5013 208.446 12.5832 208.3 12.7291C208.155 12.875 208.073 13.0729 208.073 13.2791C208.073 13.9358 208.203 14.5861 208.453 15.1928C208.704 15.7995 209.074 16.3508 209.538 16.8151C210.002 17.2795 210.553 17.6478 211.159 17.899C211.767 18.1504 212.416 18.2798 213.074 18.2798H222.942C227.867 18.2798 230.227 20.8009 230.227 24.4402C230.227 28.0794 227.922 30.6908 222.942 30.6908H208.851C208.643 30.6928 208.446 30.7762 208.3 30.9232C208.155 31.0702 208.073 31.2688 208.073 31.4757V49.5333C208.073 49.6714 208.128 49.8041 208.226 49.9017C208.323 49.9995 208.455 50.0542 208.594 50.0542H213.609C213.746 50.0524 213.877 49.997 213.975 49.8997C214.071 49.8025 214.128 49.6709 214.13 49.5333V36.0249H219.915L229.061 47.9637C229.552 48.6027 230.183 49.1194 230.905 49.4736C231.628 49.8279 232.423 50.0099 233.228 50.0057H237.035C237.129 50.0003 237.221 49.9692 237.299 49.9155C237.378 49.8619 237.44 49.7877 237.481 49.7011C237.52 49.6146 237.534 49.5187 237.523 49.4243C237.511 49.3299 237.475 49.2403 237.417 49.1653Z" fill="black"/>
<path d="M154.302 12.5013H131.036C130.852 12.5013 130.675 12.5745 130.545 12.7047C130.415 12.835 130.341 13.0116 130.341 13.1958C130.341 14.546 130.878 15.8409 131.832 16.7956C132.787 17.7503 134.082 18.2867 135.432 18.2867H154.302C154.371 18.2876 154.439 18.2748 154.503 18.2489C154.566 18.2231 154.624 18.1847 154.673 18.1362C154.721 18.0876 154.76 18.0299 154.786 17.9662C154.811 17.9026 154.824 17.8345 154.823 17.7658V13.0222C154.823 12.884 154.768 12.7515 154.671 12.6539C154.573 12.5562 154.441 12.5013 154.302 12.5013ZM154.302 44.2202H136.939C136.802 44.2185 136.67 44.163 136.573 44.0658C136.476 43.9683 136.42 43.837 136.418 43.6994V34.2955C136.418 34.1573 136.473 34.0249 136.571 33.9271C136.669 33.8295 136.801 33.7746 136.939 33.7746H152.99C153.128 33.7746 153.26 33.7196 153.358 33.622C153.456 33.5242 153.511 33.3918 153.511 33.2537V28.4754C153.511 28.3372 153.456 28.2048 153.358 28.107C153.26 28.0094 153.128 27.9545 152.99 27.9545H131.119C130.912 27.9562 130.714 28.0398 130.569 28.1868C130.423 28.3337 130.341 28.5322 130.341 28.7394V49.2C130.341 49.4062 130.423 49.6041 130.569 49.75C130.715 49.8958 130.913 49.9778 131.119 49.9778H154.302C154.441 49.9778 154.573 49.923 154.671 49.8252C154.768 49.7276 154.823 49.5952 154.823 49.4569V44.7134C154.818 44.5795 154.76 44.453 154.663 44.3609C154.566 44.2688 154.436 44.2183 154.302 44.2202Z" fill="black"/>
<path d="M50.1724 3.17412L37.1015 22.5723C36.8898 22.8521 36.7918 23.202 36.8274 23.5513C36.8631 23.9004 37.0297 24.2233 37.2937 24.4548C37.5577 24.6862 37.8994 24.8091 38.2503 24.7986C38.6012 24.7883 38.9353 24.6453 39.1851 24.3988L52.0476 13.2864C52.1218 13.2184 52.2144 13.1736 52.3138 13.1577C52.413 13.1418 52.5148 13.1554 52.6066 13.1968C52.6983 13.2382 52.7758 13.3056 52.8295 13.3907C52.8834 13.4758 52.9109 13.5747 52.909 13.6753V48.603C52.9079 48.709 52.8745 48.8123 52.8132 48.8988C52.752 48.9854 52.6658 49.0512 52.566 49.0875C52.4663 49.1236 52.358 49.1285 52.2555 49.1015C52.1529 49.0747 52.061 49.0169 51.9922 48.9364L13.0987 2.40318C12.4778 1.65614 11.701 1.05395 10.8228 0.63883C9.94459 0.223712 8.98619 0.00571876 8.01483 0.000130371H6.6605C4.89403 0.000130371 3.19989 0.701859 1.95081 1.95095C0.701728 3.20004 0 4.89415 0 6.66062V55.8469C0 57.6133 0.701728 59.3076 1.95081 60.5566C3.19989 61.8057 4.89403 62.5074 6.6605 62.5074C7.79869 62.5072 8.91787 62.2155 9.91122 61.6597C10.9046 61.1042 11.739 60.3033 12.3348 59.3333L25.4057 39.9353C25.6176 39.6553 25.7154 39.3056 25.6798 38.9563C25.6443 38.6071 25.4777 38.2843 25.2137 38.0528C24.9497 37.8213 24.6078 37.6985 24.2569 37.7088C23.906 37.7193 23.5721 37.862 23.3221 38.1088L10.4596 49.2212C10.3854 49.2891 10.2929 49.3339 10.1935 49.3499C10.0942 49.3657 9.99236 49.3522 9.90066 49.3108C9.80894 49.2693 9.73141 49.202 9.67767 49.1168C9.62393 49.0318 9.59636 48.9328 9.59833 48.8322V13.9393C9.59938 13.8332 9.63276 13.73 9.69405 13.6434C9.75531 13.5569 9.84153 13.4911 9.94119 13.4548C10.0409 13.4186 10.1492 13.4137 10.2518 13.4406C10.3543 13.4676 10.4462 13.5253 10.5151 13.6059L49.4085 60.139C50.0341 60.8793 50.8139 61.4743 51.6932 61.8821C52.5724 62.29 53.5301 62.501 54.4994 62.5004H55.8884C56.763 62.5004 57.6292 62.3282 58.4373 61.9934C59.2453 61.6587 59.9796 61.1682 60.598 60.5497C61.2165 59.9312 61.7072 59.1968 62.042 58.3888C62.3767 57.5806 62.549 56.7147 62.549 55.84V6.66062C62.549 5.78244 62.3753 4.91292 62.0381 4.1021C61.7006 3.29129 61.2062 2.55518 60.5835 1.93614C59.9605 1.31712 59.2213 0.827381 58.4084 0.495122C57.5956 0.16286 56.725 -0.00536402 55.8468 0.000130371C54.7086 0.000266921 53.5893 0.292082 52.5961 0.847728C51.6027 1.40337 50.7684 2.2043 50.1724 3.17412Z" fill="black"/>
</svg>
