<svg width="360" height="53" viewBox="0 0 360 53" fill="none" xmlns="http://www.w3.org/2000/svg">
<g clip-path="url(#clip0_1171_302173)">
<g opacity="0.64">
<mask id="mask0_1171_302173" style="mask-type:luminance" maskUnits="userSpaceOnUse" x="-1" y="0" width="362" height="54">
<path d="M360.323 0.485107H-0.234863V53.4851H360.323V0.485107Z" fill="white"/>
</mask>
<g mask="url(#mask0_1171_302173)">
<path d="M60.3397 42.2725L50.4494 52.762C50.2354 52.9898 49.9764 53.1717 49.6883 53.296C49.4002 53.4205 49.0894 53.4851 48.775 53.4852H1.8913C1.6677 53.4852 1.44897 53.4205 1.26192 53.2992C1.07487 53.1782 0.927611 53.0055 0.838169 52.803C0.748728 52.6002 0.720988 52.3761 0.758351 52.158C0.795712 51.9399 0.896546 51.7373 1.04852 51.575L10.9276 41.0856C11.1415 40.8577 11.4005 40.6758 11.6886 40.5515C11.9767 40.427 12.2876 40.3626 12.602 40.3623H59.4857C59.7111 40.3576 59.9333 40.4192 60.1235 40.539C60.3139 40.659 60.4646 40.832 60.5557 41.036C60.6471 41.2403 60.675 41.4666 60.6366 41.6867C60.598 41.9067 60.4947 42.1106 60.3397 42.2725ZM50.4494 21.1443C50.2347 20.9174 49.9755 20.7364 49.6875 20.612C49.3996 20.4877 49.089 20.4226 48.775 20.4212H1.8913C1.6677 20.4212 1.44897 20.4857 1.26192 20.607C1.07487 20.7282 0.927611 20.9007 0.838169 21.1034C0.748728 21.3062 0.720988 21.5303 0.758351 21.7484C0.795712 21.9663 0.896546 22.1691 1.04852 22.3314L10.9276 32.8264C11.1423 33.0532 11.4015 33.2342 11.6894 33.3587C11.9773 33.4829 12.2879 33.548 12.602 33.5496H59.4857C59.7089 33.5484 59.9267 33.4829 60.1131 33.3613C60.2995 33.2397 60.4457 33.0673 60.5344 32.8647C60.6231 32.6621 60.6505 32.4385 60.6125 32.221C60.5751 32.0034 60.4747 31.8012 60.3229 31.6394L50.4494 21.1443ZM1.8913 13.6083H48.775C49.0894 13.608 49.4002 13.5436 49.6883 13.4192C49.9764 13.2948 50.2354 13.1129 50.4494 12.8851L60.3397 2.39556C60.4947 2.23354 60.598 2.02969 60.6366 1.8097C60.675 1.5897 60.6471 1.36336 60.5557 1.15917C60.4646 0.954972 60.3139 0.782047 60.1235 0.66215C59.9333 0.542253 59.7111 0.480739 59.4857 0.485349H12.602C12.2876 0.485675 11.9767 0.550062 11.6886 0.674494C11.4005 0.798926 11.1415 0.980733 10.9276 1.20858L1.04852 11.6981C0.896546 11.8604 0.795712 12.063 0.758351 12.2811C0.720988 12.4991 0.748728 12.7232 0.838169 12.926C0.927611 13.1287 1.07487 13.3012 1.26192 13.4224C1.44897 13.5436 1.6677 13.6082 1.8913 13.6083Z" fill="url(#paint0_linear_1171_302173)"/>
<path d="M117.498 22.9001H92.4156V14.7294H124.017V6.55853H92.3318C91.249 6.55273 90.1764 6.7579 89.1738 7.1623C88.1715 7.56675 87.2589 8.16251 86.4898 8.9156C85.7202 9.66869 85.1078 10.5644 84.6881 11.5515C84.2684 12.5386 84.049 13.5978 84.0435 14.6686V22.9498C84.048 24.0216 84.2656 25.0821 84.6849 26.0705C85.104 27.0588 85.7157 27.9557 86.4853 28.71C87.2557 29.4643 88.1681 30.061 89.1711 30.4661C90.174 30.8713 91.2485 31.0767 92.3318 31.071H117.448V39.2418H84.6407V47.4127H117.498C118.581 47.4186 119.654 47.2133 120.656 46.8089C121.659 46.4044 122.571 45.8087 123.34 45.0556C124.11 44.3026 124.722 43.4068 125.142 42.4197C125.562 41.4326 125.781 40.3734 125.787 39.3026V31.0213C125.782 29.9495 125.565 28.8892 125.145 27.9008C124.726 26.9124 124.115 26.0154 123.345 25.2611C122.575 24.507 121.662 23.9101 120.659 23.505C119.656 23.1 118.582 22.8944 117.498 22.9001Z" fill="black"/>
<path d="M166.09 6.55868H140.913C139.828 6.54996 138.753 6.75294 137.748 7.15608C136.743 7.55921 135.828 8.15447 135.056 8.9079C134.284 9.66126 133.67 10.5579 133.249 11.5465C132.828 12.535 132.608 13.5961 132.602 14.6688V39.3027C132.608 40.3753 132.828 41.4364 133.249 42.425C133.67 43.4136 134.284 44.3102 135.056 45.0636C135.828 45.817 136.743 46.4123 137.748 46.8153C138.753 47.2185 139.828 47.4216 140.913 47.4129H166.09C167.173 47.4186 168.246 47.2135 169.248 46.8091C170.251 46.4046 171.163 45.8088 171.932 45.0558C172.702 44.3025 173.314 43.407 173.734 42.4198C174.154 41.4328 174.373 40.3736 174.379 39.3027V14.6688C174.373 13.598 174.154 12.5387 173.734 11.5516C173.314 10.5645 172.702 9.66882 171.932 8.91573C171.163 8.16264 170.251 7.56688 169.248 7.16243C168.246 6.75803 167.173 6.55288 166.09 6.55868ZM166.029 39.2419H140.974V14.7295H166.018L166.029 39.2419Z" fill="black"/>
<path d="M254.276 6.55853H229.718C228.635 6.55273 227.562 6.75789 226.56 7.16229C225.557 7.56675 224.645 8.16249 223.877 8.9156C223.107 9.66869 222.494 10.5644 222.074 11.5515C221.654 12.5386 221.436 13.5978 221.431 14.6686V47.4126H229.803V33.9915H254.249V47.4126H262.621V14.6686C262.615 13.5931 262.394 12.5294 261.97 11.5386C261.546 10.5479 260.93 9.64975 260.155 8.89587C259.379 8.14207 258.46 7.54747 257.452 7.14633C256.443 6.74519 255.363 6.54544 254.276 6.55853ZM254.214 25.8206H229.769V14.7293H254.214V25.8206Z" fill="black"/>
<path d="M352.033 6.55853H327.476C326.394 6.55273 325.32 6.7579 324.317 7.1623C323.315 7.56675 322.405 8.16251 321.635 8.9156C320.865 9.66869 320.252 10.5644 319.832 11.5515C319.412 12.5386 319.194 13.5978 319.188 14.6686V47.4127H327.561V33.9916H351.951V47.4127H360.323V14.6686C360.317 13.5978 360.097 12.5386 359.677 11.5515C359.259 10.5644 358.646 9.66869 357.876 8.9156C357.107 8.16251 356.194 7.56675 355.192 7.1623C354.19 6.7579 353.117 6.55273 352.033 6.55853ZM351.951 25.8207H327.505V14.7294H351.951V25.8207Z" fill="black"/>
<path d="M303.393 39.2417H300.043L288.072 9.98139C287.661 8.9719 286.955 8.10673 286.044 7.4969C285.134 6.88702 284.059 6.56025 282.96 6.55848H275.53C274.808 6.55483 274.092 6.69192 273.425 6.96183C272.756 7.23179 272.148 7.62929 271.635 8.13168C271.121 8.63414 270.713 9.23156 270.434 9.88996C270.155 10.5483 270.008 11.2548 270.005 11.9689V47.4127H278.377V14.7293H281.725L293.692 43.9896C294.108 44.9973 294.82 45.8589 295.736 46.4645C296.65 47.0705 297.726 47.3927 298.826 47.3906H306.255C306.978 47.3941 307.694 47.2572 308.361 46.9872C309.03 46.7172 309.637 46.3197 310.151 45.8172C310.665 45.3149 311.072 44.7175 311.352 44.0591C311.631 43.4006 311.777 42.6943 311.781 41.9801V6.55848H303.393V39.2417Z" fill="black"/>
<path d="M190.145 6.55841H181.773V39.3024C181.78 40.3757 182 41.4371 182.422 42.4261C182.842 43.4149 183.457 44.3118 184.23 45.0652C185.002 45.8188 185.918 46.4139 186.924 46.8167C187.929 47.2195 189.006 47.4219 190.089 47.4125H215.206V39.2417H190.145V6.55841Z" fill="black"/>
</g>
</g>
</g>
<defs>
<linearGradient id="paint0_linear_1171_302173" x1="5.79827" y1="54.7495" x2="54.3595" y2="-0.598278" gradientUnits="userSpaceOnUse">
<stop offset="0.08" stop-color="#9945FF"/>
<stop offset="0.3" stop-color="#8752F3"/>
<stop offset="0.5" stop-color="#5497D5"/>
<stop offset="0.6" stop-color="#43B4CA"/>
<stop offset="0.72" stop-color="#28E0B9"/>
<stop offset="0.97" stop-color="#19FB9B"/>
</linearGradient>
<clipPath id="clip0_1171_302173">
<rect width="360" height="53" fill="white"/>
</clipPath>
</defs>
</svg>
