<svg width="57" height="57" viewBox="0 0 57 57" fill="none" xmlns="http://www.w3.org/2000/svg">
<rect x="4.46533" y="4.0127" width="48" height="48" rx="24" fill="#F3B4B4"/>
<path d="M32.9653 30.0127H32.9753M19.4653 21.0127V35.0127C19.4653 36.1173 20.3608 37.0127 21.4653 37.0127H35.4653C36.5699 37.0127 37.4653 36.1173 37.4653 35.0127V25.0127C37.4653 23.9081 36.5699 23.0127 35.4653 23.0127L21.4653 23.0127C20.3608 23.0127 19.4653 22.1173 19.4653 21.0127ZM19.4653 21.0127C19.4653 19.9081 20.3608 19.0127 21.4653 19.0127H33.4653M33.4653 30.0127C33.4653 30.2888 33.2415 30.5127 32.9653 30.5127C32.6892 30.5127 32.4653 30.2888 32.4653 30.0127C32.4653 29.7366 32.6892 29.5127 32.9653 29.5127C33.2415 29.5127 33.4653 29.7366 33.4653 30.0127Z" stroke="#BE1E2E" stroke-width="2" stroke-linecap="round" stroke-linejoin="round"/>
<rect x="4.46533" y="4.0127" width="48" height="48" rx="24" stroke="#FAE0E0" stroke-width="8"/>
</svg>
