<svg width="57" height="57" viewBox="0 0 57 57" fill="none" xmlns="http://www.w3.org/2000/svg">
<rect x="4.46533" y="4.0127" width="48" height="48" rx="24" fill="#F3B4B4"/>
<path d="M36.4653 28.0127C36.4653 32.431 32.8836 36.0127 28.4653 36.0127M36.4653 28.0127C36.4653 23.5944 32.8836 20.0127 28.4653 20.0127M36.4653 28.0127H20.4653M28.4653 36.0127C24.0471 36.0127 20.4653 32.431 20.4653 28.0127M28.4653 36.0127C30.4664 33.822 31.6041 30.9791 31.6659 28.0127C31.6041 25.0463 30.4664 22.2034 28.4653 20.0127M28.4653 36.0127C26.4643 33.822 25.3277 30.9791 25.2659 28.0127C25.3277 25.0463 26.4643 22.2034 28.4653 20.0127M20.4653 28.0127C20.4653 23.5944 24.0471 20.0127 28.4653 20.0127M22.4653 36.0127C22.4653 37.1173 21.5699 38.0127 20.4653 38.0127C19.3608 38.0127 18.4653 37.1173 18.4653 36.0127C18.4653 34.9081 19.3608 34.0127 20.4653 34.0127C21.5699 34.0127 22.4653 34.9081 22.4653 36.0127ZM38.4653 36.0127C38.4653 37.1173 37.5699 38.0127 36.4653 38.0127C35.3608 38.0127 34.4653 37.1173 34.4653 36.0127C34.4653 34.9081 35.3608 34.0127 36.4653 34.0127C37.5699 34.0127 38.4653 34.9081 38.4653 36.0127ZM22.4653 20.0127C22.4653 21.1173 21.5699 22.0127 20.4653 22.0127C19.3608 22.0127 18.4653 21.1173 18.4653 20.0127C18.4653 18.9081 19.3608 18.0127 20.4653 18.0127C21.5699 18.0127 22.4653 18.9081 22.4653 20.0127ZM38.4653 20.0127C38.4653 21.1173 37.5699 22.0127 36.4653 22.0127C35.3608 22.0127 34.4653 21.1173 34.4653 20.0127C34.4653 18.9081 35.3608 18.0127 36.4653 18.0127C37.5699 18.0127 38.4653 18.9081 38.4653 20.0127Z" stroke="#BE1E2E" stroke-width="2" stroke-linecap="round" stroke-linejoin="round"/>
<rect x="4.46533" y="4.0127" width="48" height="48" rx="24" stroke="#FAE0E0" stroke-width="8"/>
</svg>
