<svg width="168" height="168" viewBox="0 0 168 168" fill="none" xmlns="http://www.w3.org/2000/svg">
<rect x="12" y="12" width="144" height="144" rx="72" fill="#F3B4B4"/>
<path d="M78.1191 87.2471C79.4075 88.9695 81.0512 90.3946 82.9388 91.4259C84.8264 92.4572 86.9137 93.0704 89.0591 93.2241C91.2045 93.3777 93.3579 93.0682 95.3732 92.3164C97.3885 91.5647 99.2185 90.3883 100.739 88.8671L109.739 79.8671C112.472 77.0381 113.983 73.249 113.949 69.3161C113.915 65.3831 112.338 61.6209 109.556 58.8398C106.775 56.0587 103.013 54.4812 99.0802 54.447C95.1472 54.4128 91.3582 55.9247 88.5291 58.6571L83.3691 63.7871" stroke="#BE1E2E" stroke-width="6" stroke-linecap="round" stroke-linejoin="round"/>
<path d="M90.1188 81.247C88.8304 79.5246 87.1867 78.0995 85.2991 77.0682C83.4115 76.0369 81.3242 75.4237 79.1788 75.27C77.0334 75.1164 74.88 75.4259 72.8647 76.1777C70.8495 76.9294 69.0194 78.1058 67.4988 79.627L58.4988 88.627C55.7664 91.456 54.2545 95.2451 54.2887 99.178C54.3228 103.111 55.9004 106.873 58.6815 109.654C61.4626 112.435 65.2248 114.013 69.1577 114.047C73.0907 114.081 76.8797 112.569 79.7088 109.837L84.8388 104.707" stroke="#BE1E2E" stroke-width="6" stroke-linecap="round" stroke-linejoin="round"/>
<rect x="12" y="12" width="144" height="144" rx="72" stroke="#FAE0E0" stroke-width="24"/>
</svg>
