
<svg width="175" height="36" viewBox="0 0 175 36" fill="none" xmlns="http://www.w3.org/2000/svg">
<g clip-path="url(#clip0_826_242520)">
<path d="M30.0137 12.7607L28.6988 12.4162L28.6987 12.4167L30.0137 12.7607ZM30.0176 12.6067L31.3328 12.9503C31.4195 12.6179 31.3773 12.2649 31.2147 11.9624L30.0176 12.6067ZM29.9782 12.4795H28.619C28.619 12.7044 28.6747 12.9258 28.7811 13.1238L29.9782 12.4795ZM29.9782 12.4636H31.3374C31.3374 12.1471 31.2272 11.8405 31.0256 11.5966L29.9782 12.4636ZM29.9199 12.4247L28.93 13.357C29.1008 13.5386 29.3182 13.6698 29.5584 13.7362L29.9199 12.4247ZM20.0867 1.96623L21.0765 1.03389C20.9054 0.851903 20.6875 0.720607 20.4468 0.654398L20.0867 1.96623ZM20.0284 1.91142L21.2255 1.26723C21.0495 0.939462 20.747 0.698186 20.3884 0.599591L20.0284 1.91142ZM19.9945 1.90211L20.3546 0.590276L20.354 0.590129L19.9945 1.90211ZM19.9605 1.89279L19.6004 3.20462L19.601 3.20477L19.9605 1.89279ZM19.8251 1.85553L20.1852 0.543705L20.1847 0.543558L19.8251 1.85553ZM19.7478 1.87308L20.1318 3.17811C20.2487 3.14367 20.3603 3.09368 20.4638 3.02947L19.7478 1.87308ZM6.13553 5.88571L5.75155 4.58067C5.39478 4.68584 5.09671 4.9327 4.92667 5.26376C4.75667 5.59479 4.72958 5.98109 4.85176 6.33265L6.13553 5.88571ZM6.10161 5.87635L5.64352 7.15722C5.6755 7.16869 5.7079 7.17894 5.74063 7.18796L6.10161 5.87635ZM5.9622 5.99315L6.67863 7.14925C6.97494 6.96531 7.1893 6.67439 7.27735 6.3367L5.9622 5.99315ZM5.89997 6.09234L4.58495 5.74824L4.58482 5.74874L5.89997 6.09234ZM5.8811 6.1647L7.19613 6.50875L7.19625 6.50829L5.8811 6.1647ZM2.06422 20.7806L3.37915 21.125L3.37928 21.1245L2.06422 20.7806ZM2.05477 20.8167L0.739835 20.4722L0.739707 20.4727L2.05477 20.8167ZM2.07921 20.8622L1.71779 22.1737C2.12684 22.2866 2.5651 22.2019 2.90269 21.9446C3.24027 21.6873 3.43843 21.2869 3.43843 20.8622H2.07921ZM2.10364 20.9077L3.41866 21.2518C3.50553 20.9193 3.46341 20.5661 3.30076 20.2634L2.10364 20.9077ZM2.12807 20.9532L3.32519 20.3089C3.14901 19.9809 2.84623 19.7396 2.48747 19.6412L2.12807 20.9532ZM2.17694 21.0442L0.979489 21.6879C1.03578 21.7928 1.10557 21.8899 1.1871 21.9766L2.17694 21.0442ZM12.0102 31.5027L11.0203 32.435C11.4226 32.863 12.054 32.984 12.5858 32.7351C13.1176 32.4863 13.4297 31.9238 13.3597 31.3404L12.0102 31.5027ZM12.044 31.512L11.6845 32.824L11.685 32.8241L12.044 31.512ZM12.078 31.5213L12.4395 30.2098L12.437 30.2091L12.078 31.5213ZM12.2812 31.5772L12.6407 30.2652C12.2763 30.1652 11.8867 30.2215 11.5655 30.4207L12.2812 31.5772ZM12.3151 31.5865L12.6766 30.2751L12.6746 30.2745L12.3151 31.5865ZM12.349 31.5958L11.9874 32.9073C12.2317 32.9747 12.4899 32.9725 12.733 32.9009L12.349 31.5958ZM25.9613 27.5832L26.3229 26.2718C26.0786 26.2043 25.8204 26.2065 25.5774 26.2782L25.9613 27.5832ZM26.048 27.5295L26.7644 28.6856C27.1921 28.4201 27.4382 27.9397 27.404 27.4371L26.048 27.5295ZM26.0913 27.5026L27.3345 28.0527C27.5754 27.5071 27.4332 26.868 26.9837 26.4764C26.5341 26.0848 25.8822 26.032 25.3755 26.3461L26.0913 27.5026ZM26.1346 27.4758L26.85 28.6325L26.8504 28.6322L26.1346 27.4758ZM26.178 27.4489L26.8938 28.6054C27.1904 28.4214 27.405 28.1304 27.4931 27.7925L26.178 27.4489ZM28.988 12.5183L29.3712 13.8236C29.8249 13.6902 30.1768 13.3303 30.3002 12.8733C30.4236 12.4163 30.3008 11.9279 29.9759 11.5839L28.988 12.5183ZM23.1273 14.2417L21.8076 14.5676C21.8964 14.9279 22.1285 15.2363 22.45 15.4213C22.7716 15.6062 23.1546 15.6516 23.5105 15.547L23.1273 14.2417ZM20.4826 3.51062L21.4705 2.57617C21.0465 2.12714 20.3734 2.02046 19.8316 2.3164C19.2897 2.61234 19.0151 3.23658 19.163 3.83643L20.4826 3.51062ZM19.6437 2.96763L20.9642 2.64525C20.8461 2.16082 20.4727 1.77985 19.9911 1.65239C19.5095 1.52492 18.9968 1.6714 18.6549 2.03412L19.6437 2.96763ZM22.3782 14.1888L22.0182 15.5006C22.4826 15.6283 22.9799 15.5004 23.3253 15.1645C23.6708 14.8285 23.8128 14.3347 23.6987 13.8664L22.3782 14.1888ZM11.8073 11.2825L10.8186 10.349C10.4913 10.6964 10.3698 11.1899 10.4985 11.6497C10.6273 12.1094 10.9873 12.4679 11.4473 12.5944L11.8073 11.2825ZM18.6531 3.00508L19.6394 3.94121C20.062 3.49517 20.1333 2.8209 19.8132 2.29622C19.4932 1.77155 18.8615 1.52684 18.2719 1.69922L18.6531 3.00508ZM11.1335 10.9417L10.1442 11.8747C10.4005 12.1469 10.7575 12.3015 11.1313 12.3021C11.505 12.3027 11.8625 12.1493 12.1197 11.8778L11.1335 10.9417ZM6.89771 6.4425L6.51656 5.13662C6.06255 5.26937 5.71017 5.62877 5.5861 6.08559C5.46202 6.5424 5.58412 7.03093 5.90848 7.37549L6.89771 6.4425ZM6.38953 7.00259L7.37876 6.06961C7.03974 5.70953 6.53219 5.56202 6.0532 5.68444C5.57426 5.80685 5.19946 6.17988 5.07446 6.65858L6.38953 7.00259ZM10.6252 11.5018L11.6142 12.4351C12.1078 11.9111 12.1079 11.0929 11.6145 10.5688L10.6252 11.5018ZM3.13949 19.4477L1.82445 19.1037C1.6674 19.7051 1.9376 20.3366 2.48089 20.6378C3.02417 20.939 3.70234 20.8333 4.12841 20.381L3.13949 19.4477ZM10.9486 12.2115L12.2692 11.8891C12.1511 11.4047 11.7777 11.0238 11.2961 10.8963C10.8144 10.7688 10.3018 10.9153 9.9599 11.278L10.9486 12.2115ZM13.6832 23.4326L13.3232 24.7445C13.7876 24.8722 14.2849 24.7443 14.6303 24.4083C14.9758 24.0724 15.1178 23.5786 15.0037 23.1102L13.6832 23.4326ZM3.11237 20.5264L2.12363 19.5929C1.79632 19.9402 1.67485 20.4338 1.80358 20.8935C1.93231 21.3533 2.29238 21.7118 2.75235 21.8382L3.11237 20.5264ZM12.105 30.4445L11.1172 31.3789C11.4565 31.7382 11.9638 31.8851 12.4423 31.7624C12.9208 31.6397 13.2952 31.2669 13.4201 30.7885L12.105 30.4445ZM3.59968 21.4367L3.95971 20.1248C3.37183 19.9632 2.74835 20.2131 2.43447 20.7363C2.12057 21.2594 2.19308 21.9277 2.61182 22.3712L3.59968 21.4367ZM13.7301 24.2219L15.0451 24.5659C15.2332 23.8453 14.8076 23.1073 14.0901 22.91L13.7301 24.2219ZM14.352 23.2267L13.0315 23.5491C13.1497 24.0342 13.5239 24.4155 14.0064 24.5424C14.4888 24.6694 15.0019 24.5216 15.3433 24.1575L14.352 23.2267ZM11.6175 12.0056L11.9775 10.6937C11.513 10.566 11.0157 10.6939 10.6703 11.0298C10.3248 11.3658 10.1828 11.8596 10.2969 12.3279L11.6175 12.0056ZM22.1544 14.9025L23.1457 15.8333C23.4716 15.4856 23.5919 14.9925 23.4627 14.5336C23.3335 14.0747 22.9738 13.7169 22.5144 13.5906L22.1544 14.9025ZM12.7819 30.6289L11.4669 30.2848C11.3431 30.7589 11.4836 31.263 11.8347 31.6045C12.1858 31.946 12.6932 32.0722 13.1631 31.9347L12.7819 30.6289ZM14.407 24.4063L14.767 23.0944C14.4165 22.9981 14.0422 23.0462 13.7274 23.2281C13.4127 23.4099 13.1838 23.7104 13.0919 24.0623L14.407 24.4063ZM24.5374 27.1914L24.9185 28.4973C25.5021 28.3267 25.9015 27.7889 25.8965 27.1804C25.8916 26.5719 25.4836 26.0407 24.8974 25.8796L24.5374 27.1914ZM14.8341 23.7488L13.8454 22.8153C13.5181 23.1626 13.3966 23.6562 13.5253 24.1159C13.6541 24.5757 14.0141 24.9342 14.4741 25.0606L14.8341 23.7488ZM22.6704 15.4339L23.9909 15.1115C23.8728 14.6271 23.4995 14.2461 23.0178 14.1186C22.5362 13.9912 22.0235 14.1377 21.6816 14.5004L22.6704 15.4339ZM25.405 26.655L25.0449 27.9669C25.5094 28.0946 26.0067 27.9667 26.3521 27.6307C26.6976 27.2948 26.8396 26.801 26.7255 26.3326L25.405 26.655ZM25.906 25.709L24.5854 26.0311C24.7328 26.6364 25.2722 27.0642 25.8947 27.0694C26.5172 27.0745 27.0636 26.6558 27.221 26.053L25.906 25.709ZM23.2952 14.9872L22.9121 13.6819C22.2155 13.8868 21.8028 14.6033 21.9747 15.3093L23.2952 14.9872ZM29.156 13.2638L30.471 13.6078C30.5949 13.1334 30.4541 12.6289 30.1025 12.2875C29.7509 11.946 29.2429 11.8203 28.7728 11.9585L29.156 13.2638ZM31.3286 13.1052C31.3611 12.9811 31.3757 12.8641 31.3794 12.7582C31.3829 12.6553 31.3756 12.5729 31.3713 12.5309C31.3702 12.5207 31.3693 12.5121 31.3687 12.5072C31.3685 12.505 31.3682 12.5025 31.3681 12.5017C31.368 12.5005 31.368 12.5005 31.368 12.5008C31.3681 12.5013 31.3686 12.5064 31.3694 12.5139C31.3701 12.5215 31.3712 12.5338 31.3721 12.5492C31.374 12.5788 31.3763 12.6311 31.3726 12.697C31.3688 12.7643 31.3586 12.8513 31.3328 12.9503L28.7024 12.2631C28.6743 12.3711 28.6628 12.4675 28.6584 12.5445C28.6542 12.62 28.6566 12.6823 28.6592 12.7225C28.6617 12.7615 28.6653 12.7934 28.6665 12.8037C28.6668 12.8069 28.6671 12.8097 28.6673 12.8114C28.6676 12.8136 28.6676 12.814 28.6677 12.8147C28.6679 12.8158 28.6676 12.8133 28.6671 12.8094C28.6654 12.7923 28.6601 12.7371 28.6625 12.6642C28.6652 12.5883 28.6758 12.5042 28.6988 12.4162L31.3286 13.1052ZM31.2147 11.9624C31.2637 12.0535 31.2943 12.1386 31.3136 12.2076C31.3226 12.2399 31.3284 12.2658 31.3315 12.2811C31.3342 12.2942 31.3361 12.3048 31.3347 12.2972C31.3343 12.2945 31.3305 12.2738 31.3256 12.2504C31.3203 12.2248 31.3122 12.1885 31.3002 12.1458C31.2751 12.0557 31.2365 11.9491 31.1753 11.8352L28.7811 13.1238C28.7321 13.0328 28.7015 12.9476 28.6822 12.8786C28.6732 12.8463 28.6675 12.8204 28.6643 12.8052C28.6616 12.7921 28.6597 12.7815 28.6611 12.7891C28.6616 12.7917 28.6653 12.8125 28.6702 12.8359C28.6755 12.8614 28.6837 12.8977 28.6956 12.9404C28.7207 13.0305 28.7593 13.1372 28.8205 13.251L31.2147 11.9624ZM31.3374 12.4795V12.4636H28.619V12.4795H31.3374ZM29.9782 12.4636C31.0256 11.5966 31.0254 11.5964 31.0252 11.5961C31.0251 11.596 31.0249 11.5957 31.0247 11.5956C31.0244 11.5952 31.0241 11.5948 31.0238 11.5945C31.0233 11.5937 31.0226 11.593 31.022 11.5923C31.0208 11.5908 31.0196 11.5893 31.0183 11.5878C31.0157 11.5848 31.0131 11.5817 31.0104 11.5785C31.005 11.5722 30.9992 11.5655 30.993 11.5586C30.9807 11.5447 30.9667 11.5294 30.9509 11.5131C30.92 11.4812 30.879 11.4416 30.8281 11.3994C30.7404 11.3268 30.5548 11.1888 30.2814 11.1133L29.5584 13.7362C29.3189 13.67 29.1624 13.5515 29.0954 13.496C29.0548 13.4624 29.022 13.4307 28.9968 13.4046C28.9838 13.3912 28.972 13.3783 28.9611 13.3661C28.9557 13.36 28.9505 13.354 28.9454 13.3481C28.9429 13.3451 28.9404 13.3422 28.938 13.3393C28.9367 13.3378 28.9355 13.3364 28.9343 13.335C28.9337 13.3342 28.9331 13.3335 28.9325 13.3328C28.9322 13.3324 28.9319 13.3321 28.9316 13.3317C28.9315 13.3315 28.9313 13.3313 28.9312 13.3312C28.931 13.3309 28.9307 13.3306 29.9782 12.4636ZM30.9097 11.4924L21.0765 1.03389L19.0968 2.89857L28.93 13.357L30.9097 11.4924ZM20.4468 0.654398C20.6652 0.714463 20.8187 0.817359 20.9056 0.886014C20.9953 0.956933 21.0568 1.02545 21.0929 1.06914C21.1309 1.11518 21.1588 1.15596 21.1776 1.18535C21.1875 1.20088 21.1963 1.21546 21.2041 1.22879C21.208 1.23552 21.2117 1.24208 21.2153 1.24845C21.217 1.25164 21.2188 1.2548 21.2205 1.25793C21.2213 1.25949 21.2222 1.26104 21.223 1.2626C21.2234 1.26337 21.2239 1.26414 21.2243 1.26492C21.2245 1.2653 21.2247 1.26569 21.2249 1.26607C21.225 1.26627 21.2252 1.26655 21.2252 1.26665C21.2254 1.26694 21.2255 1.26723 20.0284 1.91142C18.8312 2.55561 18.8313 2.55591 18.8315 2.55619C18.8315 2.55629 18.8317 2.55658 18.8318 2.55677C18.832 2.55716 18.8322 2.55755 18.8324 2.55794C18.8328 2.55873 18.8333 2.55952 18.8337 2.56031C18.8345 2.56191 18.8354 2.56353 18.8363 2.56518C18.8382 2.56848 18.84 2.57189 18.842 2.57542C18.8459 2.58246 18.8502 2.59001 18.8549 2.59799C18.8641 2.61386 18.8751 2.63206 18.8878 2.652C18.9123 2.69021 18.9483 2.74295 18.9967 2.80152C19.0546 2.87173 19.2935 3.15896 19.7265 3.27806L20.4468 0.654398ZM20.3884 0.599591L20.3546 0.590276L19.6343 3.21394L19.6682 3.22325L20.3884 0.599591ZM20.354 0.590129L20.3201 0.580814L19.601 3.20477L19.6349 3.21409L20.354 0.590129ZM20.3207 0.580961C20.3037 0.576306 20.2952 0.573978 20.2868 0.57165C20.2783 0.569318 20.2698 0.566991 20.2529 0.562335L19.5327 3.18599C19.5496 3.19065 19.5581 3.19298 19.5666 3.19531C19.575 3.19764 19.5835 3.19996 19.6004 3.20462L20.3207 0.580961ZM20.2529 0.562335L20.219 0.55302L19.4988 3.17668L19.5327 3.18599L20.2529 0.562335ZM20.219 0.55302L20.1852 0.543705L19.4649 3.16736L19.4988 3.17668L20.219 0.55302ZM20.1847 0.543558C19.7482 0.423718 19.3944 0.550903 19.3042 0.58412C19.2314 0.610918 19.1726 0.638998 19.1314 0.66028C19.1099 0.671392 19.0909 0.681879 19.0746 0.691215C19.0664 0.695917 19.0587 0.700412 19.0516 0.70465C19.0481 0.706776 19.0446 0.708842 19.0414 0.710849C19.0397 0.711853 19.0381 0.712839 19.0365 0.713814C19.0357 0.714303 19.0349 0.714783 19.0341 0.715264C19.0338 0.715505 19.0333 0.715741 19.033 0.715981C19.0328 0.716099 19.0325 0.716276 19.0324 0.716335C19.0321 0.716512 19.0318 0.716689 19.7478 1.87308C20.4638 3.02947 20.4635 3.02965 20.4633 3.02983C20.4631 3.02989 20.4629 3.03006 20.4627 3.03018C20.4623 3.03042 20.4619 3.03065 20.4615 3.03089C20.4608 3.03137 20.46 3.03184 20.4592 3.03231C20.4577 3.03326 20.4561 3.03421 20.4546 3.03517C20.4514 3.03707 20.4483 3.03899 20.445 3.04091C20.4386 3.04476 20.4319 3.04869 20.4249 3.05268C20.4111 3.06058 20.3958 3.06904 20.3788 3.07778C20.3469 3.09432 20.3009 3.11627 20.2433 3.13751C20.1884 3.15773 20.0986 3.18641 19.9828 3.20225C19.87 3.21769 19.6844 3.22761 19.4655 3.16751L20.1847 0.543558ZM19.3638 0.568058L5.75155 4.58067L6.51955 7.19074L20.1318 3.17811L19.3638 0.568058ZM6.13553 5.88571C4.85189 6.33303 5.14137 4.958 6.49153 4.57274C6.49216 4.57291 6.49343 4.57325 6.49402 4.57342C6.49469 4.57363 6.4952 4.57376 6.49528 4.5738C6.49562 4.57388 6.49587 4.57393 6.49591 4.57397C6.49541 4.57384 6.4944 4.57355 6.49225 4.57296C6.48803 4.57177 6.47957 4.56946 6.46259 4.56477L5.74063 7.18796C5.75757 7.19264 5.76608 7.19496 5.77034 7.19614C5.77244 7.19673 5.7735 7.19703 5.77404 7.19715C5.7743 7.19724 5.77447 7.19728 5.77455 7.19732C5.77459 7.19732 5.77501 7.19741 5.77518 7.19749C5.77522 7.19749 5.77548 7.19758 5.77577 7.19766C5.7759 7.19766 5.7764 7.19783 5.77704 7.198C5.77767 7.19817 5.77889 7.1985 5.77952 7.19867C7.12973 6.81342 7.41917 5.43838 6.13553 5.88571ZM6.10161 5.87635C6.55999 4.5956 5.96157 4.52315 5.39065 4.71684C5.38998 4.71726 5.38859 4.7181 5.38792 4.71856C5.3872 4.71899 5.38665 4.71932 5.38653 4.71941C5.38619 4.71962 5.38589 4.71979 5.38585 4.71983C5.38572 4.71987 5.38535 4.72012 5.3853 4.72017C5.38526 4.72021 5.38539 4.72012 5.3853 4.72017C5.38522 4.72025 5.38484 4.72042 5.3845 4.72063C5.38383 4.72109 5.38248 4.72194 5.37974 4.72358C5.37435 4.72696 5.36352 4.7337 5.34187 4.74711L6.77473 7.05935C6.79639 7.0459 6.80722 7.03919 6.81261 7.03586C6.81535 7.03417 6.8167 7.03333 6.81733 7.03291C6.81766 7.0327 6.81783 7.03261 6.81788 7.03257C6.81792 7.03257 6.81792 7.03257 6.81788 7.03257C6.81783 7.03261 6.81766 7.0327 6.81733 7.03291C6.81729 7.03291 6.81703 7.03312 6.8167 7.03333C6.81657 7.03337 6.81602 7.03375 6.81531 7.03417C6.81463 7.03459 6.81328 7.03544 6.81261 7.03586C6.2417 7.22958 5.64323 7.15709 6.10161 5.87635ZM5.34187 4.74711C5.34187 4.74715 5.23136 4.8126 5.12561 4.90107C5.02829 4.98254 4.75789 5.2245 4.64705 5.64956L7.27735 6.3367C7.17594 6.72558 6.93192 6.93605 6.86949 6.98834C6.79862 7.04767 6.73147 7.08625 6.77473 7.05935L5.34187 4.74711ZM5.24577 4.83702C4.70704 5.17146 4.59615 5.70527 4.58495 5.74824L7.215 6.43643C7.2257 6.3954 7.19621 6.53127 7.11924 6.67662C7.02149 6.86107 6.87218 7.02911 6.67863 7.14925L5.24577 4.83702ZM4.58482 5.74874L4.57537 5.78493L7.20569 6.47211L7.21513 6.43593L4.58482 5.74874ZM4.57537 5.78493L4.56594 5.82111L7.19625 6.50829L7.20569 6.47211L4.57537 5.78493ZM4.56605 5.82068L0.786968 20.2918L3.41705 20.9799L7.19613 6.50875L4.56605 5.82068ZM0.786968 20.2918C0.777515 20.328 0.768072 20.3642 0.758649 20.4002L3.38868 21.0885C3.39816 21.0522 3.40761 21.016 3.41705 20.9799L0.786968 20.2918ZM0.758649 20.4002L0.749157 20.4366L3.37928 21.1245L3.38868 21.0885L0.758649 20.4002ZM0.749282 20.4361L0.739835 20.4722L3.36971 21.1611L3.37915 21.125L0.749282 20.4361ZM2.05477 20.8167C0.739707 20.4727 0.739549 20.4733 0.739391 20.474C0.739339 20.4742 0.739181 20.4748 0.739075 20.4752C0.738865 20.476 0.738654 20.4768 0.738442 20.4776C0.73802 20.4793 0.737597 20.4809 0.737172 20.4826C0.736325 20.4859 0.735474 20.4894 0.734621 20.4929C0.732917 20.4998 0.731202 20.507 0.729491 20.5145C0.726078 20.5295 0.722633 20.5458 0.719306 20.5632C0.712735 20.5977 0.706187 20.6391 0.701451 20.6861C0.692644 20.7736 0.686613 20.9137 0.7174 21.0816C0.748822 21.2529 0.826074 21.4905 1.01249 21.7168C1.20876 21.955 1.46286 22.1033 1.71779 22.1737L2.44062 19.5508C2.67862 19.6165 2.92119 19.7568 3.1097 19.9856C3.28836 20.2024 3.36162 20.4292 3.39117 20.5903C3.42008 20.748 3.4143 20.8785 3.4062 20.9589C3.40182 21.0024 3.39575 21.0408 3.38956 21.0733C3.38642 21.0898 3.38315 21.1052 3.37986 21.1196C3.37821 21.1269 3.37654 21.1339 3.37487 21.1407C3.37404 21.1441 3.3732 21.1475 3.37236 21.1509C3.37194 21.1525 3.37152 21.1541 3.3711 21.1558C3.37089 21.1566 3.37068 21.1574 3.37047 21.1582C3.37036 21.1586 3.37021 21.1592 3.37015 21.1594C3.37 21.16 3.36984 21.1606 2.05477 20.8167ZM2.07921 20.8622C3.43843 20.8622 2.41478 22.1806 0.885685 21.5132C0.885225 21.5124 0.884319 21.5107 0.883869 21.5098C0.883401 21.509 0.883034 21.5083 0.882971 21.5082C0.88274 21.5078 0.882558 21.5074 0.882525 21.5073C0.8829 21.508 0.883624 21.5094 0.885149 21.5122C0.8882 21.5179 0.894304 21.5293 0.906522 21.552L3.30076 20.2634C3.28854 20.2406 3.28243 20.2293 3.27937 20.2236C3.27784 20.2207 3.27708 20.2193 3.27668 20.2186C3.27649 20.2182 3.27639 20.218 3.27633 20.2179C3.2763 20.2179 3.27636 20.218 3.27633 20.2179C3.27632 20.2179 3.27617 20.2176 3.27611 20.2175C3.27609 20.2175 3.276 20.2173 3.27589 20.2171C3.27585 20.217 3.27567 20.2167 3.27544 20.2163C3.27538 20.2161 3.27501 20.2155 3.27454 20.2146C3.27409 20.2138 3.27319 20.2121 3.27273 20.2113C1.74363 19.5439 0.719984 20.8622 2.07921 20.8622ZM2.10364 20.9077C0.788627 20.5636 0.788469 20.5642 0.788311 20.5648C0.788258 20.565 0.7881 20.5656 0.787995 20.566C0.787784 20.5668 0.787573 20.5676 0.787361 20.5685C0.786938 20.5701 0.786515 20.5718 0.786091 20.5734C0.785243 20.5768 0.784392 20.5802 0.783539 20.5836C0.781835 20.5906 0.780119 20.5979 0.778407 20.6054C0.774993 20.6203 0.771546 20.6366 0.768217 20.654C0.761642 20.6885 0.755086 20.7298 0.750343 20.7769C0.741523 20.8643 0.735453 21.0046 0.766266 21.1726C0.797716 21.3441 0.875097 21.5821 1.06201 21.8086C1.25882 22.047 1.51351 22.1952 1.76867 22.2652L2.48747 19.6412C2.72569 19.7065 2.96885 19.8467 3.15791 20.0758C3.33706 20.2928 3.41046 20.5201 3.44003 20.6813C3.46897 20.8391 3.46315 20.9697 3.45504 21.0501C3.45066 21.0936 3.44458 21.1321 3.43839 21.1645C3.43525 21.181 3.43197 21.1964 3.42868 21.2109C3.42703 21.2181 3.42536 21.2252 3.42369 21.2319C3.42286 21.2354 3.42202 21.2387 3.42118 21.2421C3.42076 21.2437 3.42034 21.2454 3.41992 21.247C3.41971 21.2478 3.4195 21.2486 3.41929 21.2494C3.41918 21.2498 3.41902 21.2505 3.41897 21.2506C3.41881 21.2513 3.41866 21.2518 2.10364 20.9077ZM0.93095 21.5975C0.955268 21.6427 0.955154 21.6425 0.979489 21.6879L3.37439 20.4005C3.34985 20.3548 3.34974 20.3546 3.32519 20.3089L0.93095 21.5975ZM1.1871 21.9766L11.0203 32.435L13 30.5704L3.16678 20.1119L1.1871 21.9766ZM12.0102 31.5027C13.3596 31.34 12.9099 32.5224 11.6819 32.8228C11.678 32.8219 11.6701 32.8199 11.6662 32.8188C11.6621 32.8178 11.6589 32.8169 11.6584 32.8168C11.6563 32.8162 11.6547 32.8158 11.6545 32.8157C11.6535 32.8155 11.6527 32.8153 11.6525 32.8152C11.652 32.815 11.6517 32.815 11.6516 32.8149C11.652 32.815 11.6528 32.8153 11.6549 32.8158C11.6592 32.817 11.6676 32.8193 11.6845 32.824L12.4036 30.2C12.3866 30.1954 12.3781 30.193 12.3739 30.1919C12.3717 30.1913 12.3706 30.1909 12.37 30.1908C12.3697 30.1907 12.3695 30.1906 12.3693 30.1906C12.3693 30.1906 12.369 30.1905 12.3688 30.1905C12.3687 30.1904 12.3683 30.1903 12.3678 30.1902C12.3677 30.1901 12.3669 30.1899 12.3659 30.1897C12.3656 30.1896 12.364 30.1892 12.362 30.1886C12.3614 30.1884 12.3582 30.1876 12.3542 30.1865C12.3503 30.1855 12.3424 30.1835 12.3384 30.1825C11.1105 30.483 10.6607 31.6654 12.0102 31.5027ZM11.685 32.8241L11.7189 32.8334L12.437 30.2091L12.4031 30.1999L11.685 32.8241ZM11.7165 32.8327C11.6047 32.8018 11.5128 32.7605 11.4426 32.7224C11.373 32.6847 11.3194 32.6473 11.2834 32.6201C11.2476 32.593 11.2213 32.5701 11.2085 32.5587C11.1968 32.5482 11.1876 32.5394 11.1936 32.5451C11.195 32.5464 11.2116 32.5621 11.2307 32.5792C11.251 32.5972 11.2848 32.6266 11.3284 32.6594C11.3721 32.6924 11.4336 32.735 11.5114 32.7771C11.5899 32.8196 11.6901 32.8643 11.8106 32.8974L12.5297 30.2734C12.6417 30.3042 12.7338 30.3455 12.8043 30.3837C12.8741 30.4214 12.9279 30.4589 12.964 30.4862C13 30.5133 13.0264 30.5363 13.0393 30.5478C13.0511 30.5583 13.0604 30.5672 13.0545 30.5617C13.0532 30.5605 13.0367 30.5448 13.0177 30.5278C12.9975 30.5098 12.9638 30.4806 12.9203 30.4478C12.8768 30.4149 12.8154 30.3723 12.738 30.3303C12.6597 30.2878 12.5597 30.243 12.4395 30.2098L11.7165 32.8327ZM11.8106 32.8974C11.8114 32.8976 11.8633 32.9124 11.9232 32.9247C11.9895 32.9382 12.0895 32.9543 12.2116 32.9553C12.4874 32.9574 12.7584 32.8817 12.997 32.7337L11.5655 30.4207C11.7608 30.2996 11.9931 30.2326 12.2326 30.2344C12.4208 30.2359 12.5735 30.2855 12.5297 30.2734L11.8106 32.8974ZM11.9218 32.8892L11.9556 32.8985L12.6746 30.2745L12.6407 30.2652L11.9218 32.8892ZM11.9536 32.8979L11.9874 32.9073L12.7105 30.2844L12.6766 30.2751L11.9536 32.8979ZM12.733 32.9009L26.3454 28.8882L25.5774 26.2782L11.965 30.2908L12.733 32.9009ZM25.5998 28.8946C25.8692 28.9691 26.1797 28.9674 26.4818 28.8481C26.7333 28.7488 26.8914 28.5992 26.9295 28.5636C26.9431 28.5509 26.954 28.5402 26.9604 28.5338C26.9662 28.5281 26.9719 28.5224 26.972 28.5224C26.9755 28.5189 26.9643 28.5301 26.9495 28.544C26.9155 28.5759 26.8528 28.6307 26.7644 28.6856L25.3315 26.3734C25.2215 26.4417 25.1413 26.5111 25.0923 26.5571C25.07 26.578 25.052 26.5961 25.0489 26.5992C25.0401 26.608 25.0552 26.5926 25.0728 26.5762C25.0988 26.5519 25.2454 26.4113 25.4843 26.317C25.7738 26.2027 26.0704 26.202 26.3229 26.2718L25.5998 28.8946ZM26.048 27.5295C27.404 27.4366 27.2635 28.1382 26.7869 28.6713C26.784 28.6732 26.7783 28.6769 26.7754 28.6787C26.7724 28.6806 26.77 28.6821 26.7696 28.6824C26.768 28.6833 26.7669 28.6841 26.7666 28.6842C26.7659 28.6847 26.7653 28.685 26.7652 28.6851C26.7648 28.6853 26.7645 28.6856 26.7644 28.6856C26.765 28.6852 26.7665 28.6843 26.7692 28.6826C26.7746 28.6793 26.7854 28.6726 26.8071 28.6591L25.3755 26.3461C25.3538 26.3595 25.343 26.3663 25.3375 26.3696C25.3348 26.3713 25.3334 26.3722 25.3327 26.3726C25.3324 26.3729 25.3321 26.373 25.3319 26.3731C25.3319 26.3731 25.3317 26.3732 25.3315 26.3734C25.3314 26.3734 25.3311 26.3736 25.3307 26.3739C25.3306 26.3739 25.33 26.3743 25.3292 26.3748C25.329 26.3749 25.3279 26.3756 25.3263 26.3766C25.3259 26.3769 25.3235 26.3784 25.3205 26.3803C25.3176 26.3821 25.3119 26.3858 25.309 26.3877C24.8324 26.9208 24.6919 27.6223 26.048 27.5295ZM26.0913 27.5026C24.8482 26.9523 25.1907 28.5215 26.7884 28.6705C26.7908 28.6691 26.7954 28.6663 26.7977 28.6649C26.8001 28.6635 26.8019 28.6623 26.8022 28.6621C26.8034 28.6614 26.8043 28.6608 26.8045 28.6607C26.805 28.6604 26.8055 28.6601 26.8056 28.66C26.8059 28.6599 26.8061 28.6597 26.8062 28.6597C26.8061 28.6597 26.8063 28.6596 26.8062 28.6597C26.8063 28.6596 26.8068 28.6593 26.8071 28.6591C26.8078 28.6587 26.8093 28.6577 26.812 28.656C26.8175 28.6527 26.8283 28.646 26.85 28.6325L25.4192 26.319C25.3976 26.3324 25.3868 26.3391 25.3814 26.3424C25.3787 26.3441 25.3774 26.3449 25.3767 26.3453C25.3768 26.3453 25.3776 26.3448 25.3781 26.3445C25.3783 26.3443 25.3792 26.3438 25.3804 26.3431C25.3807 26.3429 25.3825 26.3417 25.3849 26.3403C25.3872 26.3389 25.3918 26.3361 25.3942 26.3347C26.992 26.4837 27.3344 28.0529 26.0913 27.5026ZM26.8504 28.6322L26.8938 28.6054L25.4622 26.2924L25.4188 26.3193L26.8504 28.6322ZM27.4931 27.7925L27.5026 27.7563L24.8722 27.0691L24.8628 27.1053L27.4931 27.7925ZM27.5026 27.7563L27.512 27.7201L24.8817 27.0329L24.8722 27.0691L27.5026 27.7563ZM27.512 27.7201C27.5216 27.6835 27.5302 27.6508 27.5402 27.6121L24.9102 26.924C24.9014 26.9575 24.891 26.9972 24.8817 27.0329L27.512 27.7201ZM27.5402 27.6121L31.3287 13.1047L28.6987 12.4167L24.9102 26.924L27.5402 27.6121ZM28.6049 11.213L22.7442 12.9364L23.5105 15.547L29.3712 13.8236L28.6049 11.213ZM24.447 13.9159L21.8023 3.18481L19.163 3.83643L21.8076 14.5676L24.447 13.9159ZM19.4948 4.44506L28.0002 13.4528L29.9759 11.5839L21.4705 2.57617L19.4948 4.44506ZM18.3232 3.29002L21.0577 14.5111L23.6987 13.8664L20.9642 2.64525L18.3232 3.29002ZM22.7382 12.8769L12.1673 9.97067L11.4473 12.5944L22.0182 15.5006L22.7382 12.8769ZM12.7961 12.2161L20.6324 3.90115L18.6549 2.03412L10.8186 10.349L12.7961 12.2161ZM17.6668 2.06895L10.1472 10.0055L12.1197 11.8778L19.6394 3.94121L17.6668 2.06895ZM12.1227 10.0087L7.88694 5.50948L5.90848 7.37549L10.1442 11.8747L12.1227 10.0087ZM7.27887 7.74834L19.0343 4.31094L18.2719 1.69922L6.51656 5.13662L7.27887 7.74834ZM5.40026 7.93557L9.636 12.4348L11.6145 10.5688L7.37876 6.06961L5.40026 7.93557ZM9.63634 10.5685L2.15058 18.5144L4.12841 20.381L11.6142 12.4351L9.63634 10.5685ZM4.45454 19.7918L7.70456 7.34664L5.07446 6.65858L1.82445 19.1037L4.45454 19.7918ZM9.62812 12.5339L12.3627 23.755L15.0037 23.1102L12.2692 11.8891L9.62812 12.5339ZM14.0432 22.1207L3.47239 19.2146L2.75235 21.8382L13.3232 24.7445L14.0432 22.1207ZM4.10111 21.4599L11.9374 13.145L9.9599 11.278L2.12363 19.5929L4.10111 21.4599ZM13.0929 29.51L4.58756 20.5023L2.61182 22.3712L11.1172 31.3789L13.0929 29.51ZM3.23966 22.7486L13.37 25.5337L14.0901 22.91L3.95971 20.1248L3.23966 22.7486ZM12.415 23.8779L10.79 30.1004L13.4201 30.7885L15.0451 24.5659L12.415 23.8779ZM15.6725 22.9043L12.938 11.6832L10.2969 12.3279L13.0315 23.5491L15.6725 22.9043ZM11.2574 13.3174L21.7944 16.2143L22.5144 13.5906L11.9775 10.6937L11.2574 13.3174ZM21.1631 13.9717L13.3607 22.2959L15.3433 24.1575L23.1457 15.8333L21.1631 13.9717ZM14.097 30.9729L15.722 24.7503L13.0919 24.0623L11.4669 30.2848L14.097 30.9729ZM14.047 25.7181L24.1773 28.5033L24.8974 25.8796L14.767 23.0944L14.047 25.7181ZM24.1562 25.8856L12.4008 29.323L13.1631 31.9347L24.9185 28.4973L24.1562 25.8856ZM15.8229 24.6823L23.6591 16.3674L21.6816 14.5004L13.8454 22.8153L15.8229 24.6823ZM21.3499 15.7563L24.0844 26.9774L26.7255 26.3326L23.9909 15.1115L21.3499 15.7563ZM25.765 25.3432L15.1941 22.437L14.4741 25.0606L25.0449 27.9669L25.765 25.3432ZM27.2265 25.3869L24.6158 14.6651L21.9747 15.3093L24.5854 26.0311L27.2265 25.3869ZM23.6783 16.2925L29.5391 14.5691L28.7728 11.9585L22.9121 13.6819L23.6783 16.2925ZM27.8409 12.9198L24.5909 25.3649L27.221 26.053L30.471 13.6078L27.8409 12.9198Z" fill="white"/>
<path fill-rule="evenodd" clip-rule="evenodd" d="M24.3185 34.6431C20.4531 34.6431 17.3267 31.3183 17.3267 27.2075C17.3267 23.0968 20.4531 19.772 24.3185 19.772C28.184 19.772 31.3104 23.0968 31.3104 27.2075C31.3104 31.3183 28.184 34.6431 24.3185 34.6431ZM27.1814 26.2953C27.5393 25.9146 27.5393 25.2802 27.1814 24.8738C26.7993 24.4674 26.2027 24.4674 25.8224 24.8738L23.4118 27.4115L22.791 26.7513C22.4331 26.3706 21.8365 26.3706 21.4543 26.7513C21.0964 27.1319 21.0964 27.7663 21.4543 28.1727L22.7668 29.5684C23.1247 29.9491 23.7212 29.9491 24.0792 29.5684L24.7708 28.8329L27.1814 26.2953Z" fill="#0000FF"/>
<mask id="mask0_826_242520" style="mask-type:luminance" maskUnits="userSpaceOnUse" x="40" y="0" width="134" height="36">
<path d="M173.977 0.102539H40.3652V35.0934H173.977V0.102539Z" fill="white"/>
</mask>
<g mask="url(#mask0_826_242520)">
<path d="M47.2871 31.3864L51.7095 19.1396H48.9651L46.0114 27.7648H45.9764L43.0045 19.1396H40.2778L44.6826 31.3864H47.2871ZM55.2974 31.6488C57.0454 31.6488 58.4088 30.949 59.3002 29.5494L57.535 28.1672C56.8883 29.112 56.2066 29.5494 55.2974 29.5494C54.1616 29.5494 53.4622 28.7971 53.3922 27.4849H59.5977V26.7501C59.5977 23.8284 57.832 21.8514 55.2452 21.8514C52.6756 21.8514 50.8754 23.8634 50.8754 26.7501C50.8754 29.6893 52.6756 31.6488 55.2974 31.6488ZM53.3922 25.7179C53.4795 24.6506 54.2315 23.9508 55.2624 23.9508C56.3987 23.9508 57.0804 24.5981 57.168 25.7179H53.3922ZM63.4716 31.3864V26.4002C63.4716 25.053 64.0311 24.3357 65.0974 24.3357C65.4294 24.3357 65.7264 24.3707 66.1288 24.4757L66.548 22.0963C66.181 21.9913 65.7964 21.9389 65.3422 21.9389C64.433 21.9389 63.7514 22.3237 63.3494 22.9361H63.3145V22.1138H60.972V31.3864H63.4716ZM70.0095 20.5917V18.1423H67.4749V20.5917H70.0095ZM70.0095 31.3864V22.1138H67.5098V31.3864H70.0095ZM78.4204 18.1948V20.5042H80.8152V18.1948H78.4204ZM75.2568 22.1138V21.414C75.2568 20.9941 75.4839 20.7667 75.9385 20.7667H77.3545V18.5447H75.6065C73.7709 18.5447 72.7572 19.5245 72.7572 21.169V22.1138H70.957V24.3182H72.7572V31.3864H75.2568V24.3182H78.4381V31.3864H80.9378V22.1138H75.2568ZM86.7236 31.6488C88.4716 31.6488 89.8349 30.949 90.7264 29.5494L88.9607 28.1672C88.314 29.112 87.6323 29.5494 86.7236 29.5494C85.5873 29.5494 84.8879 28.7971 84.818 27.4849H91.0234V26.7501C91.0234 23.8284 89.2582 21.8514 86.6709 21.8514C84.1014 21.8514 82.3011 23.8634 82.3011 26.7501C82.3011 29.6893 84.1014 31.6488 86.7236 31.6488ZM84.818 25.7179C84.9056 24.6506 85.6572 23.9508 86.6886 23.9508C87.8249 23.9508 88.5065 24.5981 88.5938 25.7179H84.818ZM96.0029 31.6488C97.1219 31.6488 98.0656 31.1765 98.5551 30.5641H98.5901V31.3864H100.915V18.6147H98.4153V22.6737H98.3803C97.7858 22.1313 96.9643 21.8514 96.0029 21.8514C93.5909 21.8514 91.8602 23.8983 91.8602 26.7501C91.8602 29.6018 93.5909 31.6488 96.0029 31.6488ZM96.4752 29.3569C95.1463 29.3569 94.3598 28.3947 94.3598 26.7501C94.3598 25.088 95.1291 24.1433 96.4752 24.1433C97.5937 24.1433 98.4153 24.9481 98.4153 26.0853V27.4149C98.4153 28.5346 97.5937 29.3569 96.4752 29.3569ZM110.015 31.3864V27.205H112.409C115.083 27.205 116.692 25.7179 116.692 23.181C116.692 20.6617 115.048 19.1396 112.444 19.1396H107.427V31.3864H110.015ZM110.015 21.5014H112.392C113.51 21.5014 114.105 22.0438 114.105 23.1635C114.105 24.1958 113.405 24.8256 112.374 24.8256H110.015V21.5014ZM120.332 31.3864V26.4002C120.332 25.053 120.892 24.3357 121.958 24.3357C122.29 24.3357 122.587 24.3707 122.989 24.4757L123.409 22.0963C123.042 21.9913 122.657 21.9389 122.202 21.9389C121.294 21.9389 120.612 22.3237 120.21 22.9361H120.175V22.1138H117.832V31.3864H120.332ZM128.071 31.6488C130.798 31.6488 132.668 29.6718 132.668 26.7501C132.668 23.8284 130.798 21.8514 128.071 21.8514C125.361 21.8514 123.491 23.8284 123.491 26.7501C123.491 29.6718 125.361 31.6488 128.071 31.6488ZM128.071 29.3744C126.742 29.3744 125.991 28.4122 125.991 26.7501C125.991 25.088 126.742 24.1258 128.071 24.1258C129.399 24.1258 130.168 25.088 130.168 26.7501C130.168 28.4122 129.399 29.3744 128.071 29.3744ZM138.799 31.3864L142.662 22.1138H140.005L137.663 28.1147H137.628L135.286 22.1138H132.629L136.492 31.3864H138.799ZM146.039 20.5917V18.1423H143.505V20.5917H146.039ZM146.039 31.3864V22.1138H143.54V31.3864H146.039ZM151.549 31.6488C152.667 31.6488 153.612 31.1765 154.101 30.5641H154.136V31.3864H156.461V18.6147H153.961V22.6737H153.926C153.332 22.1313 152.51 21.8514 151.549 21.8514C149.137 21.8514 147.406 23.8983 147.406 26.7501C147.406 29.6018 149.137 31.6488 151.549 31.6488ZM152.021 29.3569C150.692 29.3569 149.906 28.3947 149.906 26.7501C149.906 25.088 150.675 24.1433 152.021 24.1433C153.14 24.1433 153.961 24.9481 153.961 26.0853V27.4149C153.961 28.5346 153.14 29.3569 152.021 29.3569ZM162.241 31.6488C163.989 31.6488 165.353 30.949 166.244 29.5494L164.479 28.1672C163.832 29.112 163.15 29.5494 162.241 29.5494C161.105 29.5494 160.406 28.7971 160.336 27.4849H166.541V26.7501C166.541 23.8284 164.776 21.8514 162.189 21.8514C159.619 21.8514 157.819 23.8634 157.819 26.7501C157.819 29.6893 159.619 31.6488 162.241 31.6488ZM160.336 25.7179C160.423 24.6506 161.175 23.9508 162.206 23.9508C163.343 23.9508 164.024 24.5981 164.111 25.7179H160.336ZM170.415 31.3864V26.4002C170.415 25.053 170.975 24.3357 172.041 24.3357C172.373 24.3357 172.67 24.3707 173.073 24.4757L173.492 22.0963C173.125 21.9913 172.74 21.9389 172.286 21.9389C171.377 21.9389 170.695 22.3237 170.293 22.9361H170.258V22.1138H167.916V31.3864H170.415Z" fill="white"/>
<path d="M43.6689 10.8021C45.2842 10.8021 46.3749 9.95187 46.3749 8.68167C46.3749 7.54797 45.6616 6.79218 43.8365 6.16234C42.7458 5.79493 42.4313 5.58501 42.4313 5.2071C42.4313 4.79768 42.809 4.53527 43.3857 4.53527C44.0569 4.53527 44.466 4.88168 44.6652 5.62697L46.1756 5.30155C45.9448 3.9999 44.8329 3.13913 43.3857 3.13913C41.9174 3.13913 40.8896 3.98941 40.8896 5.2176C40.8896 6.21484 41.5398 6.91813 43.2492 7.49551C44.466 7.90488 44.8224 8.17784 44.8224 8.68167C44.8224 9.14359 44.4133 9.406 43.6899 9.406C42.7146 9.406 42.274 8.98613 42.0852 7.89438L40.5645 8.2198C40.8267 9.89937 41.9174 10.8021 43.6689 10.8021ZM50.3601 5.08114H48.9862V3.68498H47.4863V5.08114H46.5321V6.40376H47.4863V8.84963C47.4863 10.1408 48.0319 10.6447 49.4058 10.6447H50.1608V9.20654H49.5524C49.1121 9.20654 48.9862 9.10158 48.9862 8.75517V6.40376H50.3601V5.08114ZM52.5534 10.8021C53.1723 10.8021 53.6859 10.5922 54.0111 10.2038H54.0322V10.6447H55.3745V7.03363C55.3745 5.73197 54.4935 4.92368 53.0986 4.92368C51.819 4.92368 50.8332 5.65847 50.6655 6.76068L52.0394 7.06509C52.1443 6.49826 52.5218 6.17284 53.0986 6.17284C53.5814 6.17284 53.8645 6.3618 53.8645 6.68722C53.8645 6.98113 53.5915 7.13859 52.7105 7.34855C51.2844 7.69492 50.7283 8.1988 50.7283 9.13308C50.7283 10.1408 51.4521 10.8021 52.5534 10.8021ZM52.847 9.54246C52.3962 9.54246 52.1654 9.3745 52.1654 9.03859C52.1654 8.74467 52.3962 8.57671 53.0674 8.39825C53.5708 8.2513 53.8013 8.12534 53.8957 7.95738H53.9167V8.76567C53.9167 9.22754 53.4765 9.54246 52.847 9.54246ZM57.8652 10.6447V9.10159L58.5258 8.3353H58.5469L59.9103 10.6447H61.6406L59.5745 7.30655L61.5778 5.08114H59.7321L57.8859 7.21205H57.8652V2.98167H56.3654V10.6447H57.8652ZM63.7745 4.16786V2.69824H62.254V4.16786H63.7745ZM63.7745 10.6447V5.08114H62.2751V10.6447H63.7745ZM66.3146 10.6447V7.34855C66.3146 6.70822 66.6925 6.3093 67.3215 6.3093C67.972 6.3093 68.3284 6.68722 68.3284 7.34855V10.6447H69.8283V7.08609C69.8283 5.76343 69.0101 4.92368 67.7933 4.92368C67.1749 4.92368 66.5876 5.1756 66.2623 5.57451H66.2413V5.08114H64.8151V10.6447H66.3146ZM73.3967 13.164C75.0116 13.164 76.0396 12.1983 76.0396 10.6552V5.08114H74.592V5.52201H74.5713C74.2356 5.1651 73.711 4.97614 73.0926 4.97614C71.6555 4.97614 70.6068 6.20434 70.6068 7.85242C70.6068 9.56346 71.6449 10.7916 73.0926 10.7916C73.7005 10.7916 74.2983 10.5502 74.5713 10.1933H74.592V10.6027C74.592 11.369 74.1517 11.8309 73.4068 11.8309C72.809 11.8309 72.4315 11.6104 71.9913 11.0121L70.8584 11.8624C71.3934 12.6707 72.3371 13.164 73.3967 13.164ZM73.3757 9.4165C72.5786 9.4165 72.1067 8.83913 72.1067 7.85242C72.1067 6.90763 72.568 6.3408 73.3757 6.3408C74.0468 6.3408 74.5397 6.82368 74.5397 7.50601V8.2513C74.5397 8.93363 74.0573 9.4165 73.3757 9.4165ZM83.9547 7.88388C84.8567 7.53746 85.3914 6.75018 85.3914 5.66897C85.3914 4.19935 84.4371 3.29659 82.885 3.29659H79.8958V10.6447H81.4479V8.06234H82.3921L83.7765 10.6447H85.444L83.9547 7.89438V7.88388ZM81.4479 4.71372H82.6963C83.4512 4.71372 83.8393 5.02864 83.8393 5.65847C83.8393 6.2988 83.4407 6.64522 82.6963 6.64522H81.4479V4.71372ZM88.4593 10.8021C89.508 10.8021 90.3261 10.3822 90.8612 9.54246L89.8016 8.71317C89.4136 9.28004 89.0049 9.54246 88.4593 9.54246C87.7776 9.54246 87.358 9.09108 87.3163 8.3038H91.0394V7.86288C91.0394 6.10984 89.9802 4.92368 88.4277 4.92368C86.8862 4.92368 85.8059 6.13084 85.8059 7.86288C85.8059 9.62646 86.8862 10.8021 88.4593 10.8021ZM87.3163 7.24355C87.3686 6.60322 87.8198 6.18334 88.4383 6.18334C89.1199 6.18334 89.529 6.57172 89.5817 7.24355H87.3163ZM94.04 10.6447L95.3089 6.82368H95.33L96.599 10.6447H98.0883L99.3467 5.08114H97.8574L97.1446 8.62921H97.1235L95.97 5.08114H94.6694L93.5053 8.62921H93.4843L92.7815 5.08114H91.2922L92.5401 10.6447H94.04ZM101.479 10.8021C102.098 10.8021 102.612 10.5922 102.937 10.2038H102.958V10.6447H104.301V7.03363C104.301 5.73197 103.42 4.92368 102.025 4.92368C100.745 4.92368 99.7596 5.65847 99.5915 6.76068L100.965 7.06509C101.07 6.49826 101.448 6.17284 102.025 6.17284C102.507 6.17284 102.791 6.3618 102.791 6.68722C102.791 6.98113 102.518 7.13859 101.637 7.34855C100.21 7.69492 99.6547 8.1988 99.6547 9.13308C99.6547 10.1408 100.378 10.8021 101.479 10.8021ZM101.773 9.54246C101.322 9.54246 101.091 9.3745 101.091 9.03859C101.091 8.74467 101.322 8.57671 101.993 8.39825C102.497 8.2513 102.728 8.12534 102.822 7.95738H102.843V8.76567C102.843 9.22754 102.402 9.54246 101.773 9.54246ZM106.791 10.6447V7.65296C106.791 6.84468 107.127 6.41426 107.767 6.41426C107.966 6.41426 108.144 6.43526 108.385 6.49826L108.637 5.07064C108.417 5.00764 108.186 4.97614 107.913 4.97614C107.368 4.97614 106.959 5.2071 106.718 5.57451H106.697V5.08114H105.291V10.6447H106.791ZM111.172 10.8021C111.844 10.8021 112.41 10.5187 112.703 10.1513H112.725V10.6447H114.119V2.98167H112.62V5.41705H112.599C112.242 5.09164 111.749 4.92368 111.172 4.92368C109.725 4.92368 108.687 6.15184 108.687 7.86288C108.687 9.57396 109.725 10.8021 111.172 10.8021ZM111.456 9.427C110.658 9.427 110.187 8.84963 110.187 7.86288C110.187 6.86568 110.648 6.2988 111.456 6.2988C112.127 6.2988 112.62 6.78168 112.62 7.46401V8.2618C112.62 8.93363 112.127 9.427 111.456 9.427ZM117.514 10.8021C118.783 10.8021 119.759 10.1093 119.759 9.11208C119.759 8.14634 119.066 7.66346 117.724 7.20159C116.738 6.87618 116.612 6.80268 116.612 6.59272C116.612 6.3618 116.853 6.14134 117.252 6.14134C117.755 6.14134 118.154 6.42476 118.332 6.94963L119.664 6.56122C119.392 5.58501 118.395 4.92368 117.252 4.92368C116.056 4.92368 115.112 5.64797 115.112 6.59272C115.112 7.44301 115.668 7.92588 116.927 8.3248C118.007 8.67117 118.259 8.80767 118.259 9.12258C118.259 9.406 117.955 9.57396 117.514 9.57396C116.728 9.57396 116.34 9.24854 116.161 8.49275L114.829 8.84963C115.07 10.0988 116.004 10.8021 117.514 10.8021Z" fill="white"/>
</g>
</g>
<defs>
<clipPath id="clip0_826_242520">
<rect width="174" height="35" fill="white" transform="translate(0.368164 0.0942383)"/>
</clipPath>
</defs>
</svg>
