<svg width="538" height="385" viewBox="0 0 538 385" fill="none" xmlns="http://www.w3.org/2000/svg">
<g opacity="0.1">
<path fill-rule="evenodd" clip-rule="evenodd" d="M294.59 137.849C294.545 127.53 276.341 115.926 268.565 109.943C253.19 98.1101 237.2 87.1831 221.357 76.0814C205.514 64.9798 189.629 53.9083 174.522 41.7203C164.713 33.8086 153.188 24.8978 146.536 13.6006C132.364 -10.4745 177.046 -6.89927 188.62 -7.42591C218.064 -8.77111 251.836 -8.15721 279.435 -20.6943C295.91 -28.1786 302.48 -40.7308 298.941 -59.0248C297.801 -64.9744 294.425 -71.8207 297.285 -77.6168C300.339 -83.8071 307.365 -87.3792 313.196 -89.7747C334.464 -98.5019 358.918 -99.5131 381.422 -100.608C405.687 -101.812 430.181 -101.46 454.276 -101.553C464.492 -101.593 475.162 -105.466 484.891 -108.613C497.646 -112.739 510.249 -117.374 522.898 -121.855C550.725 -131.689 579.399 -142.048 608.84 -144.545C627.277 -146.11 647.428 -143.995 661.751 -130.383C668.942 -123.549 672.706 -113.389 676.864 -104.364C681.897 -93.4612 686.73 -82.4529 692.088 -71.7214C709.347 -37.1586 733.989 -3.38433 773.986 -1.68703C780.037 -1.43124 785.979 -2.26483 792.001 -2.42131C795.837 -2.51761 799.25 -1.53955 800.676 2.69465C804.26 13.3148 792.994 30.08 788.374 38.5063C778.26 56.9508 766.855 74.5677 756.17 92.6421C749.102 104.595 736.866 120.93 736.738 135.454C736.624 148.394 752.934 157.747 761.813 164.121C770.134 170.089 785.209 178.44 786.122 190.579C786.564 196.466 782.885 201.344 779.045 205.13C772.312 211.75 764.557 216.421 758.5 223.975C748.569 236.367 740.271 253.418 741.62 270.117C742.555 281.689 748.811 289.266 756.769 296.51C760.114 299.555 762.829 301.71 763.005 306.654C763.29 314.506 760.376 322.815 757.975 330.094C749.387 356.147 737.189 381.338 723.619 404.86C716.838 416.614 709.513 428.333 700.522 438.36C694.634 444.945 686.693 452.781 677.711 452.772C667.311 452.772 656.308 448.812 646.2 445.85C627.32 440.316 608.669 433.918 590.092 427.355C547.131 412.169 504.573 395.754 462.419 378.109C432.728 365.659 402.405 353.191 374.49 336.64C369.046 333.39 363.907 329.6 359.144 325.322C354.054 320.829 347.738 318.818 341.334 317.32C301.585 308.018 258.038 315.159 218.123 319.637C207.992 320.771 197.861 321.912 187.702 322.706C178.968 323.39 168.512 325.349 160.023 322.405C143.296 316.612 157.918 295.261 164.1 286.561C185.865 255.928 213.946 230.011 239.974 203.553C252.349 190.953 264.818 178.385 276.521 165.072C282.614 158.15 294.63 146.895 294.59 137.849Z" fill="#911738" stroke="white"/>
<path fill-rule="evenodd" clip-rule="evenodd" d="M302.091 136.109C295.42 125.19 283.715 117.119 273.999 109.524C260.018 98.5898 245.597 88.2631 231.393 77.6387C217.962 67.5918 204.502 57.4306 192.064 46.0211C184.48 39.0634 174.964 30.7431 171.372 20.4526C163.579 -1.85213 205.501 1.53193 215.85 0.948369C241.579 -0.495497 270.749 -0.826392 294.552 -12.5698C309.415 -19.9035 315.522 -32.065 312.351 -48.9492C311.256 -54.7909 309.281 -59.7782 311.781 -65.5898C314.671 -72.3158 321.32 -76.509 327.414 -79.4689C346.506 -88.7428 369.074 -90.713 389.769 -92.3524C411.15 -94.0459 433.426 -95.2402 454.119 -94.0008C462.394 -93.5075 471.918 -96.308 480.107 -98.4558C492.708 -101.765 505.18 -105.582 517.718 -109.131C543.198 -116.351 569.341 -123.305 595.849 -124.096C614.987 -124.668 634.94 -121.57 650.862 -109.595C666.998 -97.4511 674.157 -78.6267 683.105 -60.7318C698.559 -29.7939 719.432 7.82178 755.185 14.3583C760.606 15.3509 765.816 14.8125 771.232 15.0562C774.017 15.1795 777.187 15.5705 778.599 18.4673C782.266 25.9874 772.219 39.7372 768.838 45.4977C759.496 61.4163 748.993 76.5558 739.203 92.1676C731.427 104.564 721.572 118.338 718.564 133.032C714.915 150.864 738.761 163.552 747.147 176.107C761.685 197.88 734.141 210.285 720.562 220.666C704.968 232.584 692.096 254.326 706.075 272.765C711.422 279.816 718.002 284.018 720.391 293.22C724.126 307.61 721.301 324.055 718.27 338.281C713.705 359.665 706.48 380.817 696.659 400.144C689.623 413.981 677.949 435.678 660.855 434.051C649.347 432.965 637.648 428.997 626.443 425.49C609.665 420.241 593.098 414.258 576.62 408.043C538.582 393.737 500.963 377.963 464.083 360.612C438.919 348.77 368.726 300.373 363.444 298.646C347.696 293.503 329.791 294.408 313.556 295.205C291.958 296.264 270.47 299.007 248.998 301.549C238.777 302.752 228.505 304.223 218.23 304.816C210.917 305.237 201.312 305.598 194.906 301.113C182.403 292.363 196.333 272.341 202.094 263.87C219.742 237.902 242.067 215.414 262.999 192.42C273.272 181.131 283.701 169.86 293.026 157.665C296.786 152.741 306.214 142.853 302.091 136.109Z" fill="#911738" stroke="white"/>
<path fill-rule="evenodd" clip-rule="evenodd" d="M311.32 130.509C293.101 108.659 267.955 92.4076 246.253 74.1586C235.36 64.9965 224.399 55.5847 215.004 44.6715C210.117 38.9967 204.015 31.8204 203.073 23.91C200.557 2.74848 238.341 5.60995 249.651 4.80657C271.516 3.24797 296.217 2.06549 316.053 -8.73344C328.173 -15.335 334.141 -26.17 331.876 -40.4111C330.871 -46.7298 329.308 -52.0977 331.876 -58.302C334.478 -64.5876 339.898 -69.0227 345.387 -72.3475C361.161 -81.9098 380.764 -84.9669 398.524 -87.2446C419.358 -89.8976 440.348 -90.9334 461.326 -90.3438C479.699 -89.8353 497.984 -95.5552 515.923 -99.3253C539.688 -104.317 563.884 -108.677 588.203 -108.018C607.409 -107.494 626.766 -103.381 643.185 -92.45C659.869 -81.3171 669.9 -64.6538 678.944 -46.6726C692.615 -19.4903 709.653 16.9355 739.647 27.259C744.009 28.7634 748.074 28.9289 752.573 29.1907C754.759 29.3171 757.58 29.3562 758.664 31.7603C761.272 37.5494 751.632 48.7726 748.941 52.6841C740.354 65.1711 731.045 77.0953 722.243 89.4167C714.027 100.92 705.077 112.907 699.973 126.387C691.851 147.856 717.819 160.409 717.091 180.866C716.637 193.567 705.109 202.675 695.979 208.975C684.738 216.723 668.554 221.817 662.928 235.956C658.737 246.487 665.313 252.616 670.377 260.608C678.958 274.148 679.543 292.502 678.65 308.176C677.446 329.355 672.742 350.848 664.734 370.315C661.105 379.14 656.66 388.321 650.115 395.175C643.984 401.599 638.181 403.245 629.987 401.93C604.904 397.898 579.578 386.66 555.525 376.622C525.304 364.009 495.499 350.083 466.584 334.416C446.867 323.732 426.705 312.427 409.399 297.665C404.889 293.817 400.27 289.635 396.972 284.559C394.478 280.743 393.42 277.593 389.217 275.415C376.761 268.961 359.435 270.649 346.089 271.32C324.749 272.388 303.512 275.231 282.303 277.792C269.927 279.296 246.612 284.029 236.73 272.677C228.199 262.874 238.493 246.159 243.751 237.524C257.051 215.685 274.16 196.518 290.034 176.783C297.309 167.738 304.87 158.624 310.878 148.569C312.413 146.005 314.872 142.608 315.294 139.494C315.768 135.925 313.557 133.202 311.32 130.509Z" fill="#BE1E2E" stroke="white"/>
<path fill-rule="evenodd" clip-rule="evenodd" d="M312.886 135.596C296.051 116.276 275.769 100.404 257.696 82.3247C249.592 74.2185 241.409 65.7148 235.234 55.826C231.913 50.5082 228.386 43.8143 229.302 37.2047C231.93 18.234 263.006 19.9474 275.561 18.8363C294.216 17.2042 315.648 15.5601 332.144 5.33098C342.949 -1.36897 347.001 -11.2638 344.984 -24.0253C342.818 -37.7143 347.66 -47.6513 358.68 -55.2877C372.496 -64.8544 389.936 -68.7539 405.978 -71.5242C425.305 -74.8459 444.877 -76.3184 464.455 -75.9236C483.496 -75.5381 501.943 -78.9047 520.858 -81.0938C545.936 -83.9936 571.82 -85.424 596.616 -79.4798C618.204 -74.3036 637.704 -62.8971 652.322 -45.2574C667.591 -26.8468 675.149 -3.65144 687.547 16.7164C695.28 29.4207 706.063 46.2263 720.512 51.1647C725.332 52.8118 734.115 50.5895 730.265 58.6927C728.065 63.327 723.948 67.3921 720.695 71.1802C715.439 77.302 710.009 83.2552 704.665 89.2927C693.274 102.163 681.076 115.307 672.538 130.546C661.781 149.734 677.772 164.501 675.823 183.956C674.775 194.426 667.876 202.782 660.577 209.347C655.855 213.599 650.687 217.281 645.411 220.717C639.901 224.306 633.381 227.041 628.576 231.681C621.728 238.284 624.701 246.102 625.985 254.638C628.245 269.641 628.742 284.88 627.463 300.011C625.9 318.557 622.233 337.633 614.509 354.487C611.504 361.049 607.698 368.005 602.045 372.404C596.393 376.803 590.546 376.502 584.069 375.177C564.857 371.263 545.685 362.154 527.461 353.521C504.651 342.713 482.289 330.635 460.934 316.895C446.193 307.41 431.404 297.163 419.072 284.302C415.485 280.559 412.073 276.551 409.313 272.076C407.419 269.008 406.403 265.048 403.658 262.742C395.069 255.542 377.826 257.692 367.754 258.11C347.652 258.944 327.866 262.91 307.79 263.874C296.833 264.401 279.673 265.726 271.626 255.882C264.059 246.629 270.913 232.054 275.435 223.138C284.324 205.607 296.265 189.988 306.968 173.691C311.368 166.985 316.19 159.969 319.041 152.311C321.575 145.488 317.2 140.55 312.886 135.596Z" fill="#E55C5C" stroke="white"/>
<path fill-rule="evenodd" clip-rule="evenodd" d="M317.027 135.912C303.627 118.911 287.473 103.819 273.975 86.5418C266.075 76.4236 252.47 59.4135 258.58 45.1488C265.282 29.4738 288.647 29.0469 302.153 27.784C318.227 26.2806 337.104 24.2268 350.861 14.4394C355.212 11.3453 358.918 7.24988 360.489 1.85551C362.171 -3.91774 360.332 -8.96931 360.093 -14.7486C359.591 -26.8724 366.451 -36.6057 375.528 -43.2901C388.358 -52.7407 404.401 -57.209 419.555 -60.3241C436.723 -63.8377 454.176 -65.5699 471.664 -65.496C488.377 -65.4359 504.914 -65.8267 521.644 -66.2778C543.523 -66.8792 565.71 -65.9079 586.934 -59.7769C607.841 -53.733 626.849 -42.406 641.78 -25.7448C656.346 -9.48651 666.174 10.3861 674.781 30.6285C679.665 42.1178 687.916 59.2872 699.566 65.0905C704.746 67.6735 709.83 67.4961 704.322 74.2135C697.385 82.6719 688.036 89.4585 680.002 96.693C668.412 107.133 656.532 117.777 646.804 130.19C640.591 138.116 637.823 145.808 638.25 156.07C638.581 163.888 640.081 171.625 639.322 179.473C637.546 197.893 623.795 210.525 611.638 222.288C603.818 229.853 596.676 235.624 592.65 246.385C587.889 259.105 585.89 272.942 582.708 286.149C579.213 300.651 575.176 315.736 567.546 328.51C560.755 339.882 552.495 344.982 540.133 341.918C520.851 337.143 501.846 325.38 484.728 314.498C467.305 303.426 450.181 290.978 435.743 275.76C427.949 267.542 422.628 257.893 415.706 249.065C406.999 237.981 387.301 242.179 375.594 243.117C356.161 244.674 295.014 256.329 300.656 218.581C303.011 202.824 312.286 188.283 319.068 174.379C321.879 168.609 325.948 161.684 326.584 155.072C327.277 147.87 321.056 141.03 317.027 135.912Z" fill="#EC8888" stroke="white"/>
<path fill-rule="evenodd" clip-rule="evenodd" d="M324.102 137.356C313.862 121.949 301.607 107.394 292.82 90.7545C287.12 79.9782 281.523 65.5797 288.876 54.1776C297.175 41.3104 315.475 38.311 328.921 36.6714C342.775 34.9836 359.314 33.5636 370.637 23.8072C374.239 20.6994 377.209 16.5086 377.762 11.4905C378.295 6.67697 376.79 1.86344 377.289 -3.03735C378.406 -14.0423 384.73 -23.1098 392.884 -29.6863C417.004 -49.1421 452.902 -53.4683 482.004 -53.9767C496.57 -54.2294 511.561 -52.9027 526.222 -51.952C545.245 -50.7185 564.298 -48.0711 582.441 -41.6901C621.016 -28.128 646.871 1.95068 664.929 39.379C670.612 51.1601 674.961 63.907 683.867 73.3746C688.459 78.2634 687.455 81.7743 682.761 86.2328C675.423 93.2004 666.471 98.5254 658.325 104.341C646.74 112.611 634.907 121.005 624.661 130.912C617.599 137.741 612.586 144.32 611.064 154.561C609.978 161.863 610.231 169.303 609.579 176.649C608.336 190.605 604.081 204.456 596.549 216.033C590.564 225.209 583.438 233.548 576.074 241.5C566.501 251.852 558.404 262.369 551.134 274.656C541.495 290.92 527.952 320.92 505.248 312.981C480.208 304.22 456.738 281.961 440.673 260.393C435.278 253.151 430.849 244.27 423.573 238.93C412.68 230.949 401.628 231.229 388.672 231.262C369.274 231.307 327.066 235.751 326.61 205.088C326.43 192.94 331.412 181.454 333.797 169.769C336.488 156.682 331.096 147.855 324.102 137.356Z" fill="#E55C5C" stroke="white"/>
<path fill-rule="evenodd" clip-rule="evenodd" d="M331.729 138.729C321.6 118.65 298.887 85.6549 316.162 63.3266C325.287 51.5267 341.427 47.0923 354.966 44.4497C365.862 42.3122 379.002 41.5095 387.235 32.4483C393.286 25.7862 390.6 16.0907 392.918 7.75106C395.795 -2.58782 402.4 -11.0477 410.515 -17.4062C433.194 -35.1768 464.727 -40.6303 492.008 -41.7908C520.341 -42.9933 551.56 -37.3684 578.223 -26.5485C611.467 -13.053 636.372 12.5011 653.79 44.8616C657.004 50.8352 659.924 56.9652 663.009 63.011C665.082 67.0665 668.156 70.9898 669.79 75.2559C672.511 82.3689 669.305 88.1832 664.167 92.819C656.775 99.4932 647.696 104.243 639.27 109.252C627.746 116.106 615.966 122.838 605.247 130.88C598.044 136.291 590.505 142.12 587.927 151.509C586.167 157.913 585.802 164.695 585.865 171.327C586.002 185.547 585.295 197.047 579.004 210.07C568.653 231.451 552.735 250.677 535.92 266.674C522.722 279.228 501.84 298.731 482.612 290.337C465.36 282.821 455.268 264.831 443.902 250.286C438.375 243.215 432.167 236.758 424.873 231.728C415.677 225.388 407.019 222.727 396.123 221.69C377.785 219.943 350.133 219.489 344.464 196.28C342.371 187.715 343.566 178.843 342.468 170.167C341.034 158.694 336.839 148.858 331.729 138.729Z" fill="#DE3030" stroke="white"/>
<path fill-rule="evenodd" clip-rule="evenodd" d="M342.261 139.473C335.048 117.502 325.573 89.8127 342.993 70.2857C351.431 60.8262 363.3 55.5381 374.788 51.5864C383.015 48.7543 396.078 47.9206 401.122 39.2135C404.827 32.8059 405.34 23.9664 408.691 17.1012C413.296 7.66279 420.272 -0.1113 428.457 -6.19692C449.778 -22.0551 477.549 -28.1828 502.874 -29.9375C557.903 -33.7448 613.894 -3.42196 643.34 46.4669C652.12 61.3378 663.454 77.1659 649.265 92.3589C633.774 108.933 610.437 116.698 591.948 128.475C584.884 132.972 575.882 138.377 571.94 146.518C569.569 151.412 569.407 157.552 569.299 162.939C569.014 176.661 567.934 189 562.704 201.804C554.628 221.59 541.75 239.843 527.157 254.796C514.43 267.834 496.28 283.156 477.797 273.757C463.625 266.533 454.637 251.202 443.626 239.901C431.372 227.314 416.217 218.833 399.575 214.688C383.385 210.667 365.629 207.956 357.097 190.873C354.17 185.013 351.112 177.425 350.015 170.939C348.244 160.245 345.651 149.722 342.261 139.473Z" fill="#BE1E2E" stroke="white"/>
<path fill-rule="evenodd" clip-rule="evenodd" d="M354.005 139.628C350.668 117.442 350.297 94.3081 365.8 76.8224C373.036 68.6648 382.182 62.8693 391.431 57.6185C398.235 53.7548 405.263 50.496 410.345 44.1619C415.053 38.2973 418.633 31.4877 423.179 25.4696C429.175 17.4943 436.35 10.5903 444.428 5.02299C464.677 -8.90599 489.31 -15.4207 512.875 -17.6805C524.283 -18.7788 536.658 -19.3505 547.988 -16.3565C558.931 -13.4678 569.752 -8.89998 579.813 -3.57393C601.203 7.73716 619.741 24.3021 633.179 45.2452C642.394 59.6105 647.376 73.5786 635.443 88.1515C621.991 104.578 600.898 113.641 583.512 124.302C571.588 131.615 558.224 138.782 555.997 154.321C554.223 166.685 552.783 178.421 548.194 190.108C541.364 207.347 531.323 222.963 518.665 236.029C507.089 247.933 492.444 258.035 475.885 251.676C462.766 246.63 452.588 235.325 441.126 227.243C428.352 218.216 414.318 213.239 399.539 209.236C386.257 205.626 373.751 200.077 365.167 188.296C363.41 185.889 361.565 183.268 360.21 180.575C358.482 177.139 358.616 173.732 358.277 169.881C357.393 159.716 355.513 149.669 354.005 139.628Z" fill="#911738" stroke="white"/>
<path fill-rule="evenodd" clip-rule="evenodd" d="M366.953 137.814C367.239 116.741 372.042 96.825 385.197 80.4022C390.822 73.3768 397.538 67.5901 403.726 61.1523C408.709 55.9624 413.419 51.1401 419.148 46.8634C432.74 36.7366 443.786 23.6321 458.23 14.6145C477.512 2.55885 499.599 -4.10489 521.514 -6.76919C532.215 -8.0712 543.27 -8.52631 554.097 -7.05551C563.395 -5.79269 572.301 -1.35923 580.562 3.17671C596.753 12.0617 612.475 24.69 622.988 40.6668C646.166 75.8904 600.468 101.5 577.013 116.497C566.226 123.396 549.744 131.386 545.325 145.051C542.167 154.813 540.243 164.741 536.175 174.201C525.248 199.608 503.068 229.491 473.51 225.513C460.861 223.813 449.334 216.908 437.526 212.273C425.368 207.499 412.82 204.838 400.183 201.917C388.373 199.19 378.96 195.308 371.332 184.901C367.686 179.931 368.008 173.981 367.683 167.884C367.153 157.869 366.825 147.796 366.953 137.814Z" fill="#911738" stroke="white"/>
<path fill-rule="evenodd" clip-rule="evenodd" d="M378.744 135.115C383.493 103.307 401.129 68.5812 427.061 50.1087C457.566 28.3789 490.612 10.0807 527.058 4.82045C543.955 2.3813 562.465 1.18127 578.409 9.15738C590.543 15.2237 604.638 24.2915 611.316 37.0437C627.654 68.2353 591.314 93.066 570.61 107.496C559.463 115.265 545.274 122.835 536.872 134.18C531.998 140.757 529.51 149.458 525.574 156.682C513.648 178.575 494.017 196.232 469.563 199.39C458.256 200.849 446.867 199.044 435.646 197.61C424.159 196.142 412.53 195.345 401.115 193.297C392.003 191.661 381.264 188.891 377.908 178.602C373.676 165.636 376.806 148.105 378.744 135.115Z" fill="#BE1E2E" stroke="white"/>
<path fill-rule="evenodd" clip-rule="evenodd" d="M390.306 130.005C397.231 100.1 411.897 70.9295 436.551 53.0767C449.625 43.61 464.802 37.0751 479.373 30.6185C495.89 23.301 513.147 17.621 530.773 14.8036C552.718 11.2938 588.26 8.13025 599.726 34.5136C611.106 60.7012 582.349 83.8788 565.344 97.087C554.441 105.548 542.772 113.314 532.355 122.564C526.707 127.579 522.356 133.373 517.576 139.255C504.364 155.552 485.53 168.453 466.333 175.34C447.728 182.016 424.711 184.972 405.071 182.766C396.597 181.818 390.54 178.618 387.977 169.521C384.426 156.876 387.443 142.359 390.306 130.005Z" fill="#DE3030" stroke="white"/>
<path fill-rule="evenodd" clip-rule="evenodd" d="M401.795 121.951C408.675 95.6206 423.515 71.5714 445.16 55.7684C469.424 38.053 500.668 28.2091 529.385 23.2032C544.649 20.5444 577.727 13.3354 585.508 33.9674C593.288 54.5994 570.796 74.9316 557.851 86.1244C542.139 99.6882 525.2 112.784 508.28 124.954C493.58 135.536 477.894 146.354 461.972 154.525C452.991 159.161 443.637 162.945 434.018 165.835C426.896 167.957 417.84 171.122 410.373 169.543C391.539 165.553 398.504 134.541 401.795 121.951Z" fill="#E55C5C" stroke="white"/>
<path fill-rule="evenodd" clip-rule="evenodd" d="M415.976 114.066C431.072 64.2725 478.899 39.7831 524.95 31.2471C535.65 29.2657 565.648 22.1218 571.629 37.3326C577.425 52.0804 558.992 69.5703 550.362 77.8567C523.62 103.534 490.58 122.572 459.272 141.433C449.5 147.32 431.875 160.096 419.753 154.202C406.591 147.792 412.849 124.391 415.976 114.066Z" fill="#EC8888" stroke="white"/>
<path fill-rule="evenodd" clip-rule="evenodd" d="M431.439 104.482C444.567 67.8128 482.75 46.7815 517.856 39.8483C526.455 38.1518 548.293 32.87 554.806 43.1029C560.832 52.5687 546.45 66.2848 541.069 71.7351C529.09 83.872 514.893 93.8703 500.868 103.481C487.9 112.372 474.792 121.486 461.147 129.006C453.96 132.964 440.48 141.41 432.313 135.298C423.52 128.723 428.524 112.625 431.439 104.482Z" fill="#EC8888" stroke="white"/>
<path fill-rule="evenodd" clip-rule="evenodd" d="M448.478 93.7689C458.484 69.8223 485.283 54.2722 508.922 49.1049C515.283 47.7175 529.031 44.1181 534.397 50.5133C539.337 56.4029 531.375 65.0372 527.842 69.0247C512.181 86.6995 489.248 102.487 468.235 112.184C462.952 114.622 453.455 119.407 448.021 114.486C442.446 109.433 446.18 99.2672 448.478 93.7689Z" fill="#F3B4B4" stroke="white"/>
<path fill-rule="evenodd" clip-rule="evenodd" d="M466.554 83.7098C472.193 71.8189 486.929 62.8475 499.135 59.9918C507.726 57.9836 518.052 59.7183 510.566 70.069C503.128 80.3406 489.328 89.7221 477.631 93.8812C468.707 97.0529 461.713 93.9237 466.554 83.7098Z" fill="#FAE0E0" stroke="white"/>
<path fill-rule="evenodd" clip-rule="evenodd" d="M9.33635 166.068C8.97473 142.576 -2.85613 118.161 2.98668 94.2234C7.78451 74.5639 31.9388 72.9226 46.4291 64.0157C57.9439 56.9394 64.4786 44.4042 70.7058 32.3771C76.3009 21.5794 81.3265 10.457 87.2206 -0.163346C91.0361 -7.02915 97.5879 -20.5112 105.862 -20.7547C113.784 -20.9892 121.047 -10.4831 125.649 -4.2726C131.648 3.82267 136.967 12.453 142.793 20.6775C152.611 34.5504 164.39 44.8191 177.878 54.5376C193.227 65.5959 208.83 76.2763 224.686 86.579C236.36 94.1873 248.114 101.739 259.336 110.098C266.375 115.344 281.91 125.186 281.981 134.856C282.015 139.47 277.872 144.581 275.079 148.269C270.352 154.513 264.965 160.221 259.561 165.806C249.495 176.21 239.003 186.142 228.624 196.194C215.153 209.241 202.286 222.073 190.444 236.884C178.2 252.215 166.503 268.051 154.567 283.67C146.483 294.252 138.408 306.134 126.748 312.628C112.144 320.744 100.156 312.186 85.3869 312.086C72.6819 311.999 73.6187 280.929 72.0042 272.289C70.3841 263.545 66.8134 255.404 65.4296 246.639C63.7041 235.697 63.6813 224.502 63.2571 213.443C62.7417 199.916 62.5367 187.038 48.838 181.88C41.0419 178.949 32.6079 178.333 24.5385 176.577C19.3107 175.438 9.45024 173.49 9.33635 166.068Z" stroke="white"/>
<path fill-rule="evenodd" clip-rule="evenodd" d="M52.5823 161.889C51.2506 142.196 43.3828 116.992 50.8229 96.6643C57.1793 79.2932 77.0584 77.0412 90.4442 67.9161C101.495 60.3897 106.414 48.0733 111.937 35.9737C116.369 26.2676 120.666 16.4681 125.697 7.07205C129.404 0.147689 135.065 -11.5424 142.773 -12.9755C149.702 -14.264 157.134 -3.94371 161.024 1.30677C166.698 8.97173 171.552 17.296 176.565 25.4457C185.374 39.7611 194.394 52.6344 207.287 63.1504C220.236 73.7115 234.403 81.6083 248.722 89.8272C259.923 96.2578 271.067 102.875 281.71 110.299C289.638 115.827 301.036 122.902 304.663 132.758C307.535 140.556 292.971 153.495 288.677 158.062C279.836 167.452 270.469 176.267 261.084 185.028C249.643 195.704 237.837 205.04 227.733 217.217C209.662 238.99 194.557 266.103 171.304 282.285C157.279 292.046 141.672 294.541 126.073 293.081C119.896 292.503 118.414 283.3 117.635 277.932C116.34 269.015 116.178 259.944 115.183 250.99C114.25 242.609 112.18 234.646 110.512 226.427C108.823 218.1 108.35 209.567 107.107 201.183C106.337 195.978 105.575 189.92 102.207 185.736C98.7227 181.403 92.9737 179.588 87.949 178.209C78.5128 175.644 53.5234 175.786 52.5823 161.889Z" fill="#DE3030" stroke="white"/>
<path fill-rule="evenodd" clip-rule="evenodd" d="M60.6209 153.645C58.3812 135.569 55.2456 113.055 64.3699 96.4014C71.8279 82.7843 87.734 79.8467 99.0951 70.9741C108.545 63.5957 112.114 51.8608 116.804 40.9556C120.653 32.0108 124.522 23.0269 129.187 14.5151C132.725 8.05976 137.284 -0.692661 144.308 -2.94465C150.314 -4.86891 157.099 3.75122 160.428 8.04173C166.098 15.3539 170.72 23.547 175.31 31.6319C182.82 44.8612 189.73 58.9925 200.418 69.7534C210.803 80.1955 223.14 86.3592 235.708 93.2895C245.334 98.5993 254.901 104.113 263.971 110.446C270.935 115.304 279.566 121.062 283.195 129.147C286.333 136.119 278.276 144.373 274.251 149.292C267.603 157.41 260.225 164.857 252.949 172.335C245.097 180.401 236.401 187.843 228.803 196.108C212.826 213.502 200.061 232.759 180.369 246.085C167.615 254.717 150.454 262.558 135.378 261.148C124.536 260.132 125.25 234.81 124.208 226.719C122.496 213.49 119.19 199.59 113.937 187.404C109.426 176.962 98.7071 173.742 88.8467 171.4C82.6697 169.929 76.196 169.136 70.2216 166.862C63.3057 164.229 61.5596 161.222 60.6209 153.645Z" fill="#E55C5C" stroke="white"/>
<path fill-rule="evenodd" clip-rule="evenodd" d="M68.1193 145.173C66.7858 129.89 67.0856 111.818 75.7236 98.5987C83.2936 87.0193 96.7718 83.9706 106.358 74.8489C113.839 67.7324 116.778 56.1288 120.801 46.7176C125.718 35.2106 132.609 13.9575 145.013 9.62733C156.552 5.60168 168.62 31.3176 172.797 38.9859C179.411 51.1232 184.942 64.4334 192.963 75.6419C199.871 85.2914 209.126 90.6258 218.949 96.3582C231.473 103.68 250.488 112.361 257.184 126.63C262.176 137.263 245.945 153.07 240.402 160.437C234.605 168.132 230.239 177.254 224.257 184.678C214.817 196.393 199.52 205.826 186.89 213.024C174.611 220.025 158.665 227.775 144.736 227.314C135.581 227.012 133.839 212.092 131.886 204.803C129.088 194.442 125.367 185.158 117.374 178.11C109.239 170.937 99.6501 167.556 89.5701 164.598C84.3959 163.09 78.4935 161.914 73.8647 158.869C68.7504 155.555 68.6333 151.047 68.1193 145.173Z" fill="#EC8888" stroke="white"/>
<path fill-rule="evenodd" clip-rule="evenodd" d="M77.2561 136.364C77.3301 123.161 80.1906 109.082 88.6725 98.8976C95.737 90.4147 106.795 87.5791 113.558 78.9072C118.914 72.0418 121.641 62.4037 125.227 54.4309C129.613 44.6608 135.815 27.5932 146.722 24.2024C157.367 20.9017 166.783 39.7008 170.864 47.1394C176.842 58.0467 181.68 69.6082 187.712 80.4856C192.436 89.0194 198.214 94.5196 205.908 100.02C214.939 106.48 227.539 113.637 232.364 124.325C235.842 132.064 227.423 144.429 224.366 151.247C222.317 155.826 220.441 160.477 219.41 165.44C218.608 169.305 218.528 172.882 216.203 176.2C210.348 184.548 197.511 185.637 188.802 188.389C177.234 192.041 164.961 196.191 152.856 196.983C145.416 197.478 141.619 190.243 137.372 185.154C132.354 179.138 125.25 174.811 119.045 170.271C110.856 164.27 101.945 160.537 92.7256 156.714C88.5672 154.989 83.683 153.296 80.461 149.867C77.0967 146.311 77.2305 141.129 77.2561 136.364Z" fill="#E55C5C" stroke="white"/>
<path fill-rule="evenodd" clip-rule="evenodd" d="M86.8516 128.526C88.3218 117.437 92.9033 106.839 100.642 99.0004C106.574 92.9822 114.452 89.5939 119.213 82.363C123.649 75.6226 126.74 67.9583 130.404 60.7515C134.282 53.1324 140.043 40.3978 148.987 38.3245C158.625 36.0918 166.05 48.9377 170.162 56.0573C175.356 65.0546 179.302 74.7349 183.946 84.0421C187.445 90.9792 191.908 97.3236 197.186 102.864C202.722 108.705 210.23 114.299 213.03 122.33C215.506 129.444 210.874 138.05 210.056 145.263C209.181 152.969 210.714 161.064 205.865 167.681C195.864 181.327 170.766 178.796 156.417 179.088C142.26 179.389 130.877 171.039 119.421 163.095C111.853 157.85 103.972 153.408 96.214 148.522C88.3047 143.535 85.5581 138.284 86.8516 128.526Z" fill="#DE3030" stroke="white"/>
<path fill-rule="evenodd" clip-rule="evenodd" d="M95.7672 122.179C100.115 106.115 113.694 97.5767 123.401 85.4367C131.344 75.4982 137.299 54.9166 150.676 52.194C165.862 49.1041 174.954 76.3746 180.234 86.8974C186.092 98.5676 196.527 108.06 200.866 120.414C203.146 126.898 201.188 132.949 199.973 139.43C198.642 146.546 197.641 153.822 193.046 159.551C184 170.823 166.333 170.745 153.609 171.055C140.438 171.377 128.786 163.653 118.292 155.943C107.162 147.778 91.3141 138.653 95.7672 122.179Z" fill="#BE1E2E" stroke="white"/>
<path fill-rule="evenodd" clip-rule="evenodd" d="M103.049 117.823C107.948 106.378 118.243 97.0732 126.596 88.2894C133.569 80.9666 141.069 66.2252 151.7 65.1744C164.194 63.935 171.767 79.6763 176.683 89.3283C181.522 98.8126 188.494 108.827 191.173 119.236C193.967 130.08 186.527 144.683 179.431 152.356C171.517 160.913 158.569 164.074 147.459 163.733C135.826 163.386 125.152 156.314 116.342 148.979C106.923 141.139 97.3518 131.11 103.049 117.823Z" fill="#911738" stroke="white"/>
<path fill-rule="evenodd" clip-rule="evenodd" d="M109.806 115.668C114.485 106.149 122.597 98.0961 130.076 90.9131C135.848 85.3676 144.365 75.9382 152.692 75.7073C161.853 75.4523 169.616 83.3672 173.258 91.4799C176.848 99.4817 180.631 109.514 181.169 118.293C182.336 137.409 158.576 158.823 140.734 157.081C123.818 155.428 100.475 134.635 109.806 115.668Z" fill="#911738" stroke="white"/>
<path fill-rule="evenodd" clip-rule="evenodd" d="M116.055 114.619C122.511 102.216 138.192 84.5336 152.709 84.1137C169.373 83.6338 173.556 103.311 171.384 117.57C169.177 132.124 149.965 153.19 134.646 150.343C119.695 147.565 108.404 129.328 116.055 114.619Z" fill="#651035" stroke="white"/>
<path fill-rule="evenodd" clip-rule="evenodd" d="M122.653 112.613C128.118 102.228 139.782 89.257 151.947 88.8644C166.442 88.3998 166.168 105.013 162.881 115.352C159.463 126.088 144.41 144.424 131.719 141.529C119.377 138.703 117.415 122.566 122.653 112.613Z" fill="#651043" stroke="white"/>
<path fill-rule="evenodd" clip-rule="evenodd" d="M128.399 111.418C132.007 104.008 141.036 94.6425 149.62 94.3428C160.112 93.9826 158.073 107.159 155.362 113.519C152.14 121.086 141.339 134.235 132.275 132.104C123.351 130.007 125.422 117.523 128.399 111.418Z" fill="#651051" stroke="white"/>
<path fill-rule="evenodd" clip-rule="evenodd" d="M584.963 534.802C561.739 549.669 535.486 561.941 510.73 574.414C474.551 592.64 437.839 610.376 399.825 623.953C379.443 631.23 353.033 641.722 331.164 636.02C323.169 633.936 315.877 627.634 308.708 623.538C298.822 617.891 288.791 612.523 278.778 607.143C258.69 596.36 238.54 585.685 218.797 574.21C209.291 568.683 200.066 561.721 190.169 557.006C184.386 554.249 177.465 555.539 171.285 555.713C156.969 556.119 142.663 556.889 128.356 557.544C110.857 558.344 93.3174 559.195 75.7981 558.88C67.8965 558.735 48.5443 560.215 44.1945 553.034C41.8542 549.167 47.3699 542.193 49.9268 538.967C54.6216 533.037 60.0177 527.693 65.3424 522.404C77.6566 510.171 90.7348 498.521 101.681 484.857C107.305 477.833 114.673 469.25 111.002 459.661C107.296 449.975 100.877 441.588 96.9603 431.935C92.4508 420.827 90.5809 409.268 88.4515 397.489C86.8752 388.784 83.2037 381.071 79.7518 373.045C75.9378 364.174 71.9869 355.228 69.3388 345.873C67.5886 339.693 64.7637 328.576 70.8866 324.664C79.5864 319.1 95.8999 323.605 105.817 325.244C119.522 327.505 133.128 330.386 146.796 332.867C156.718 334.671 166.675 336.65 176.763 336.86C193.025 337.2 209.342 336.024 225.561 334.93C255.594 332.903 285.412 330.155 315.546 330.155C341.947 330.155 402.957 362.381 417.238 368.056C445.744 379.384 475.007 390.122 501.981 405.193C509.279 409.274 520.51 414.711 524.349 423.11C526.718 428.285 525.629 431.277 531.216 434.612C538.838 439.161 548.604 440.948 557.042 442.983C570.63 446.261 584.324 449.037 597.975 452.005C625.585 457.992 653.007 464.764 680.503 471.28C688.815 473.25 698.872 473.686 706.796 477.156C711.905 479.384 711.374 482.19 707.421 485.576C700.485 491.518 690.765 494.817 682.573 498.206C670.569 503.17 658.369 507.6 646.163 511.966C633.957 516.332 621.689 520.563 609.477 524.939C601.41 527.819 592.211 530.162 584.963 534.802Z" stroke="white"/>
<path fill-rule="evenodd" clip-rule="evenodd" d="M565.852 531.532C541.287 546.429 514.019 558.297 487.732 569.876C454.088 584.704 419.684 598.601 384.236 607.87C363.422 613.309 338.866 619.314 317.599 613.077C310.012 610.852 304.344 605.85 297.841 601.435C290.428 596.397 282.73 591.78 275.032 587.236C259.185 577.883 243.171 568.849 226.99 560.134C218.42 555.499 208.985 549.293 199.303 547.685C191.605 546.405 182.86 548.257 175.128 548.796C161.203 549.766 147.281 550.765 133.351 551.615C117.276 552.593 101.156 553.497 85.0469 553.34C76.0687 553.253 60.6555 554.695 54.306 548.573C48.7663 543.231 68.9352 523.91 72.482 520.239C83.5586 508.778 95.2083 497.864 105.518 485.608C111.611 478.381 119.029 469.59 121.598 460.011C123.785 451.847 119.566 442.545 117.074 434.999C113.957 425.546 111.443 415.747 107.822 406.493C104.597 398.248 99.465 390.903 94.9574 383.408C89.9993 375.162 84.9785 366.782 81.2977 357.787C79.0424 352.252 75.3103 342.983 79.7923 337.707C84.9699 331.624 100.931 335.599 107.491 336.466C120.8 338.249 134.006 340.899 147.224 343.272C169.178 347.211 190.108 350.656 212.464 349.831C241.577 348.753 270.661 346.217 299.768 344.814C310.517 344.29 321.437 343.236 332.194 343.805C338.361 344.133 343.057 346.121 346.643 350.605C351.542 356.724 362.824 360.112 370.67 363.623C382.904 369.094 395.292 374.184 407.646 379.339C434.766 390.662 462.408 401.575 488.128 416.22C496.265 420.851 505.582 426.016 511.601 433.668C514.96 437.935 514.113 442.045 516.163 446.58C518.877 452.546 527.801 455.238 533.136 457.19C543.431 460.96 554.149 463.486 564.783 465.853C588.847 471.208 612.967 474.728 637.421 477.321C643.152 477.923 665.719 480.01 653.867 490.068C640.771 501.183 621.863 506.63 606.447 512.894C592.559 518.525 578.66 523.765 565.852 531.532Z" stroke="white"/>
<path fill-rule="evenodd" clip-rule="evenodd" d="M531.903 528.777C508.813 541.883 483.234 551.66 458.365 561.014C428.188 572.364 397.254 582.482 365.604 588.149C345.721 591.706 323.801 594.439 304.053 588.528C290.567 584.493 280.135 573.585 268.29 566.08C256.445 558.576 244.12 551.531 231.428 545.659C223.55 542.015 215.076 538.344 206.311 538.825C184.999 539.992 163.712 542.773 142.377 544.123C128.263 545.025 114.12 545.767 99.9636 545.545C91.4267 545.413 79.6988 545.954 72.1409 541.215C63.7866 535.975 108.269 491.23 112.474 486.193C123.014 473.565 135.778 456.806 133.74 438.847C131.791 421.679 123.342 408.862 113.786 395.41C108.363 387.758 90.9729 367.316 97.4176 357.364C101.1 351.675 113.236 353.645 119.001 354.032C130.364 354.796 141.663 356.438 152.966 357.863C169.446 359.929 186.38 363.119 202.932 364.054C214.457 364.703 226.051 363.834 237.596 363.816C254.15 363.792 270.704 363.924 287.259 364.081C301.159 364.213 315.176 364.081 329.027 365.488C337.638 366.354 344.174 368.299 350.351 373.795C355.725 378.576 363.834 381.375 370.684 384.415C381.998 389.433 393.461 394.084 404.886 398.811C428.807 408.709 453.002 418.399 475.898 430.769C486.35 436.412 503.924 444.314 506.375 457.997C507.26 462.931 507.911 465.063 512.478 467.868C518.96 471.849 526.723 473.644 533.995 475.204C550.949 478.842 568.394 478.298 585.32 481.894C592.212 483.376 601.212 486.575 593.343 493.899C584.161 502.465 570.795 507.174 559.795 512.466C554.303 515.105 548.646 517.577 543.431 520.8C539.427 523.284 535.999 526.468 531.903 528.777Z" stroke="white"/>
<path fill-rule="evenodd" clip-rule="evenodd" d="M488.17 524.685C466.837 535.33 443.669 543.069 420.917 550.046C395.646 557.786 369.765 564.196 343.542 566.924C325.435 568.814 306.143 569.371 288.569 563.588C277.455 559.929 269.921 552.234 260.357 545.782C245.923 536.029 230.307 528.302 212.967 530.182C193.526 532.286 174.022 533.864 154.454 534.917C142.651 535.553 130.802 536.029 118.984 535.586C111.512 535.309 101.886 534.842 95.3859 531.27C86.6886 526.487 119.357 490.092 123.43 484.788C133.529 471.632 140.932 457.829 145.258 441.53C148.786 428.23 141.579 417.775 134.144 407.826C129.522 401.648 114.587 386.108 119.263 378.085C121.828 373.661 130.28 373.89 134.82 373.664C143.471 373.236 152.16 373.682 160.812 373.878C173.587 374.18 187.186 372.109 199.853 373.776C227.925 377.465 255.926 380.659 284.172 383.188C299.743 384.58 315.407 385.846 330.838 388.531C336.378 389.496 342.1 390.518 347.35 392.7C350.726 394.101 352.567 396.488 355.417 398.447C369.004 407.772 386.741 412.57 402.044 418.546C422.388 426.491 442.84 434.312 462.642 443.697C473.058 448.634 487.606 454.306 494.772 464.381C496.938 467.425 496.015 469.86 497.377 472.787C498.944 476.162 503.706 477.169 506.781 478.109C513.76 480.246 542.972 483.477 529.51 496.011C523.087 501.982 514.903 505.812 507.662 510.505C505.04 512.205 502.484 513.913 500.298 516.207C496.642 520.053 493.04 522.247 488.17 524.685Z" stroke="white"/>
<path fill-rule="evenodd" clip-rule="evenodd" d="M441.571 520.076C399.458 537.298 350.102 549.031 304.188 546.758C288.919 545.999 272.491 543.467 259.256 534.802C251.452 529.684 245.215 523.906 235.84 522.057C229.073 520.723 221.785 522.238 214.978 522.786C205.117 523.581 195.251 524.291 185.377 524.866C173.135 525.568 160.853 526.11 148.589 525.821C139.825 525.613 127.723 525.848 120.11 520.88C111.021 514.955 134.157 487.158 137.412 482.206C145.302 470.201 150.833 458.57 152.832 444.103C153.42 439.888 155.402 435.568 155.145 431.319C154.877 426.981 152.344 423.118 150.005 419.706C146.947 415.235 136.336 404.631 139.374 399.179C141.053 396.168 147.355 395.788 150.622 395.15C156.75 393.946 162.967 393.298 169.132 392.341C179.592 390.709 189.977 385.395 200.474 385.545C228.701 385.943 257.337 395.18 284.999 400.253C301.444 403.279 318 406.025 334.245 410.123C339.385 411.421 344.68 412.763 349.565 414.964C352.975 416.5 355.165 419.237 358.323 420.956C370.434 427.559 384.36 431.566 397.365 436.01C414.247 441.791 431.186 447.397 447.951 453.551C458.459 457.408 471.972 460.802 481.026 467.955C487.64 473.179 483.12 474.742 479.63 479.607C477.848 482.088 478.259 484.533 477.486 487.342C476.38 491.353 473.257 494.24 470.327 496.835C466.286 500.421 460.903 503.375 457.6 507.771C456.434 509.318 456.489 511.239 455.546 512.588C452.805 516.517 445.532 518.456 441.571 520.076Z" stroke="white"/>
</g>
</svg>
